<svg width="543" height="396" viewBox="0 0 543 396" fill="none" xmlns="http://www.w3.org/2000/svg">
<path d="M0.230536 104.11C0.230536 104.11 -3.38951 98.3704 18.0605 91.7804C39.5105 85.2004 53.9904 83.7004 54.1304 91.7804C54.2704 99.8604 54.1304 105.17 54.1304 105.17C54.1304 105.17 10.6305 113.15 0.230536 104.11Z" fill="#B12420"/>
<path d="M3.41061 112.01C3.41061 112.01 1.42067 109.71 0.220665 104.11C-1.24933 97.2 54.1006 103.16 54.1206 105.18C54.1206 105.18 53.8706 114.56 52.1906 114.46C50.5206 114.37 3.41061 112.01 3.41061 112.01Z" fill="url(#paint0_linear_100_6561)"/>
<path d="M3.4107 112.01C3.4107 112.01 1.68076 109.65 0.220762 104.11C-1.23924 98.5699 54.1207 105.18 54.1207 105.18C54.1207 105.18 53.8707 114.56 52.1907 114.46C50.5207 114.37 3.4107 112.01 3.4107 112.01Z" fill="#B12420"/>
<path d="M60.5907 124.281L52.2007 114.471C52.2007 114.471 9.74064 112.021 3.41064 112.021C3.41064 112.021 7.93068 121.17 19.8207 121.19C31.7107 121.21 46.4607 122.561 47.0607 126.921C47.6607 131.281 34.8407 135.471 38.9207 144.971C43.0007 154.461 75.0307 139.111 60.5907 124.281Z" fill="#50070C"/>
<path d="M542.191 104.11C542.191 104.11 545.811 98.3704 524.361 91.7804C502.911 85.2004 488.431 83.7004 488.291 91.7804C488.151 99.8604 488.291 105.17 488.291 105.17C488.291 105.17 531.791 113.15 542.191 104.11Z" fill="#B12420"/>
<path d="M539.001 112.01C539.001 112.01 540.991 109.71 542.191 104.11C543.661 97.2 488.311 103.16 488.291 105.18C488.291 105.18 488.541 114.56 490.221 114.46C491.901 114.37 539.001 112.01 539.001 112.01Z" fill="url(#paint1_linear_100_6561)"/>
<path d="M539.001 112.01C539.001 112.01 540.731 109.65 542.191 104.11C543.651 98.5699 488.291 105.18 488.291 105.18C488.291 105.18 488.541 114.56 490.221 114.46C491.901 114.37 539.001 112.01 539.001 112.01Z" fill="#B12420"/>
<path d="M481.821 124.281L490.211 114.471C490.211 114.471 532.671 112.021 539.001 112.021C539.001 112.021 534.481 121.17 522.591 121.19C510.701 121.2 495.951 122.561 495.351 126.921C494.751 131.281 507.571 135.471 503.491 144.971C499.411 154.471 467.391 139.111 481.821 124.281Z" fill="#50070C"/>
<path d="M415.161 8.52989C409.901 6.53989 406.401 7.06987 406.401 7.06987L271.211 10.4499L136.021 7.06987C136.021 7.06987 132.53 6.53989 127.26 8.52989C118.33 11.9099 79.8705 59.1799 60.7505 121.98C60.7505 121.98 66.8406 129.96 112.071 129.96C156.741 129.96 268.431 129.96 271.181 129.96C271.211 129.96 271.25 129.96 271.25 129.96C274 129.96 385.691 129.96 430.361 129.96C475.591 129.96 481.681 121.98 481.681 121.98C462.551 59.1799 424.091 11.9099 415.161 8.52989Z" fill="#50070C"/>
<path d="M426.331 24.74C420.971 21.76 419.181 17.88 411.431 9.23999C403.781 0.709991 274.561 0.02 271.251 0C271.251 0 271.221 0 271.211 0C271.201 0 271.171 0 271.171 0C267.851 0.02 138.641 0.709991 130.991 9.23999C123.241 17.88 121.451 21.76 116.091 24.74C110.721 27.72 71.5808 109.63 69.0508 127.49H271.191H271.231H473.371C470.841 109.63 431.701 27.72 426.331 24.74Z" fill="#B12420"/>
<path d="M431.34 33.6105C427.38 27.4305 420.64 23.6205 413.35 23.3205C318.63 19.4505 223.79 19.4505 129.07 23.3205C121.78 23.6205 115.04 27.4305 111.08 33.6105C83.3004 76.9505 69.1304 127.49 69.1304 127.49H271.15H271.27H473.29C473.29 127.49 459.12 76.9505 431.34 33.6105Z" fill="#0C0C12"/>
<path d="M495.98 142.3C486 140.23 478.12 136.87 481.73 130.9C485.35 124.93 469.91 124.92 469.91 124.92L271.21 114.46L72.5103 124.92C72.5103 124.92 57.0803 124.92 60.6903 130.9C64.3103 136.87 56.4303 140.23 46.4403 142.3C36.4603 144.37 24.1104 154.89 24.1104 154.89L271.2 152.99L518.29 154.89C518.3 154.89 505.96 144.37 495.98 142.3Z" fill="#FF8E84"/>
<path d="M533.281 174.44H271.401H271.251H9.38065C9.38065 174.44 -5.95926 224.16 23.9707 228.28C53.9107 232.4 271.201 271.01 271.201 271.01L518.671 228.28C548.621 224.16 533.281 174.44 533.281 174.44Z" fill="url(#paint2_linear_100_6561)"/>
<path d="M53.3507 395.89H37.1506C20.4706 395.89 6.95068 382.37 6.95068 365.69V254.64C6.95068 237.96 20.4706 224.44 37.1506 224.44H53.3507C70.0307 224.44 83.5507 237.96 83.5507 254.64V365.69C83.5507 382.36 70.0307 395.89 53.3507 395.89Z" fill="#0C0D0C"/>
<path d="M45.2505 395.89C43.7505 395.89 42.5405 394.68 42.5405 393.18V227.15C42.5405 225.65 43.7505 224.44 45.2505 224.44C46.7505 224.44 47.9606 225.65 47.9606 227.15V393.18C47.9606 394.67 46.7405 395.89 45.2505 395.89Z" fill="#2B2C31"/>
<path d="M31.8809 395.89C30.3809 395.89 29.1709 394.68 29.1709 393.18V227.15C29.1709 225.65 30.3809 224.44 31.8809 224.44C33.3809 224.44 34.5909 225.65 34.5909 227.15V393.18C34.5909 394.67 33.3709 395.89 31.8809 395.89Z" fill="#2B2C31"/>
<path d="M58.6211 395.89C57.1211 395.89 55.9111 394.68 55.9111 393.18V227.15C55.9111 225.65 57.1211 224.44 58.6211 224.44C60.1211 224.44 61.3312 225.65 61.3312 227.15V393.18C61.3312 394.67 60.1111 395.89 58.6211 395.89Z" fill="#2B2C31"/>
<path d="M505.271 395.89H489.071C472.391 395.89 458.871 382.37 458.871 365.69V254.64C458.871 237.96 472.391 224.44 489.071 224.44H505.271C521.951 224.44 535.471 237.96 535.471 254.64V365.69C535.471 382.36 521.951 395.89 505.271 395.89Z" fill="#0C0D0C"/>
<path d="M497.171 395.89C495.671 395.89 494.461 394.68 494.461 393.18V227.15C494.461 225.65 495.671 224.44 497.171 224.44C498.671 224.44 499.881 225.65 499.881 227.15V393.18C499.881 394.67 498.671 395.89 497.171 395.89Z" fill="#2B2C31"/>
<path d="M483.801 395.89C482.301 395.89 481.091 394.68 481.091 393.18V227.15C481.091 225.65 482.301 224.44 483.801 224.44C485.301 224.44 486.511 225.65 486.511 227.15V393.18C486.511 394.67 485.291 395.89 483.801 395.89Z" fill="#2B2C31"/>
<path d="M510.541 395.89C509.041 395.89 507.831 394.68 507.831 393.18V227.15C507.831 225.65 509.041 224.44 510.541 224.44C512.041 224.44 513.251 225.65 513.251 227.15V393.18C513.251 394.67 512.041 395.89 510.541 395.89Z" fill="#2B2C31"/>
<path d="M102.92 369.7H89.4805C75.6405 369.7 64.4204 358.48 64.4204 344.64V252.5C64.4204 238.66 75.6405 227.44 89.4805 227.44H102.92C116.76 227.44 127.98 238.66 127.98 252.5V344.64C127.98 358.48 116.76 369.7 102.92 369.7Z" fill="#0C0D0C"/>
<path d="M96.2002 369.7C94.9602 369.7 93.9502 368.69 93.9502 367.45V229.69C93.9502 228.45 94.9602 227.44 96.2002 227.44C97.4402 227.44 98.4502 228.45 98.4502 229.69V367.46C98.4402 368.7 97.4402 369.7 96.2002 369.7Z" fill="#2B2C31"/>
<path d="M85.1006 369.7C83.8606 369.7 82.8506 368.69 82.8506 367.45V229.69C82.8506 228.45 83.8606 227.44 85.1006 227.44C86.3406 227.44 87.3506 228.45 87.3506 229.69V367.46C87.3506 368.7 86.3406 369.7 85.1006 369.7Z" fill="#2B2C31"/>
<path d="M107.291 369.7C106.051 369.7 105.041 368.69 105.041 367.45V229.69C105.041 228.45 106.051 227.44 107.291 227.44C108.531 227.44 109.541 228.45 109.541 229.69V367.46C109.541 368.7 108.531 369.7 107.291 369.7Z" fill="#2B2C31"/>
<path d="M452.94 369.7H439.5C425.66 369.7 414.44 358.48 414.44 344.64V252.5C414.44 238.66 425.66 227.44 439.5 227.44H452.94C466.78 227.44 478 238.66 478 252.5V344.64C478 358.48 466.78 369.7 452.94 369.7Z" fill="#0C0D0C"/>
<path d="M446.221 369.7C444.981 369.7 443.971 368.69 443.971 367.45V229.69C443.971 228.45 444.981 227.44 446.221 227.44C447.461 227.44 448.471 228.45 448.471 229.69V367.46C448.471 368.7 447.461 369.7 446.221 369.7Z" fill="#2B2C31"/>
<path d="M435.13 369.7C433.89 369.7 432.88 368.69 432.88 367.45V229.69C432.88 228.45 433.89 227.44 435.13 227.44C436.37 227.44 437.38 228.45 437.38 229.69V367.46C437.37 368.7 436.37 369.7 435.13 369.7Z" fill="#2B2C31"/>
<path d="M457.311 369.7C456.071 369.7 455.061 368.69 455.061 367.45V229.69C455.061 228.45 456.071 227.44 457.311 227.44C458.551 227.44 459.561 228.45 459.561 229.69V367.46C459.561 368.7 458.561 369.7 457.311 369.7Z" fill="#2B2C31"/>
<path d="M525.4 328.22L271.18 333.6L16.9605 328.22C16.9605 328.22 8.55049 334.78 10.8105 341.78C13.0705 348.78 18.8704 357.83 18.8704 357.83C18.8704 357.83 93.7705 357.05 113.611 359.09C113.611 359.09 118.98 352 271.15 352H271.211C423.381 352 428.75 359.09 428.75 359.09C448.59 357.05 523.49 357.83 523.49 357.83C523.49 357.83 529.29 348.78 531.55 341.78C533.81 334.78 525.4 328.22 525.4 328.22Z" fill="#50070C"/>
<path d="M525.4 326.22L271.18 331.6L16.9605 326.22C16.9605 326.22 8.55049 332.78 10.8105 339.78C13.0705 346.78 18.8704 355.83 18.8704 355.83C18.8704 355.83 93.7705 355.05 113.611 357.09C113.611 357.09 118.98 350 271.15 350H271.211C423.381 350 428.75 357.09 428.75 357.09C448.59 355.05 523.49 355.83 523.49 355.83C523.49 355.83 529.29 346.78 531.55 339.78C533.81 332.78 525.4 326.22 525.4 326.22Z" fill="url(#paint3_linear_100_6561)"/>
<path d="M535.611 287.65L271.201 290.63L6.7905 287.65C6.7905 287.65 5.46053 333.85 17.2005 339.41C28.6305 344.82 258.851 346.28 270.951 346.35C270.951 346.35 271.041 346.35 271.201 346.35C271.361 346.35 271.451 346.35 271.451 346.35C283.541 346.28 513.771 344.83 525.201 339.41C536.951 333.85 535.611 287.65 535.611 287.65Z" fill="url(#paint4_linear_100_6561)"/>
<path d="M535.611 285.65L271.201 288.63L6.7905 285.65C6.7905 285.65 5.46053 331.85 17.2005 337.41C28.6305 342.82 258.851 344.28 270.951 344.35C270.951 344.35 271.041 344.35 271.201 344.35C271.361 344.35 271.451 344.35 271.451 344.35C283.541 344.28 513.771 342.83 525.201 337.41C536.951 331.85 535.611 285.65 535.611 285.65Z" fill="url(#paint5_linear_100_6561)"/>
<path d="M532.921 174.44H271.151H9.38057C9.38057 174.44 -2.36936 206.79 5.45064 278.75C13.2706 350.71 117.521 340.85 271.151 340.85C424.781 340.85 529.031 350.71 536.851 278.75C544.671 206.79 532.921 174.44 532.921 174.44Z" fill="#7A0F15"/>
<path d="M465.05 337.7H77.3702C58.9502 337.7 44.0303 322.77 44.0303 304.36C44.0303 285.94 58.9602 271.02 77.3702 271.02H465.05C483.47 271.02 498.39 285.95 498.39 304.36C498.39 322.77 483.46 337.7 465.05 337.7Z" fill="#0C0D0C"/>
<path d="M124.14 321C124.14 321 124.14 321 115.63 321.26C107.13 321.51 73.8805 318.61 73.8105 318.6C71.4205 310.5 68.9104 299.79 67.1404 286.45V283.81L23.2305 281.59L20.9705 322.17C20.9705 322.17 14.0804 338.79 80.8904 337.32C80.8904 337.32 77.9704 331.97 74.6204 321.27C110.57 325.89 124.14 321 124.14 321Z" fill="#2B2C31"/>
<path d="M60.5202 287.439L25.0903 285.649L23.2602 318.399C23.2602 318.399 17.7003 331.809 71.6103 330.619C71.6103 330.619 64.1502 316.919 60.5202 289.569" fill="#A3A8AB"/>
<path d="M59.1404 287.369L25.0104 285.649L23.2504 317.189C23.2504 317.189 17.9005 330.109 69.8305 328.969C69.8305 328.969 62.6404 315.769 59.1404 289.429" fill="#0C0D0C"/>
<path d="M51.9348 320.004C53.44 313.63 49.4926 307.242 43.118 305.737C36.7435 304.232 30.3557 308.179 28.8505 314.553C27.3452 320.928 31.2926 327.316 37.6671 328.821C44.0417 330.326 50.4296 326.379 51.9348 320.004Z" fill="#A3A8AB"/>
<path d="M49.9594 319.538C51.207 314.255 47.9352 308.96 42.6518 307.713C37.3683 306.465 32.0739 309.737 30.8263 315.02C29.5788 320.304 32.8504 325.598 38.1339 326.846C43.4174 328.093 48.7118 324.822 49.9594 319.538Z" fill="#2B2C31"/>
<path d="M45.1216 322.817C48.234 319.705 48.2341 314.658 45.1216 311.546C42.0092 308.434 36.9629 308.434 33.8504 311.546C30.738 314.659 30.738 319.705 33.8504 322.817C36.9629 325.93 42.0091 325.93 45.1216 322.817Z" fill="#0C0D0C"/>
<path d="M418.271 321C418.271 321 418.271 321 426.781 321.26C435.281 321.51 468.531 318.61 468.601 318.6C470.991 310.5 473.501 299.79 475.271 286.45V283.81L519.181 281.59L521.441 322.17C521.441 322.17 528.331 338.79 461.521 337.32C461.521 337.32 464.441 331.97 467.791 321.27C431.841 325.89 418.271 321 418.271 321Z" fill="#2B2C31"/>
<path d="M481.901 287.439L517.331 285.649L519.161 318.399C519.161 318.399 524.721 331.809 470.811 330.619C470.811 330.619 478.271 316.919 481.901 289.569" fill="#A3A8AB"/>
<path d="M483.27 287.369L517.4 285.649L519.16 317.189C519.16 317.189 524.51 330.109 472.58 328.969C472.58 328.969 479.77 315.769 483.27 289.429" fill="#0C0D0C"/>
<path d="M513.052 321.696C515.559 315.645 512.685 308.707 506.634 306.2C500.582 303.693 493.644 306.567 491.137 312.619C488.631 318.67 491.504 325.608 497.556 328.115C503.608 330.622 510.546 327.748 513.052 321.696Z" fill="#A3A8AB"/>
<path d="M511.177 320.92C513.254 315.904 510.873 310.153 505.857 308.076C500.841 305.998 495.091 308.38 493.013 313.396C490.935 318.411 493.317 324.162 498.333 326.239C503.349 328.317 509.099 325.935 511.177 320.92Z" fill="#2B2C31"/>
<path d="M504.698 324.819C508.981 323.807 511.634 319.515 510.623 315.231C509.611 310.947 505.318 308.295 501.035 309.306C496.751 310.318 494.098 314.61 495.11 318.894C496.121 323.178 500.414 325.831 504.698 324.819Z" fill="#0C0D0C"/>
<path d="M518.441 228.28C452.271 122.44 271.211 135.47 271.211 135.47C271.211 135.47 90.1506 122.45 23.9806 228.28C23.9806 228.28 14.9806 240.63 17.3606 278.75C17.3606 278.75 19.4606 277.02 30.9706 281.07C42.4806 285.12 90.8306 288.64 90.8306 288.64C90.8306 288.64 104.751 320.37 117.211 328.28C129.661 336.19 271.211 335.17 271.211 335.17C271.211 335.17 412.761 336.19 425.211 328.28C437.661 320.37 451.591 288.64 451.591 288.64C451.591 288.64 499.941 285.12 511.451 281.07C522.961 277.02 525.061 278.75 525.061 278.75C527.441 240.63 518.441 228.28 518.441 228.28Z" fill="url(#paint6_linear_100_6561)"/>
<path d="M521.741 173.11L271.211 154.89L20.6806 173.11C20.6806 173.11 11.1906 179.09 15.4906 216.84C15.4906 216.84 15.0407 227.21 28.7307 229.16C42.4207 231.1 94.1107 237.3 94.1107 237.3L135.591 211.4C147.171 204.17 160.521 200.27 174.171 200.14L271.211 199.2L368.251 200.14C381.901 200.27 395.251 204.17 406.831 211.4L448.311 237.3C448.311 237.3 500.001 231.1 513.691 229.16C527.381 227.22 526.931 216.84 526.931 216.84C531.241 179.09 521.741 173.11 521.741 173.11Z" fill="#FF8E84"/>
<path d="M21.3303 182.089C17.8403 186.809 16.2003 194.579 15.4603 201.779C14.3603 202.439 13.4403 203.579 15.1603 205.279C14.6403 212.759 14.9902 218.839 14.9902 218.839C14.9902 218.839 31.7903 232.649 84.0503 231.359C84.0503 231.359 91.4003 226.289 102.51 219.889C109.36 218.929 109.37 216.049 109.37 216.039C121.17 209.599 135.71 202.619 149.92 198.269C149.91 198.279 29.1703 171.479 21.3303 182.089Z" fill="#50070C"/>
<path d="M526.96 201.77C526.21 194.58 524.57 186.8 521.09 182.08C513.24 171.47 392.5 198.27 392.5 198.27C406.72 202.62 421.26 209.6 433.05 216.04C433.05 216.05 433.06 218.93 439.91 219.89C451.01 226.29 458.37 231.36 458.37 231.36C510.63 232.65 527.43 218.84 527.43 218.84C527.43 218.84 527.78 212.76 527.26 205.28C528.98 203.57 528.06 202.44 526.96 201.77Z" fill="#50070C"/>
<path d="M149.91 196.28C149.91 196.28 29.1701 169.48 21.3201 180.09C13.4701 190.7 14.9701 216.84 14.9701 216.84C14.9701 216.84 31.7701 230.65 84.0301 229.36C84.0401 229.36 117.82 206.09 149.91 196.28Z" fill="#A3A8AB"/>
<path d="M120.971 197.01C120.711 197 94.4906 196.3 74.3606 192.95L73.5806 192.82L58.1006 209.08L60.2006 209.89C60.6506 210.06 70.9506 213.95 88.2006 213.95C89.0606 213.95 89.9506 213.94 90.8506 213.92L91.1605 213.91L127.411 197.17L120.971 197.01Z" fill="url(#paint7_linear_100_6561)"/>
<path d="M90.8104 212.421L120.94 198.511C120.94 198.511 94.5904 197.831 74.1204 194.431L60.7305 208.491C60.7305 208.491 72.0504 212.851 90.8104 212.421Z" fill="#6A6C7A"/>
<path d="M89.2803 213.11L112.58 202.35C112.58 202.35 92.2002 201.83 76.3702 199.19L66.0103 210.07C66.0103 210.07 74.7703 213.44 89.2803 213.11Z" fill="#0C0C12"/>
<path d="M71.1401 191.76C70.7801 191.72 35.5101 187.35 27.2501 184.39C26.1001 183.98 24.9902 184.11 24.0402 184.77C20.2302 187.41 19.9001 198.49 19.8701 200.09C19.6501 201.55 20.5401 202.93 22.5201 204.19C27.6801 207.5 39.9301 209.84 48.3901 209.84C52.0001 209.84 54.9202 209.41 56.3102 208.45C61.7702 204.67 71.3701 193.87 71.7701 193.41L73.0302 191.99L71.1401 191.76Z" fill="url(#paint8_linear_100_6561)"/>
<path d="M20.8701 200.171C20.8701 200.171 21.1102 183.241 26.9102 185.321C35.3702 188.361 71.0202 192.741 71.0202 192.741C71.0202 192.741 61.1601 203.871 55.7401 207.621C50.4601 211.281 19.7801 206.321 20.8701 200.171Z" fill="#6A6C7A"/>
<path d="M24.3205 201.341C24.3205 201.341 24.5406 186.201 29.7306 188.061C37.3006 190.781 69.1905 194.701 69.1905 194.701C69.1905 194.701 60.3705 204.661 55.5105 208.021C50.7905 211.281 23.3405 206.841 24.3205 201.341Z" fill="#0C0C12"/>
<path d="M109.36 214.051C109.36 214.051 131.9 201.251 149.91 196.281C149.91 196.281 139.61 196.631 135.01 194.801L99.2305 213.451L109.36 214.051Z" fill="url(#paint9_linear_100_6561)"/>
<path d="M17.1903 199.051C17.1903 199.051 63.0504 212.081 109.36 214.051C109.36 214.051 109.36 216.931 102.5 217.901C95.6403 218.861 29.8203 212.771 16.9003 204.621C10.6603 200.681 17.1903 199.051 17.1903 199.051Z" fill="url(#paint10_linear_100_6561)"/>
<path d="M21.4705 209.41C21.4705 209.41 56.1405 220.67 91.3405 220.14L81.1504 226.93C81.1504 226.93 52.7104 231.49 20.6704 216.83L21.4705 209.41Z" fill="#0C0C12"/>
<path d="M31.2501 211.381L28.7202 221.501L29.9901 222.071L33.2102 212.071L31.2501 211.381Z" fill="#A3A8AB"/>
<path d="M40.6403 213.67L39.0703 223.98L40.3802 224.44L42.6503 214.18L40.6403 213.67Z" fill="#A3A8AB"/>
<path d="M61.5602 217.551L61.1201 227.971L62.4702 228.281L63.6102 217.841L61.5602 217.551Z" fill="#A3A8AB"/>
<path d="M50.8203 215.82L49.3403 227.1L50.6603 227.61L52.8303 216.39L50.8203 215.82Z" fill="#A3A8AB"/>
<path d="M71.5205 217.551L72.2306 228.911L73.6205 229.151L73.6106 217.731L71.5205 217.551Z" fill="#A3A8AB"/>
<path d="M392.5 196.28C392.5 196.28 513.24 169.48 521.09 180.09C528.94 190.7 527.44 216.84 527.44 216.84C527.44 216.84 510.64 230.65 458.38 229.36C458.37 229.36 424.59 206.09 392.5 196.28Z" fill="#A3A8AB"/>
<path d="M421.45 197.01C421.71 197 447.93 196.3 468.06 192.95L468.84 192.82L484.32 209.08L482.22 209.89C481.77 210.06 471.47 213.95 454.22 213.95C453.36 213.95 452.47 213.94 451.57 213.92L451.26 213.91L415.01 197.17L421.45 197.01Z" fill="url(#paint11_linear_100_6561)"/>
<path d="M451.61 212.421L421.48 198.511C421.48 198.511 447.83 197.831 468.3 194.431L481.69 208.491C481.69 208.491 470.37 212.851 451.61 212.421Z" fill="#6A6C7A"/>
<path d="M453.14 213.11L429.84 202.35C429.84 202.35 450.22 201.83 466.05 199.19L476.41 210.07C476.41 210.07 467.65 213.44 453.14 213.11Z" fill="#0C0C12"/>
<path d="M471.28 191.76C471.64 191.72 506.91 187.35 515.17 184.39C516.32 183.98 517.43 184.11 518.38 184.77C522.19 187.41 522.52 198.49 522.55 200.09C522.77 201.55 521.88 202.93 519.9 204.19C514.74 207.5 502.49 209.84 494.03 209.84C490.42 209.84 487.5 209.41 486.11 208.45C480.65 204.67 471.05 193.87 470.65 193.41L469.39 191.99L471.28 191.76Z" fill="url(#paint12_linear_100_6561)"/>
<path d="M521.55 200.171C521.55 200.171 521.31 183.241 515.51 185.321C507.05 188.361 471.4 192.741 471.4 192.741C471.4 192.741 481.26 203.871 486.68 207.621C491.96 211.281 522.64 206.321 521.55 200.171Z" fill="#6A6C7A"/>
<path d="M518.1 201.341C518.1 201.341 517.88 186.201 512.69 188.061C505.12 190.781 473.23 194.701 473.23 194.701C473.23 194.701 482.05 204.661 486.91 208.021C491.62 211.281 519.07 206.841 518.1 201.341Z" fill="#0C0C12"/>
<path d="M433.06 214.051C433.06 214.051 410.52 201.251 392.51 196.281C392.51 196.281 402.81 196.631 407.41 194.801L443.19 213.451L433.06 214.051Z" fill="url(#paint13_linear_100_6561)"/>
<path d="M525.23 199.051C525.23 199.051 479.37 212.081 433.06 214.051C433.06 214.051 433.06 216.931 439.92 217.901C446.78 218.861 512.6 212.771 525.52 204.621C531.76 200.681 525.23 199.051 525.23 199.051Z" fill="url(#paint14_linear_100_6561)"/>
<path d="M520.95 209.41C520.95 209.41 486.28 220.67 451.08 220.14L461.27 226.93C461.27 226.93 489.71 231.49 521.75 216.83L520.95 209.41Z" fill="#0C0C12"/>
<path d="M511.16 211.381L513.69 221.501L512.43 222.071L509.21 212.071L511.16 211.381Z" fill="#A3A8AB"/>
<path d="M501.78 213.67L503.35 223.98L502.03 224.44L499.77 214.18L501.78 213.67Z" fill="#A3A8AB"/>
<path d="M480.86 217.551L481.3 227.971L479.94 228.281L478.8 217.841L480.86 217.551Z" fill="#A3A8AB"/>
<path d="M491.6 215.82L493.07 227.1L491.76 227.61L489.58 216.39L491.6 215.82Z" fill="#A3A8AB"/>
<path d="M470.9 217.551L470.19 228.911L468.8 229.151L468.81 217.731L470.9 217.551Z" fill="#A3A8AB"/>
<path d="M535.301 197.82C534.781 177.93 533.031 174.44 533.031 174.44C533.031 174.44 521.541 163.08 518.301 154.89H271.211H24.1206C20.8806 163.08 9.39061 174.44 9.39061 174.44C9.39061 174.44 7.65059 177.93 7.12059 197.82C6.60059 217.71 15.4906 216.84 15.4906 216.84C15.4906 216.84 17.1407 214.08 17.7007 199.05C18.2607 184.02 20.8706 177.4 26.2506 179.05C31.6306 180.7 48.2107 183.24 48.2107 183.24L271.211 191.17L494.211 183.24C494.211 183.24 510.801 180.7 516.171 179.05C521.551 177.4 524.171 184.01 524.721 199.05C525.271 214.08 526.931 216.84 526.931 216.84C526.931 216.84 535.831 217.71 535.301 197.82Z" fill="#9B1B1B"/>
<path d="M518.3 154.89C518.3 154.89 511.51 156.89 505.12 149.89H271.201H37.2805C30.8905 156.9 24.1005 154.89 24.1005 154.89C24.1005 154.89 22.6405 166.76 29.1805 175.17C34.3905 181.87 48.2005 183.25 48.2005 183.25L271.201 196.33L494.201 183.25C494.201 183.25 508.001 181.87 513.221 175.17C519.761 166.76 518.3 154.89 518.3 154.89Z" fill="#B12420"/>
<path d="M506.83 149.89C506.83 149.89 412.56 132.33 271.21 132.33C129.86 132.33 35.5904 149.89 35.5904 149.89C32.9404 166.96 46.5904 183.25 46.5904 183.25C65.5304 188.1 149.54 196.33 149.54 196.33H271.21H392.88C392.88 196.33 476.89 188.1 495.83 183.25C495.83 183.25 509.48 166.96 506.83 149.89Z" fill="#50070C"/>
<path d="M505.121 149.89C505.121 149.89 411.531 132.33 271.201 132.33C130.871 132.33 37.2806 149.89 37.2806 149.89C34.6506 166.96 48.2006 183.25 48.2006 183.25C67.0006 188.1 150.411 196.33 150.411 196.33H271.201H391.991C391.991 196.33 475.401 188.1 494.201 183.25C494.211 183.25 507.761 166.96 505.121 149.89Z" fill="#B12420"/>
<path d="M505.121 149.89C505.121 149.89 411.531 132.33 271.201 132.33C130.871 132.33 37.2806 149.89 37.2806 149.89C34.6506 166.96 48.2006 183.25 48.2006 183.25C54.8606 184.97 69.5006 184.37 85.6206 182.87C144.451 177.41 203.481 174.45 262.561 174.45H271.391H279.831C338.911 174.45 397.941 177.42 456.771 182.87C472.901 184.37 487.531 184.97 494.191 183.25C494.211 183.25 507.761 166.96 505.121 149.89Z" fill="#9B1B1B"/>
<path d="M271.211 123.45C271.211 123.45 76.4608 112.8 77.2308 137.65C77.4008 143.07 150.421 196.28 150.421 196.28C150.421 196.28 185.861 196.33 271.211 196.33C356.561 196.33 392.001 196.28 392.001 196.28C392.001 196.28 465.031 143.07 465.191 137.65C465.951 112.8 271.211 123.45 271.211 123.45Z" fill="#FF8E84"/>
<path d="M271.211 123.38C271.211 123.38 76.4608 113.03 77.2308 137.18C77.3408 140.54 107.051 162.77 128.581 178.45C142.671 188.71 159.061 194.17 175.821 194.18C195.201 194.19 226.291 194.21 271.201 194.21C316.111 194.21 347.211 194.2 366.581 194.18C383.341 194.17 399.741 188.7 413.821 178.45C435.351 162.77 465.071 140.54 465.171 137.18C465.951 113.03 271.211 123.38 271.211 123.38Z" fill="#F4C7C5"/>
<path d="M271.211 123.29C271.211 123.29 76.4608 113.37 77.2308 136.52C77.3408 139.74 107.051 161.05 128.581 176.08C142.671 185.91 159.061 191.15 175.821 191.16C195.201 191.17 226.291 191.18 271.201 191.18C316.111 191.18 347.211 191.17 366.581 191.16C383.341 191.15 399.741 185.91 413.821 176.08C435.351 161.05 465.071 139.74 465.171 136.52C465.951 113.37 271.211 123.29 271.211 123.29Z" fill="#B12420"/>
<path d="M271.211 122.2C271.211 122.2 76.4608 117.42 77.2308 128.57C77.3408 130.12 107.051 140.38 128.581 147.62C142.671 152.35 159.061 154.88 175.821 154.88C195.201 154.89 226.291 154.89 271.201 154.89C316.111 154.89 347.211 154.88 366.581 154.88C383.341 154.87 399.741 152.35 413.821 147.62C435.351 140.38 465.071 130.12 465.171 128.57C465.951 117.42 271.211 122.2 271.211 122.2Z" fill="#9B1B1B"/>
<path d="M58.8408 124.28C58.8408 124.28 125.981 162.36 149.401 196.28C149.401 196.28 136.321 197.03 131.401 192.6C126.481 188.16 62.4708 133.57 60.6808 130.91C58.9008 128.23 62.8108 130.53 58.8408 124.28Z" fill="#50070C"/>
<path d="M483.571 124.28C483.571 124.28 416.431 162.36 393.011 196.28C393.011 196.28 406.091 197.03 411.011 192.6C415.931 188.16 479.941 133.57 481.731 130.91C483.521 128.23 479.601 130.53 483.571 124.28Z" fill="#50070C"/>
<path d="M60.6104 124.28C60.6104 124.28 127.19 162.36 150.42 196.28C150.42 196.28 137.45 197.03 132.57 192.6C127.69 188.16 64.2203 133.57 62.4403 130.91C60.6703 128.23 64.5504 130.53 60.6104 124.28Z" fill="#B12420"/>
<path d="M481.8 124.28C481.8 124.28 415.22 162.36 391.99 196.28C391.99 196.28 404.96 197.03 409.84 192.6C414.72 188.16 478.19 133.57 479.97 130.91C481.75 128.23 477.87 130.53 481.8 124.28Z" fill="#B12420"/>
<path d="M481.64 121.97C481.64 121.97 478.76 122.28 474.64 124.92C470.51 127.56 271.221 123.45 271.221 123.45C271.221 123.45 71.9205 127.56 67.8005 124.92C63.6705 122.28 60.8005 121.97 60.8005 121.97C58.3205 122.7 60.8005 124.28 60.8005 124.28C71.5305 129.51 112.69 159.36 112.69 159.36C107.35 152.43 100.65 149.37 97.2905 145.43C95.3305 143.13 97.1504 139.62 100.16 139.87C113.28 140.95 139.42 141.09 167.41 140.82C236.62 140.15 305.84 140.15 375.05 140.82C403.03 141.09 429.18 140.96 442.3 139.87C445.31 139.62 447.13 143.13 445.17 145.43C441.81 149.37 435.12 152.43 429.77 159.36C429.77 159.36 470.93 129.51 481.66 124.28C481.64 124.28 484.12 122.7 481.64 121.97Z" fill="#FF8E84"/>
<path d="M458.181 108.76C450.631 88.6901 434.291 49.9001 427.621 34.1701C425.821 29.9101 422.231 27.1101 418.191 26.7901H418.181C320.281 19.7701 222.101 19.7701 124.201 26.8001C120.161 27.1201 116.571 29.9301 114.771 34.1801C108.111 49.9001 91.7607 88.7001 84.2107 108.77C81.5507 115.84 86.1206 123.74 92.7006 123.44C131.461 121.68 238.291 116.95 271.141 116.95L271.251 116.94C304.091 116.94 410.931 121.66 449.691 123.43C456.271 123.73 460.851 115.83 458.181 108.76Z" fill="#2B2C31"/>
<path d="M271.211 113.47C156.531 113.47 72.5107 124.93 72.5107 124.93C72.5107 124.93 88.6107 137.78 121.491 137.65C167.471 137.47 271.211 135.47 271.211 135.47C271.211 135.47 374.951 137.47 420.931 137.65C453.811 137.78 469.911 124.93 469.911 124.93C469.911 124.93 385.881 113.47 271.211 113.47Z" fill="#50070C"/>
<path d="M271.21 114.47C159.26 114.47 77.2305 123.77 77.2305 123.77C77.2305 123.77 92.9504 134.2 125.05 134.1C169.94 133.96 271.22 132.33 271.22 132.33C271.22 132.33 372.5 133.95 417.39 134.1C449.49 134.2 465.21 123.77 465.21 123.77C465.21 123.77 383.16 114.47 271.21 114.47Z" fill="#7A0F15"/>
<path d="M271.26 254.6H271.24H271.22V254.61L99.2402 288.64C99.2402 288.64 108.93 322.55 122.87 328.28C136.81 334.01 271.21 335.17 271.21 335.17H271.26C271.26 335.17 405.66 334.01 419.6 328.28C433.54 322.55 443.23 288.64 443.23 288.64L271.26 254.6Z" fill="url(#paint15_linear_100_6561)"/>
<path d="M389.321 200.34L271.211 199.2L153.291 200.34L94.1006 237.3C127.601 324.63 137.421 326.47 149.401 329.03C161.101 331.54 266.341 331.59 271.201 331.6C271.201 331.6 271.241 331.6 271.301 331.6C271.361 331.6 271.401 331.6 271.401 331.6C276.271 331.6 381.501 331.54 393.201 329.03C405.181 326.46 415 324.63 448.5 237.3L389.321 200.34Z" fill="#0C0D0C"/>
<path d="M157.311 206.17C157.311 206.17 156.961 328.28 185.081 328.28C185.081 328.28 158.451 331.43 144.261 324.96C130.071 318.49 101.451 239.09 101.451 239.09C101.451 239.09 139.991 207.2 157.311 206.17Z" fill="#2B2C31"/>
<path d="M385.101 206.17C385.101 206.17 385.451 328.28 357.331 328.28C357.331 328.28 383.961 331.43 398.151 324.96C412.341 318.49 440.961 239.09 440.961 239.09C440.961 239.09 402.431 207.2 385.101 206.17Z" fill="#2B2C31"/>
<path d="M271.26 252.36L108.69 251.03C108.69 251.03 109.37 287.14 125.1 293.97C147.71 303.8 271.2 304.29 271.2 304.29H271.32C271.32 304.29 394.81 303.8 417.42 293.97C433.15 287.13 433.83 251.03 433.83 251.03L271.26 252.36Z" fill="#2B2C31"/>
<path d="M271.26 254.59L108.69 253.38C108.69 253.38 109.37 286.28 125.1 292.51C147.71 301.47 271.2 301.92 271.2 301.92H271.32C271.32 301.92 394.81 301.47 417.42 292.51C433.15 286.28 433.83 253.38 433.83 253.38L271.26 254.59Z" fill="#0C0D0C"/>
<path d="M406.72 218.51C406.72 218.51 311.14 222.52 271.21 222.52C231.28 222.52 135.7 218.51 135.7 218.51L124.57 225.08C124.57 225.08 145.97 226.05 151.46 226.25C153.89 226.34 155.6 225.59 156.75 224.73C158.73 223.25 161.21 222.62 163.67 222.81C197.66 225.51 271.2 226.25 271.2 226.25C271.2 226.25 344.74 225.51 378.73 222.81C381.19 222.61 383.67 223.25 385.65 224.73C386.8 225.59 388.51 226.34 390.94 226.25C396.43 226.05 417.83 225.08 417.83 225.08L406.72 218.51Z" fill="url(#paint16_linear_100_6561)"/>
<path d="M433.731 253.38C433.731 253.38 319.091 257.39 271.201 257.39C223.321 257.39 108.671 253.38 108.671 253.38L105.681 259.95C105.681 259.95 120.991 260.92 127.581 261.12C130.491 261.21 132.541 260.46 133.931 259.6C136.301 258.12 139.281 257.49 142.231 257.68C183.001 260.38 271.201 261.12 271.201 261.12C271.201 261.12 359.401 260.38 400.171 257.68C403.121 257.48 406.101 258.12 408.471 259.6C409.851 260.46 411.901 261.21 414.821 261.12C421.411 260.92 436.721 259.95 436.721 259.95L433.731 253.38Z" fill="url(#paint17_linear_100_6561)"/>
<path d="M424.331 271.01C424.331 271.01 316.321 275.02 271.211 275.02C226.101 275.02 118.091 271.01 118.091 271.01L112.581 277.58C112.581 277.58 129.701 278.55 135.901 278.75C138.641 278.84 140.58 278.09 141.88 277.23C144.12 275.75 146.921 275.12 149.701 275.31C188.111 278.01 271.211 278.75 271.211 278.75C271.211 278.75 354.311 278.01 392.721 275.31C395.501 275.11 398.301 275.75 400.541 277.23C401.841 278.09 403.771 278.84 406.521 278.75C412.731 278.55 429.841 277.58 429.841 277.58L424.331 271.01Z" fill="url(#paint18_linear_100_6561)"/>
<path d="M419.551 288.63C419.551 288.63 314.911 292.64 271.211 292.64C227.511 292.64 122.871 288.63 122.871 288.63L122.931 295.2C122.931 295.2 134.111 296.17 140.121 296.37C142.781 296.46 144.651 295.71 145.911 294.85C148.081 293.37 150.791 292.74 153.491 292.93C190.701 295.63 271.211 296.37 271.211 296.37C271.211 296.37 351.721 295.63 388.931 292.93C391.631 292.73 394.341 293.37 396.511 294.85C397.771 295.71 399.641 296.46 402.301 296.37C408.311 296.17 419.621 295.2 419.621 295.2L419.551 288.63Z" fill="url(#paint19_linear_100_6561)"/>
<path d="M410.081 306.26C410.081 306.26 312.121 310.27 271.211 310.27C230.301 310.27 132.341 306.26 132.341 306.26L131.061 312.83C131.061 312.83 142.87 313.8 148.5 314C150.99 314.09 152.741 313.34 153.921 312.48C155.951 311 158.49 310.37 161.01 310.56C195.85 313.26 271.211 314 271.211 314C271.211 314 346.581 313.26 381.411 310.56C383.931 310.36 386.48 311 388.5 312.48C389.68 313.34 391.431 314.09 393.921 314C399.551 313.8 411.74 312.83 411.74 312.83L410.081 306.26Z" fill="url(#paint20_linear_100_6561)"/>
<path d="M430.92 233.43C430.92 233.43 318.26 237.44 271.2 237.44C224.15 237.44 111.48 233.43 111.48 233.43L98.3604 240C98.3604 240 123.58 240.97 130.06 241.17C132.92 241.26 134.94 240.51 136.3 239.65C138.63 238.17 141.56 237.54 144.46 237.73C184.52 240.43 271.2 241.17 271.2 241.17C271.2 241.17 357.88 240.43 397.94 237.73C400.84 237.53 403.77 238.17 406.1 239.65C407.46 240.51 409.47 241.26 412.34 241.17C418.81 240.97 444.04 240 444.04 240L430.92 233.43Z" fill="url(#paint21_linear_100_6561)"/>
<path d="M389.321 200.34L271.211 199.2L153.291 200.34L94.1006 237.3C127.601 324.63 137.421 326.47 149.401 329.03C161.101 331.54 266.341 331.59 271.201 331.6C271.201 331.6 271.241 331.6 271.301 331.6C271.361 331.6 271.401 331.6 271.401 331.6C276.271 331.6 381.501 331.54 393.201 329.03C405.181 326.46 415 324.63 448.5 237.3L389.321 200.34ZM392.701 325.32C372.901 330.34 276.091 327.46 271.401 327.32V327.31C271.401 327.31 271.361 327.31 271.301 327.31C271.241 327.31 271.201 327.31 271.201 327.31V327.32C266.521 327.46 169.711 330.34 149.901 325.32C128.591 319.92 105.5 238.66 105.5 238.66C105.5 238.66 151.111 208.72 157.321 206.16C163.531 203.61 271.191 206.16 271.191 206.16C271.191 206.16 379.05 203.61 385.26 206.16C391.47 208.71 437.081 238.66 437.081 238.66C437.081 238.66 414.001 319.92 392.701 325.32Z" fill="url(#paint22_linear_100_6561)"/>
<path d="M278.1 244.78C285.711 244.78 291.88 238.61 291.88 231C291.88 223.389 285.711 217.22 278.1 217.22C270.49 217.22 264.32 223.389 264.32 231C264.32 238.61 270.49 244.78 278.1 244.78Z" fill="#0C0D0C"/>
<path d="M291.88 244.78C299.491 244.78 305.661 238.61 305.661 231C305.661 223.389 299.491 217.22 291.88 217.22C284.27 217.22 278.101 223.389 278.101 231C278.101 238.61 284.27 244.78 291.88 244.78Z" fill="#0C0D0C"/>
<path d="M264.321 244.78C271.931 244.78 278.101 238.61 278.101 231C278.101 223.389 271.931 217.22 264.321 217.22C256.71 217.22 250.541 223.389 250.541 231C250.541 238.61 256.71 244.78 264.321 244.78Z" fill="#0C0D0C"/>
<path d="M260.261 239.901C265.642 234.52 265.642 225.795 260.261 220.413C254.879 215.032 246.155 215.032 240.773 220.413C235.392 225.795 235.392 234.52 240.773 239.901C246.155 245.282 254.879 245.282 260.261 239.901Z" fill="#0C0D0C"/>
<path d="M278.1 244.78C285.711 244.78 291.88 238.61 291.88 231C291.88 223.389 285.711 217.22 278.1 217.22C270.49 217.22 264.32 223.389 264.32 231C264.32 238.61 270.49 244.78 278.1 244.78Z" stroke="url(#paint23_linear_100_6561)" stroke-width="2" stroke-miterlimit="10"/>
<path d="M291.88 244.78C299.491 244.78 305.661 238.61 305.661 231C305.661 223.389 299.491 217.22 291.88 217.22C284.27 217.22 278.101 223.389 278.101 231C278.101 238.61 284.27 244.78 291.88 244.78Z" stroke="url(#paint24_linear_100_6561)" stroke-width="2" stroke-miterlimit="10"/>
<path d="M264.321 244.78C271.931 244.78 278.101 238.61 278.101 231C278.101 223.389 271.931 217.22 264.321 217.22C256.71 217.22 250.541 223.389 250.541 231C250.541 238.61 256.71 244.78 264.321 244.78Z" stroke="url(#paint25_linear_100_6561)" stroke-width="2" stroke-miterlimit="10"/>
<path d="M260.261 239.901C265.642 234.52 265.642 225.795 260.261 220.413C254.879 215.032 246.155 215.032 240.773 220.413C235.392 225.795 235.392 234.52 240.773 239.901C246.155 245.282 254.879 245.282 260.261 239.901Z" stroke="url(#paint26_linear_100_6561)" stroke-width="2" stroke-miterlimit="10"/>
<path d="M14.0005 261.12C14.0005 261.12 41.3006 266.47 71.3206 267.6C71.3206 267.6 45.1605 270.12 16.7605 266.65C5.25052 265.24 14.0005 261.12 14.0005 261.12Z" fill="url(#paint27_linear_100_6561)"/>
<path d="M14.0005 261.12C14.0005 261.12 30.2606 257.62 71.3206 267.6C71.3106 267.6 19.5105 266.52 14.0005 261.12Z" fill="url(#paint28_linear_100_6561)"/>
<path d="M528.421 261.12C528.421 261.12 501.121 266.47 471.101 267.6C471.101 267.6 497.261 270.12 525.661 266.65C537.171 265.24 528.421 261.12 528.421 261.12Z" fill="url(#paint29_linear_100_6561)"/>
<path d="M528.421 261.12C528.421 261.12 512.161 257.62 471.101 267.6C471.101 267.6 522.901 266.52 528.421 261.12Z" fill="url(#paint30_linear_100_6561)"/>
<path d="M106.8 293.58L90.8304 288.63C90.8304 288.63 18.7704 273.66 17.3604 278.75C15.9504 283.84 14.2504 316.56 15.6104 323.5C16.9604 330.44 34.2603 340.3 118.99 341.3L55.0304 335.2C55.0304 335.2 19.0904 336.67 20.8404 314C22.5904 291.33 22.5904 283.56 22.5904 283.56L39.0504 285.47L106.8 293.58Z" fill="url(#paint31_linear_100_6561)"/>
<path d="M435.5 293.58L451.471 288.63C451.471 288.63 523.531 273.66 524.941 278.75C526.351 283.84 528.051 316.56 526.691 323.5C525.341 330.44 508.041 340.3 423.311 341.3L487.271 335.2C487.271 335.2 523.211 336.67 521.461 314C519.711 291.33 519.711 283.56 519.711 283.56L503.25 285.47L435.5 293.58Z" fill="url(#paint32_linear_100_6561)"/>
<path d="M522.371 288.23C522.091 285.91 521.151 283.73 520.211 281.59L435.511 293.58C435.511 293.58 443.131 293.09 453.411 292.51C461.781 292.03 499.321 286.99 512.931 285.14C515.621 284.77 518.061 286.75 518.261 289.46C518.911 298.25 520.111 315.85 519.541 318.94C517.791 328.27 504.951 332.36 490.371 333.86C475.921 335.34 274.831 340.76 271.161 340.86C267.491 340.76 66.4008 335.34 51.9508 333.86C37.3608 332.37 24.5307 328.28 22.7807 318.94C22.2007 315.85 23.4007 298.25 24.0607 289.46C24.2607 286.75 26.7007 284.78 29.3907 285.14C43.0007 286.99 80.5407 292.03 88.9107 292.51C99.1907 293.09 106.811 293.58 106.811 293.58L22.1108 281.59C21.1708 283.73 20.2308 285.91 19.9508 288.23C18.9708 296.38 18.2008 315.34 19.8508 322.17C22.1308 331.59 44.1907 336.39 89.3107 339.77C133.691 343.1 266.781 344.31 271.111 344.35C271.111 344.35 271.141 344.35 271.171 344.35C271.191 344.35 271.231 344.35 271.231 344.35C275.561 344.31 408.651 343.1 453.031 339.77C498.151 336.39 520.211 331.59 522.491 322.17C524.121 315.34 523.351 296.38 522.371 288.23Z" fill="url(#paint33_linear_100_6561)"/>
<path d="M421.53 306.26C421.53 306.26 428.6 303.88 436.61 304.3C444.63 304.72 523.05 296.38 523.05 296.38C524.9 298.14 525.31 299.76 525.16 301.07C524.77 301.1 475.43 304.43 454.92 306.26C434.34 308.1 421.53 306.26 421.53 306.26Z" fill="url(#paint34_linear_100_6561)"/>
<path d="M421.53 306.26L422.08 306.48C421.72 306.34 421.53 306.26 421.53 306.26Z" fill="url(#paint35_linear_100_6561)"/>
<path d="M523.43 304.3C523.43 304.3 452.91 309.08 443.07 310.14C434.49 311.06 424.51 307.43 422.08 306.49L421.53 306.27C421.53 306.27 434.34 308.11 454.93 306.27C475.44 304.44 524.78 301.1 525.17 301.08C524.94 303.03 523.43 304.3 523.43 304.3Z" fill="url(#paint36_linear_100_6561)"/>
<path d="M523.43 304.3C523.43 304.3 452.91 309.08 443.07 310.14C434.49 311.06 424.51 307.43 422.08 306.49L421.53 306.27C421.53 306.27 434.34 308.11 454.93 306.27C475.44 304.44 524.78 301.1 525.17 301.08C524.94 303.03 523.43 304.3 523.43 304.3Z" fill="#A3A8AB"/>
<path d="M120.771 306.26C120.771 306.26 113.701 303.88 105.691 304.3C97.6707 304.72 19.2506 296.38 19.2506 296.38C17.4006 298.14 16.9906 299.76 17.1406 301.07C17.5306 301.1 66.8706 304.43 87.3806 306.26C107.971 308.1 120.771 306.26 120.771 306.26Z" fill="url(#paint37_linear_100_6561)"/>
<path d="M120.771 306.26L120.221 306.48C120.581 306.34 120.771 306.26 120.771 306.26Z" fill="url(#paint38_linear_100_6561)"/>
<path d="M18.8708 304.3C18.8708 304.3 89.391 309.08 99.231 310.14C107.811 311.06 117.791 307.43 120.221 306.49L120.771 306.27C120.771 306.27 107.961 308.11 87.3708 306.27C66.8608 304.44 17.5209 301.1 17.1309 301.08C17.3709 303.03 18.8708 304.3 18.8708 304.3Z" fill="url(#paint39_linear_100_6561)"/>
<path d="M18.8708 304.3C18.8708 304.3 89.391 309.08 99.231 310.14C107.811 311.06 117.791 307.43 120.221 306.49L120.771 306.27C120.771 306.27 107.961 308.11 87.3708 306.27C66.8608 304.44 17.5209 301.1 17.1309 301.08C17.3709 303.03 18.8708 304.3 18.8708 304.3Z" fill="#A3A8AB"/>
<path d="M11.7704 332.29C11.7704 332.29 22.0704 338.71 37.2504 339.37C52.4304 340.03 64.6604 342.94 64.6604 342.94C64.6604 342.94 31.6704 345.06 19.3404 341.65C6.58044 338.12 11.7704 332.29 11.7704 332.29Z" fill="url(#paint40_linear_100_6561)"/>
<path d="M530.651 332.29C530.651 332.29 520.351 338.71 505.171 339.37C489.991 340.03 477.761 342.94 477.761 342.94C477.761 342.94 510.751 345.06 523.081 341.65C535.831 338.12 530.651 332.29 530.651 332.29Z" fill="url(#paint41_linear_100_6561)"/>
<path d="M457.011 101.49C449.511 84.5103 433.271 51.6903 426.651 38.3903C424.861 34.7903 421.291 32.4103 417.281 32.1403H417.271C319.981 26.2003 222.421 26.2003 125.131 32.1503C121.121 32.4203 117.551 34.8003 115.761 38.4003C109.141 51.7003 92.9006 84.5203 85.4006 101.5C82.7606 107.48 87.3007 114.17 93.8407 113.91C132.361 112.42 238.521 108.42 271.161 108.42L271.271 108.41C303.911 108.41 410.071 112.41 448.591 113.9C455.111 114.16 459.661 107.48 457.011 101.49Z" fill="#464649"/>
<path d="M445.5 101.81C438.46 85.2604 423.23 53.2604 417.02 40.3004C415.34 36.7904 411.99 34.4704 408.23 34.2104H408.22C316.96 28.4204 225.45 28.4204 134.19 34.2204C130.43 34.4904 127.08 36.8004 125.4 40.3104C119.19 53.2804 103.95 85.2704 96.9204 101.82C94.4404 107.65 98.7004 114.17 104.83 113.92C140.96 112.47 240.54 108.57 271.16 108.57L271.26 108.56C301.88 108.56 401.46 112.45 437.59 113.91C443.71 114.15 447.98 107.64 445.5 101.81Z" fill="#393B3D"/>
<path d="M399.651 59.7396C398.571 50.1696 391.261 42.8096 382.311 42.2896L271.261 35.8195V35.8096H271.211H271.161V35.8195L160.111 42.2896C151.161 42.8096 143.851 50.1696 142.771 59.7396L140.141 83.0695H271.161H271.261H402.281L399.651 59.7396Z" fill="#ADB1B5"/>
<path d="M293.24 62.4095C278.66 65.1895 263.751 65.1895 249.181 62.4095C244.411 62.4095 240.541 58.2096 240.541 53.0296V47.8096H301.891V53.0296C301.881 58.2096 298.01 62.4095 293.24 62.4095Z" fill="#0C0D0C"/>
<path d="M293.24 61.2596C278.66 63.8196 263.751 63.8196 249.181 61.2596C244.411 61.2596 240.541 57.3896 240.541 52.6196V47.8096H301.891V52.6196C301.881 57.3896 298.01 61.2596 293.24 61.2596Z" fill="#3E3C42"/>
<path d="M271.361 58.6397H271.051C268.681 58.6397 266.761 56.7197 266.761 54.3497V41.6797H275.661V54.3497C275.651 56.7197 273.731 58.6397 271.361 58.6397Z" fill="#0C0D0C"/>
<path d="M271.201 30.2197H232.061C240.321 37.6297 250.91 41.9097 262 42.3297L271.201 42.6797L280.401 42.3297C291.491 41.9097 302.081 37.6197 310.341 30.2197H271.201Z" fill="#0C0D0C"/>
<path d="M271.44 55.5004H270.97C267.39 55.5004 264.48 52.5903 264.48 49.0103V29.8604H277.93V49.0103C277.93 52.5903 275.02 55.5004 271.44 55.5004Z" fill="#262629"/>
<path d="M207.22 82.6104H160C145.98 82.6104 134.61 93.9804 134.61 108V112.74C163.83 111.61 202.47 110.19 232.61 109.33V108C232.61 93.9704 221.24 82.6104 207.22 82.6104Z" fill="#28282C"/>
<path d="M380.88 82.6104H333.661C319.641 82.6104 308.271 93.9804 308.271 108V109.28C338.101 110.12 376.741 111.54 406.271 112.68V108C406.271 93.9704 394.9 82.6104 380.88 82.6104Z" fill="#28282C"/>
<path d="M203.981 104.24H164.781C154.881 104.24 146.851 96.2102 146.851 86.3102V82.4202C146.851 72.5202 154.881 64.4902 164.781 64.4902H203.981C213.881 64.4902 221.911 72.5202 221.911 82.4202V86.3102C221.911 96.2202 213.881 104.24 203.981 104.24Z" fill="#0C0D0C"/>
<path d="M203.51 100.37H163.7C154.39 100.37 146.84 92.8202 146.84 83.5102V81.3502C146.84 72.0402 154.39 64.4902 163.7 64.4902H203.51C212.82 64.4902 220.37 72.0402 220.37 81.3502V83.5102C220.37 92.8202 212.82 100.37 203.51 100.37Z" fill="#28282C"/>
<path d="M377.64 104.24H338.44C328.54 104.24 320.51 96.2102 320.51 86.3102V82.4202C320.51 72.5202 328.54 64.4902 338.44 64.4902H377.64C387.54 64.4902 395.57 72.5202 395.57 82.4202V86.3102C395.57 96.2202 387.54 104.24 377.64 104.24Z" fill="#0C0D0C"/>
<path d="M377.18 100.37H337.37C328.06 100.37 320.51 92.8202 320.51 83.5102V81.3502C320.51 72.0402 328.06 64.4902 337.37 64.4902H377.18C386.49 64.4902 394.04 72.0402 394.04 81.3502V83.5102C394.03 92.8202 386.49 100.37 377.18 100.37Z" fill="#28282C"/>
<path d="M414.6 104.43C407.13 90.6002 392.51 81.2002 375.68 81.2002C360.32 81.2002 346.79 89.0402 338.87 100.93C336.98 103.77 335.41 106.83 334.21 110.07C336.39 110.14 338.59 110.21 340.81 110.29C342.87 105.54 345.87 101.3 349.58 97.7902C356.39 91.3502 365.57 87.4002 375.68 87.4002C386.54 87.4002 396.33 91.9602 403.25 99.2702C406.91 103.13 409.77 107.76 411.56 112.89C413.82 112.98 416.02 113.06 418.15 113.15C417.27 110.09 416.08 107.17 414.6 104.43Z" fill="#727475"/>
<path d="M392.12 97.1802C379.62 96.3202 367.08 96.3202 354.57 97.1802C344.7 97.8602 335.26 101.5 327.51 107.64L324.82 109.77C359.63 110.86 400.95 112.45 426.53 113.46L419.18 107.64C411.43 101.51 401.99 97.8602 392.12 97.1802Z" fill="#393B3D"/>
<path d="M392.12 97.1797L373.35 95.8896L357.13 97.1797C348.6 97.8597 340.45 101.5 333.75 107.64L331.21 109.97C364.58 111.05 402.51 112.51 426.54 113.46L419.19 107.64C411.43 101.51 401.99 97.8597 392.12 97.1797Z" fill="#35343C"/>
<defs>
<linearGradient id="paint0_linear_100_6561" x1="47.0169" y1="122.826" x2="4.71979" y2="89.7491" gradientUnits="userSpaceOnUse">
<stop stop-color="#A22C2E"/>
<stop offset="0.5" stop-color="#FF8E84"/>
<stop offset="1" stop-color="#F4C7C5"/>
</linearGradient>
<linearGradient id="paint1_linear_100_6561" x1="495.401" y1="122.826" x2="537.698" y2="89.7491" gradientUnits="userSpaceOnUse">
<stop stop-color="#A22C2E"/>
<stop offset="0.5" stop-color="#FF8E84"/>
<stop offset="1" stop-color="#F4C7C5"/>
</linearGradient>
<linearGradient id="paint2_linear_100_6561" x1="271.33" y1="174.907" x2="271.33" y2="238.272" gradientUnits="userSpaceOnUse">
<stop stop-color="#B12420"/>
<stop offset="0.3903" stop-color="#B22622"/>
<stop offset="0.5387" stop-color="#B52D29"/>
<stop offset="0.6459" stop-color="#B93935"/>
<stop offset="0.7332" stop-color="#C04A46"/>
<stop offset="0.8084" stop-color="#C9605C"/>
<stop offset="0.8754" stop-color="#D57B78"/>
<stop offset="0.9362" stop-color="#E29B99"/>
<stop offset="0.9904" stop-color="#F1C0BE"/>
<stop offset="1" stop-color="#F4C7C5"/>
</linearGradient>
<linearGradient id="paint3_linear_100_6561" x1="10.4266" y1="341.652" x2="531.934" y2="341.652" gradientUnits="userSpaceOnUse">
<stop stop-color="#B12420"/>
<stop offset="0.5" stop-color="#50070C"/>
<stop offset="1" stop-color="#B12420"/>
</linearGradient>
<linearGradient id="paint4_linear_100_6561" x1="271.209" y1="283.915" x2="271.209" y2="353.515" gradientUnits="userSpaceOnUse">
<stop stop-color="#A22C2E"/>
<stop offset="0.5" stop-color="#FF8E84"/>
<stop offset="1" stop-color="#F4C7C5"/>
</linearGradient>
<linearGradient id="paint5_linear_100_6561" x1="6.7559" y1="315.002" x2="535.661" y2="315.002" gradientUnits="userSpaceOnUse">
<stop stop-color="#B12420"/>
<stop offset="0.5" stop-color="#50070C"/>
<stop offset="1" stop-color="#B12420"/>
</linearGradient>
<linearGradient id="paint6_linear_100_6561" x1="273.49" y1="161.542" x2="269.754" y2="333.368" gradientUnits="userSpaceOnUse">
<stop offset="0.1613" stop-color="#50070C"/>
<stop offset="0.5926" stop-color="#B12420"/>
</linearGradient>
<linearGradient id="paint7_linear_100_6561" x1="58.0932" y1="203.385" x2="127.401" y2="203.385" gradientUnits="userSpaceOnUse">
<stop stop-color="#A3A8AB"/>
<stop offset="0.3105" stop-color="white"/>
<stop offset="0.6214" stop-color="#A3A8AB"/>
<stop offset="1" stop-color="#E6ECF2"/>
</linearGradient>
<linearGradient id="paint8_linear_100_6561" x1="19.8361" y1="196.997" x2="73.0249" y2="196.997" gradientUnits="userSpaceOnUse">
<stop stop-color="#A3A8AB"/>
<stop offset="0.3105" stop-color="white"/>
<stop offset="0.6214" stop-color="#A3A8AB"/>
<stop offset="1" stop-color="#E6ECF2"/>
</linearGradient>
<linearGradient id="paint9_linear_100_6561" x1="142.007" y1="195.774" x2="99.9429" y2="217.699" gradientUnits="userSpaceOnUse">
<stop stop-color="#A3A8AB"/>
<stop offset="0.3105" stop-color="white"/>
<stop offset="0.6214" stop-color="#A3A8AB"/>
<stop offset="1" stop-color="#E6ECF2"/>
</linearGradient>
<linearGradient id="paint10_linear_100_6561" x1="14.1993" y1="208.523" x2="109.359" y2="208.523" gradientUnits="userSpaceOnUse">
<stop stop-color="#A3A8AB"/>
<stop offset="0.3105" stop-color="white"/>
<stop offset="0.6214" stop-color="#A3A8AB"/>
<stop offset="1" stop-color="#E6ECF2"/>
</linearGradient>
<linearGradient id="paint11_linear_100_6561" x1="484.323" y1="203.385" x2="415.016" y2="203.385" gradientUnits="userSpaceOnUse">
<stop stop-color="#A3A8AB"/>
<stop offset="0.3105" stop-color="white"/>
<stop offset="0.6214" stop-color="#A3A8AB"/>
<stop offset="1" stop-color="#E6ECF2"/>
</linearGradient>
<linearGradient id="paint12_linear_100_6561" x1="522.579" y1="196.997" x2="469.391" y2="196.997" gradientUnits="userSpaceOnUse">
<stop stop-color="#A3A8AB"/>
<stop offset="0.3105" stop-color="white"/>
<stop offset="0.6214" stop-color="#A3A8AB"/>
<stop offset="1" stop-color="#E6ECF2"/>
</linearGradient>
<linearGradient id="paint13_linear_100_6561" x1="400.409" y1="195.774" x2="442.473" y2="217.699" gradientUnits="userSpaceOnUse">
<stop stop-color="#A3A8AB"/>
<stop offset="0.3105" stop-color="white"/>
<stop offset="0.6214" stop-color="#A3A8AB"/>
<stop offset="1" stop-color="#E6ECF2"/>
</linearGradient>
<linearGradient id="paint14_linear_100_6561" x1="528.217" y1="208.523" x2="433.057" y2="208.523" gradientUnits="userSpaceOnUse">
<stop stop-color="#A3A8AB"/>
<stop offset="0.3105" stop-color="white"/>
<stop offset="0.6214" stop-color="#A3A8AB"/>
<stop offset="1" stop-color="#E6ECF2"/>
</linearGradient>
<linearGradient id="paint15_linear_100_6561" x1="270.984" y1="269.526" x2="271.853" y2="336.417" gradientUnits="userSpaceOnUse">
<stop stop-color="#B12420"/>
<stop offset="0.3903" stop-color="#B22622"/>
<stop offset="0.5387" stop-color="#B52D29"/>
<stop offset="0.6459" stop-color="#B93935"/>
<stop offset="0.7332" stop-color="#C04A46"/>
<stop offset="0.8084" stop-color="#C9605C"/>
<stop offset="0.8754" stop-color="#D57B78"/>
<stop offset="0.9362" stop-color="#E29B99"/>
<stop offset="0.9904" stop-color="#F1C0BE"/>
<stop offset="1" stop-color="#F4C7C5"/>
</linearGradient>
<linearGradient id="paint16_linear_100_6561" x1="124.573" y1="222.387" x2="417.843" y2="222.387" gradientUnits="userSpaceOnUse">
<stop stop-color="#A3A8AB"/>
<stop offset="0.3105" stop-color="white"/>
<stop offset="0.6214" stop-color="#A3A8AB"/>
<stop offset="1" stop-color="#E6ECF2"/>
</linearGradient>
<linearGradient id="paint17_linear_100_6561" x1="105.691" y1="257.251" x2="436.726" y2="257.251" gradientUnits="userSpaceOnUse">
<stop stop-color="#A3A8AB"/>
<stop offset="0.3105" stop-color="white"/>
<stop offset="0.6214" stop-color="#A3A8AB"/>
<stop offset="1" stop-color="#E6ECF2"/>
</linearGradient>
<linearGradient id="paint18_linear_100_6561" x1="112.581" y1="274.879" x2="429.836" y2="274.879" gradientUnits="userSpaceOnUse">
<stop stop-color="#A3A8AB"/>
<stop offset="0.3105" stop-color="white"/>
<stop offset="0.6214" stop-color="#A3A8AB"/>
<stop offset="1" stop-color="#E6ECF2"/>
</linearGradient>
<linearGradient id="paint19_linear_100_6561" x1="122.864" y1="292.507" x2="419.618" y2="292.507" gradientUnits="userSpaceOnUse">
<stop stop-color="#A3A8AB"/>
<stop offset="0.3105" stop-color="white"/>
<stop offset="0.6214" stop-color="#A3A8AB"/>
<stop offset="1" stop-color="#E6ECF2"/>
</linearGradient>
<linearGradient id="paint20_linear_100_6561" x1="131.054" y1="310.135" x2="411.75" y2="310.135" gradientUnits="userSpaceOnUse">
<stop stop-color="#A3A8AB"/>
<stop offset="0.3105" stop-color="white"/>
<stop offset="0.6214" stop-color="#A3A8AB"/>
<stop offset="1" stop-color="#E6ECF2"/>
</linearGradient>
<linearGradient id="paint21_linear_100_6561" x1="98.3771" y1="237.298" x2="444.04" y2="237.298" gradientUnits="userSpaceOnUse">
<stop stop-color="#A3A8AB"/>
<stop offset="0.3105" stop-color="white"/>
<stop offset="0.6214" stop-color="#A3A8AB"/>
<stop offset="1" stop-color="#E6ECF2"/>
</linearGradient>
<linearGradient id="paint22_linear_100_6561" x1="94.1038" y1="265.396" x2="448.507" y2="265.396" gradientUnits="userSpaceOnUse">
<stop stop-color="#A3A8AB"/>
<stop offset="0.3105" stop-color="white"/>
<stop offset="0.6214" stop-color="#A3A8AB"/>
<stop offset="1" stop-color="#E6ECF2"/>
</linearGradient>
<linearGradient id="paint23_linear_100_6561" x1="263.316" y1="231.002" x2="292.884" y2="231.002" gradientUnits="userSpaceOnUse">
<stop stop-color="#A3A8AB"/>
<stop offset="0.3105" stop-color="white"/>
<stop offset="0.6214" stop-color="#A3A8AB"/>
<stop offset="1" stop-color="#E6ECF2"/>
</linearGradient>
<linearGradient id="paint24_linear_100_6561" x1="277.1" y1="231.002" x2="306.668" y2="231.002" gradientUnits="userSpaceOnUse">
<stop stop-color="#A3A8AB"/>
<stop offset="0.3105" stop-color="white"/>
<stop offset="0.6214" stop-color="#A3A8AB"/>
<stop offset="1" stop-color="#E6ECF2"/>
</linearGradient>
<linearGradient id="paint25_linear_100_6561" x1="249.533" y1="231.002" x2="279.1" y2="231.002" gradientUnits="userSpaceOnUse">
<stop stop-color="#A3A8AB"/>
<stop offset="0.3105" stop-color="white"/>
<stop offset="0.6214" stop-color="#A3A8AB"/>
<stop offset="1" stop-color="#E6ECF2"/>
</linearGradient>
<linearGradient id="paint26_linear_100_6561" x1="240.065" y1="240.609" x2="260.972" y2="219.702" gradientUnits="userSpaceOnUse">
<stop stop-color="#A3A8AB"/>
<stop offset="0.3105" stop-color="white"/>
<stop offset="0.6214" stop-color="#A3A8AB"/>
<stop offset="1" stop-color="#E6ECF2"/>
</linearGradient>
<linearGradient id="paint27_linear_100_6561" x1="10.8125" y1="264.806" x2="71.3148" y2="264.806" gradientUnits="userSpaceOnUse">
<stop offset="0.1613" stop-color="#50070C"/>
<stop offset="1" stop-color="#B12420"/>
</linearGradient>
<linearGradient id="paint28_linear_100_6561" x1="13.9965" y1="264.067" x2="71.3148" y2="264.067" gradientUnits="userSpaceOnUse">
<stop stop-color="#F4C7C5"/>
<stop offset="0.5127" stop-color="#FF8E84"/>
<stop offset="1" stop-color="#A22C2E"/>
</linearGradient>
<linearGradient id="paint29_linear_100_6561" x1="531.604" y1="264.806" x2="471.102" y2="264.806" gradientUnits="userSpaceOnUse">
<stop offset="0.1613" stop-color="#50070C"/>
<stop offset="1" stop-color="#B12420"/>
</linearGradient>
<linearGradient id="paint30_linear_100_6561" x1="528.42" y1="264.067" x2="471.102" y2="264.067" gradientUnits="userSpaceOnUse">
<stop stop-color="#F4C7C5"/>
<stop offset="0.5127" stop-color="#FF8E84"/>
<stop offset="1" stop-color="#A22C2E"/>
</linearGradient>
<linearGradient id="paint31_linear_100_6561" x1="68.0851" y1="278.69" x2="66.7473" y2="340.224" gradientUnits="userSpaceOnUse">
<stop stop-color="#A3A8AB"/>
<stop offset="0.3105" stop-color="white"/>
<stop offset="0.6214" stop-color="#A3A8AB"/>
<stop offset="1" stop-color="#E6ECF2"/>
</linearGradient>
<linearGradient id="paint32_linear_100_6561" x1="474.22" y1="278.69" x2="475.557" y2="340.224" gradientUnits="userSpaceOnUse">
<stop stop-color="#A3A8AB"/>
<stop offset="0.3105" stop-color="white"/>
<stop offset="0.6214" stop-color="#A3A8AB"/>
<stop offset="1" stop-color="#E6ECF2"/>
</linearGradient>
<linearGradient id="paint33_linear_100_6561" x1="271.657" y1="285.409" x2="270.384" y2="343.992" gradientUnits="userSpaceOnUse">
<stop stop-color="#A3A8AB"/>
<stop offset="0.3105" stop-color="white"/>
<stop offset="0.6214" stop-color="#A3A8AB"/>
<stop offset="1" stop-color="#E6ECF2"/>
</linearGradient>
<linearGradient id="paint34_linear_100_6561" x1="473.266" y1="299.086" x2="473.49" y2="309.395" gradientUnits="userSpaceOnUse">
<stop stop-color="#A3A8AB"/>
<stop offset="0.3105" stop-color="white"/>
<stop offset="0.6214" stop-color="#A3A8AB"/>
<stop offset="1" stop-color="#E6ECF2"/>
</linearGradient>
<linearGradient id="paint35_linear_100_6561" x1="421.672" y1="300.206" x2="421.896" y2="310.517" gradientUnits="userSpaceOnUse">
<stop stop-color="#A3A8AB"/>
<stop offset="0.3105" stop-color="white"/>
<stop offset="0.6214" stop-color="#A3A8AB"/>
<stop offset="1" stop-color="#E6ECF2"/>
</linearGradient>
<linearGradient id="paint36_linear_100_6561" x1="473.246" y1="299.086" x2="473.47" y2="309.396" gradientUnits="userSpaceOnUse">
<stop stop-color="#A3A8AB"/>
<stop offset="0.3105" stop-color="white"/>
<stop offset="0.6214" stop-color="#A3A8AB"/>
<stop offset="1" stop-color="#E6ECF2"/>
</linearGradient>
<linearGradient id="paint37_linear_100_6561" x1="69.0389" y1="299.086" x2="68.8148" y2="309.395" gradientUnits="userSpaceOnUse">
<stop stop-color="#A3A8AB"/>
<stop offset="0.3105" stop-color="white"/>
<stop offset="0.6214" stop-color="#A3A8AB"/>
<stop offset="1" stop-color="#E6ECF2"/>
</linearGradient>
<linearGradient id="paint38_linear_100_6561" x1="120.633" y1="300.206" x2="120.409" y2="310.517" gradientUnits="userSpaceOnUse">
<stop stop-color="#A3A8AB"/>
<stop offset="0.3105" stop-color="white"/>
<stop offset="0.6214" stop-color="#A3A8AB"/>
<stop offset="1" stop-color="#E6ECF2"/>
</linearGradient>
<linearGradient id="paint39_linear_100_6561" x1="69.0593" y1="299.086" x2="68.8352" y2="309.396" gradientUnits="userSpaceOnUse">
<stop stop-color="#A3A8AB"/>
<stop offset="0.3105" stop-color="white"/>
<stop offset="0.6214" stop-color="#A3A8AB"/>
<stop offset="1" stop-color="#E6ECF2"/>
</linearGradient>
<linearGradient id="paint40_linear_100_6561" x1="11.9383" y1="337.049" x2="63.5348" y2="341.043" gradientUnits="userSpaceOnUse">
<stop stop-color="#A3A8AB"/>
<stop offset="0.3105" stop-color="white"/>
<stop offset="0.6214" stop-color="#A3A8AB"/>
<stop offset="1" stop-color="#E6ECF2"/>
</linearGradient>
<linearGradient id="paint41_linear_100_6561" x1="530.478" y1="337.049" x2="478.882" y2="341.043" gradientUnits="userSpaceOnUse">
<stop stop-color="#A3A8AB"/>
<stop offset="0.3105" stop-color="white"/>
<stop offset="0.6214" stop-color="#A3A8AB"/>
<stop offset="1" stop-color="#E6ECF2"/>
</linearGradient>
</defs>
</svg>
