<svg width="192" height="297" viewBox="0 0 192 297" fill="none" xmlns="http://www.w3.org/2000/svg">
<path d="M25.5237 159.024C27.8813 157.037 30.4959 156.231 33.3225 156.441C35.7712 156.623 36.407 155.678 36.4032 153.302C36.3409 113.67 36.3597 74.0377 36.3635 34.4057C36.3636 33.4031 36.296 32.3853 36.4397 31.401C36.7402 29.3427 37.8991 27.9611 40.0624 27.9537C52.145 27.9125 64.2279 27.9214 76.3106 27.9501C78.5003 27.9554 79.6116 29.3641 80.0087 31.3576C80.1857 32.2464 80.121 33.1889 80.1212 34.107C80.1287 73.739 80.1311 113.371 80.134 153.003C80.1342 156.364 80.1335 156.365 83.3386 156.422C90.2349 156.546 94.1598 160.519 94.164 167.382C94.167 172.316 94.1787 177.249 94.1672 182.182C94.1526 188.437 90.2408 192.563 83.944 192.723C79.8269 192.828 80.1363 192.573 80.1352 196.82C80.1298 217.222 80.1305 237.623 80.1301 258.024C80.13 263.013 79.0967 264.07 74.179 264.073C63.346 264.079 52.5131 264.083 41.6802 264.078C37.5771 264.075 36.364 262.856 36.3626 258.678C36.3558 237.775 36.3221 216.872 36.4201 195.969C36.4319 193.447 35.7558 192.682 33.2045 192.696C26.1513 192.735 22.3335 188.696 22.3294 181.592C22.3265 176.659 22.381 171.726 22.3138 166.793C22.2727 163.777 23.1909 161.222 25.5237 159.024ZM44.0205 65.4704C44.024 93.6459 44.0267 121.821 44.0318 149.997C44.033 156.424 44.0368 156.424 50.5457 156.403C54.3858 156.39 54.3943 156.39 54.3947 152.607C54.3978 122.676 54.3965 92.7442 54.4011 62.8129C54.4014 61.4808 54.2843 60.1339 54.8531 58.8603C55.5359 57.3316 56.6728 56.5114 58.3648 56.5471C60.0781 56.5832 61.1286 57.5093 61.711 59.074C62.1319 60.205 62.0562 61.3774 62.0563 62.5455C62.0584 91.4736 62.0591 120.402 62.0626 149.33C62.0628 151.085 62.1057 152.841 62.0884 154.597C62.0761 155.855 62.652 156.432 63.9017 156.418C65.9012 156.395 67.9075 156.307 69.8991 156.433C71.9088 156.56 72.4625 155.697 72.4608 153.787C72.4271 115.244 72.4281 76.7015 72.4774 38.1587C72.4802 35.9968 71.8007 35.2289 69.598 35.2605C62.0169 35.3696 54.4322 35.3763 46.8514 35.2606C44.6462 35.227 43.9636 35.9532 43.9859 38.1313C44.0774 47.0763 44.022 56.0228 44.0205 65.4704ZM44.0198 231.53C44.0231 238.966 44.0839 246.404 43.9936 253.839C43.9676 255.976 44.5905 256.773 46.8321 256.734C54.0751 256.609 61.3216 256.69 68.5667 256.689C72.4291 256.689 72.4306 256.686 72.4315 252.916C72.4357 235.285 72.4387 217.654 72.4427 200.023C72.4443 192.732 72.443 192.833 65.2981 192.7C62.8052 192.653 61.9835 193.344 62.0141 195.923C62.1458 207.035 62.0772 218.149 62.0732 229.262C62.0728 230.428 62.1686 231.605 61.7714 232.739C61.1898 234.401 60.1061 235.422 58.2799 235.427C56.4713 235.433 55.3471 234.479 54.7334 232.809C54.3462 231.755 54.4053 230.671 54.405 229.588C54.4016 219.728 54.4037 209.868 54.4068 200.009C54.4091 192.723 54.4092 192.823 47.2632 192.704C44.7736 192.662 43.9397 193.357 43.9666 195.934C44.0889 207.631 44.0202 219.33 44.0198 231.53ZM73.75 185.052C76.9153 185.051 80.081 185.081 83.2459 185.041C86.0022 185.005 86.7872 184.221 86.8114 181.418C86.851 176.821 86.8478 172.224 86.8128 167.627C86.7924 164.948 86.0462 164.15 83.3974 164.147C66.5712 164.127 49.7448 164.166 32.9186 164.128C30.5223 164.123 29.6438 165.228 29.6649 167.488C29.7064 171.917 29.6703 176.347 29.6762 180.777C29.6813 184.641 30.0838 185.047 34.0163 185.049C47.0942 185.056 60.1721 185.052 73.75 185.052Z" fill="black"/>
<path d="M157.656 164.57C157.652 172.172 157.573 179.527 157.687 186.879C157.723 189.216 157.047 190.126 154.61 190.177C151.952 190.233 150.143 189.514 148.553 187.215C144.91 181.945 140.951 176.894 136.602 171.827C136.602 173.028 136.602 174.229 136.601 175.43C136.6 178.856 136.602 182.282 136.595 185.708C136.587 189.981 135.193 191.021 130.94 190.038C129.824 189.78 129.433 189.131 129.434 188.09C129.445 179.065 129.456 170.041 129.467 161.016C129.469 159.802 130.072 159.22 131.285 159.104C134.32 158.815 136.774 159.184 138.746 162.175C142.184 167.386 146.136 172.256 150.459 177.211C150.459 175.465 150.457 173.718 150.46 171.972C150.466 168.713 150.585 165.449 150.449 162.197C150.347 159.757 151.342 158.808 153.681 159.083C153.927 159.112 154.18 159.081 154.43 159.081C157.551 159.076 157.622 159.147 157.654 162.316C157.661 162.984 157.656 163.653 157.656 164.57Z" fill="black"/>
<path d="M141.96 124.365C140.728 122.572 139.005 122.79 137.548 123.2C135.916 123.659 136.773 125.323 136.607 126.468C136.512 127.122 136.593 127.801 136.593 128.469C136.59 132.78 135.268 133.793 130.991 132.851C129.888 132.608 129.453 131.974 129.455 130.925C129.466 121.909 129.481 112.893 129.494 103.877C129.496 102.526 130.208 101.902 131.515 101.902C136.336 101.905 141.173 101.567 145.97 102.244C150.482 102.881 153.775 106.017 154.726 110.358C155.657 114.612 153.985 118.59 150.209 121.126C149.736 121.444 149.295 121.81 148.722 122.242C150.483 125.884 153.42 128.703 155.228 132.264C150.736 133.905 148.148 133.158 145.655 129.64C144.45 127.939 143.265 126.224 141.96 124.365ZM146.203 115.445C147.549 114.343 148.189 112.964 147.594 111.256C147.05 109.697 145.777 108.782 144.228 108.629C142.171 108.426 140.083 108.526 138.009 108.519C137.383 108.516 136.742 108.762 136.72 109.438C136.657 111.43 136.678 113.427 136.742 115.419C136.759 115.962 137.266 116.3 137.797 116.305C140.51 116.33 143.268 116.879 146.203 115.445Z" fill="black"/>
<path d="M154.213 221.544C158.397 226.315 159.302 231.618 157.152 237.293C154.876 243.301 149.946 246.032 143.921 246.934C139.968 247.526 135.954 247.273 131.964 247.329C129.998 247.357 129.382 246.472 129.396 244.583C129.461 236.155 129.479 227.725 129.398 219.296C129.376 217.044 130.158 216.149 132.434 216.216C136.913 216.349 141.411 216.02 145.841 217.004C149.001 217.706 151.777 219.117 154.213 221.544ZM136.703 239.724C138.371 241.656 140.574 240.618 142.501 240.624C146.881 240.637 150.514 237.145 150.883 232.925C151.305 228.106 148.653 224.016 144.272 223.096C142.589 222.742 140.792 222.976 139.055 222.837C137.233 222.691 136.524 223.402 136.565 225.268C136.665 229.94 136.624 234.615 136.703 239.724Z" fill="black"/>
<path d="M142.333 44.6792C144.791 44.9376 147.039 45.0207 149.126 46.033C152.912 47.8698 155.417 51.7261 155.047 55.6863C154.642 60.0176 152.569 63.2581 148.338 64.8104C146.369 65.5328 144.332 65.8605 142.221 65.8561C136.606 65.8444 136.606 65.8693 136.595 71.6062C136.594 72.0242 136.548 72.4475 136.597 72.8593C136.964 75.9031 134.888 75.7051 132.903 75.7306C130.919 75.756 129.338 75.7191 129.385 72.8932C129.525 64.536 129.498 56.1742 129.392 47.816C129.362 45.3919 130.246 44.5565 132.605 44.6591C135.765 44.7964 138.935 44.6798 142.333 44.6792ZM145.863 58.4638C147.401 57.4437 148.18 56.0457 147.631 54.2141C147.09 52.4099 145.609 51.5689 143.872 51.409C141.982 51.2349 140.067 51.326 138.163 51.3151C137.315 51.3102 136.676 51.6364 136.66 52.5856C136.63 54.3293 136.633 56.0743 136.662 57.8181C136.677 58.7441 137.283 59.1596 138.13 59.1535C140.598 59.1358 143.1 59.5704 145.863 58.4638Z" fill="black"/>
<path d="M120.015 230.292C120.516 234.073 119.36 235.426 115.773 235.46C113.276 235.484 110.778 235.505 108.283 235.441C105.902 235.381 104.373 233.91 104.362 231.813C104.351 229.681 105.844 228.182 108.215 228.119C110.877 228.049 113.542 228.124 116.205 228.096C117.839 228.079 119.121 228.648 120.015 230.292Z" fill="black"/>
<path d="M113.961 178.286C111.808 178.277 109.896 178.337 107.99 178.242C105.824 178.135 104.362 176.593 104.36 174.588C104.357 172.561 105.794 171.018 107.981 170.943C110.718 170.849 113.461 170.875 116.2 170.922C118.829 170.967 120.27 172.315 120.273 174.604C120.277 176.87 118.824 178.181 116.197 178.272C115.533 178.294 114.869 178.282 113.961 178.286Z" fill="black"/>
<path d="M118.769 114.402C120.4 115.777 120.648 117.367 119.917 119.043C119.19 120.712 117.695 121.118 115.984 121.086C113.408 121.039 110.83 121.123 108.255 121.057C105.901 120.998 104.361 119.49 104.362 117.403C104.363 115.272 105.855 113.68 108.233 113.758C111.689 113.871 115.201 113.073 118.769 114.402Z" fill="black"/>
<path d="M110.071 56.5192C112.386 56.5225 114.465 56.467 116.538 56.545C118.933 56.6351 120.315 58.0876 120.267 60.3052C120.221 62.4066 118.874 63.7875 116.594 63.8588C114.022 63.9393 111.446 63.9057 108.872 63.8774C105.928 63.8449 104.299 62.4529 104.357 60.0861C104.413 57.8296 105.959 56.5975 108.835 56.5219C109.167 56.5132 109.499 56.5198 110.071 56.5192Z" fill="black"/>
</svg>
