<svg width="257" height="113" viewBox="0 0 257 113" fill="none" xmlns="http://www.w3.org/2000/svg">
<path d="M6.80451 1.45455V16H4.16957V4.01847H4.08434L0.682351 6.19176V3.77699L4.29741 1.45455H6.80451ZM15.8741 16.277C14.7046 16.277 13.7008 15.9811 12.8627 15.3892C12.0294 14.7926 11.3878 13.9332 10.938 12.8111C10.493 11.6842 10.2704 10.3277 10.2704 8.74148C10.2752 7.1553 10.5001 5.80587 10.9451 4.69318C11.3949 3.57576 12.0365 2.72348 12.8699 2.13636C13.7079 1.54924 14.7093 1.25568 15.8741 1.25568C17.0389 1.25568 18.0403 1.54924 18.8784 2.13636C19.7164 2.72348 20.358 3.57576 20.8031 4.69318C21.2529 5.81061 21.4778 7.16004 21.4778 8.74148C21.4778 10.3324 21.2529 11.6913 20.8031 12.8182C20.358 13.9403 19.7164 14.7973 18.8784 15.3892C18.045 15.9811 17.0436 16.277 15.8741 16.277ZM15.8741 14.054C16.7832 14.054 17.5005 13.6065 18.0261 12.7116C18.5564 11.812 18.8216 10.4886 18.8216 8.74148C18.8216 7.58617 18.7008 6.61553 18.4593 5.82955C18.2179 5.04356 17.877 4.4517 17.4366 4.05398C16.9963 3.65152 16.4754 3.45028 15.8741 3.45028C14.9698 3.45028 14.2548 3.90009 13.7292 4.79972C13.2037 5.6946 12.9385 7.00852 12.9338 8.74148C12.929 9.90151 13.045 10.8769 13.2818 11.6676C13.5233 12.4583 13.8642 13.0549 14.3045 13.4574C14.7449 13.8551 15.2681 14.054 15.8741 14.054ZM33.2125 6.50426L32.5236 8.01705H23.0989L23.66 6.50426H33.2125ZM31.8986 9.4375L31.1671 10.9716H23.0989L23.66 9.4375H31.8986ZM35.0023 2.63352L34.008 4.75C33.7807 4.57008 33.5227 4.39489 33.2338 4.22443C32.945 4.05398 32.6254 3.91193 32.275 3.7983C31.9247 3.68466 31.5411 3.62784 31.1245 3.62784C30.419 3.62784 29.7963 3.81487 29.2566 4.18892C28.7168 4.55824 28.293 5.12169 27.9853 5.87926C27.6822 6.6321 27.5307 7.58617 27.5307 8.74148C27.5307 9.89678 27.6822 10.8509 27.9853 11.6037C28.293 12.3565 28.7168 12.9152 29.2566 13.2798C29.7963 13.6444 30.419 13.8267 31.1245 13.8267C31.5411 13.8267 31.9247 13.7723 32.275 13.6634C32.6254 13.5545 32.9403 13.4171 33.2196 13.2514C33.5037 13.0857 33.7476 12.92 33.9512 12.7543L34.9597 14.8707C34.4531 15.3111 33.8683 15.6425 33.2054 15.8651C32.5473 16.0876 31.8536 16.1989 31.1245 16.1989C29.9123 16.1989 28.8375 15.9029 27.9 15.3111C26.9673 14.7145 26.2357 13.8598 25.7054 12.7472C25.1751 11.6297 24.91 10.2945 24.91 8.74148C24.91 7.18371 25.1751 5.84612 25.7054 4.72869C26.2357 3.61127 26.9673 2.75426 27.9 2.15767C28.8375 1.55634 29.9123 1.25568 31.1245 1.25568C31.882 1.25568 32.5852 1.37642 33.2338 1.6179C33.8873 1.85464 34.4767 2.19318 35.0023 2.63352ZM46.4494 16.1918C45.5924 16.1918 44.8253 15.9716 44.1483 15.5312C43.4712 15.0909 42.9361 14.4517 42.5431 13.6136C42.1502 12.7756 41.9537 11.7576 41.9537 10.5597C41.9537 9.34754 42.1525 8.32481 42.5502 7.49148C42.9527 6.65341 43.4949 6.02131 44.1767 5.59517C44.8585 5.1643 45.6184 4.94886 46.4565 4.94886C47.0957 4.94886 47.6213 5.05777 48.0332 5.27557C48.4451 5.48864 48.7718 5.74669 49.0133 6.04972C49.2548 6.34801 49.4418 6.62973 49.5744 6.89489H49.6809V1.45455H52.2591V16H49.7306V14.2812H49.5744C49.4418 14.5464 49.2501 14.8281 48.9991 15.1264C48.7482 15.42 48.4167 15.6709 48.0048 15.8793C47.5929 16.0876 47.0744 16.1918 46.4494 16.1918ZM47.1667 14.0824C47.7112 14.0824 48.1752 13.9356 48.5588 13.642C48.9423 13.3437 49.2335 12.9295 49.4324 12.3991C49.6312 11.8688 49.7306 11.2509 49.7306 10.5455C49.7306 9.83996 49.6312 9.2268 49.4324 8.70597C49.2382 8.18513 48.9494 7.7803 48.5659 7.49148C48.1871 7.20265 47.7207 7.05824 47.1667 7.05824C46.5938 7.05824 46.1156 7.20739 45.7321 7.50568C45.3485 7.80398 45.0597 8.21591 44.8656 8.74148C44.6715 9.26705 44.5744 9.86837 44.5744 10.5455C44.5744 11.2273 44.6715 11.8357 44.8656 12.3707C45.0645 12.901 45.3556 13.3201 45.7392 13.6278C46.1274 13.9309 46.6033 14.0824 47.1667 14.0824ZM54.9988 16V5.09091H57.5698V16H54.9988ZM56.2914 3.54261C55.8842 3.54261 55.5338 3.40767 55.2402 3.13778C54.9467 2.86316 54.7999 2.53409 54.7999 2.15057C54.7999 1.76231 54.9467 1.43324 55.2402 1.16335C55.5338 0.88873 55.8842 0.75142 56.2914 0.75142C56.7033 0.75142 57.0537 0.88873 57.3425 1.16335C57.6361 1.43324 57.7828 1.76231 57.7828 2.15057C57.7828 2.53409 57.6361 2.86316 57.3425 3.13778C57.0537 3.40767 56.7033 3.54261 56.2914 3.54261ZM68.8358 7.97443L66.492 8.23011C66.4257 7.99337 66.3097 7.77083 66.144 7.5625C65.983 7.35417 65.7652 7.18608 65.4906 7.05824C65.216 6.9304 64.8798 6.86648 64.4821 6.86648C63.947 6.86648 63.4972 6.98248 63.1326 7.21449C62.7728 7.4465 62.5952 7.74716 62.6 8.11648C62.5952 8.43371 62.7112 8.69176 62.948 8.89062C63.1895 9.08949 63.5872 9.25284 64.1412 9.38068L66.002 9.77841C67.0342 10.0009 67.8012 10.3537 68.3031 10.8366C68.8097 11.3196 69.0654 11.9517 69.0701 12.733C69.0654 13.4195 68.8642 14.0256 68.4664 14.5511C68.0734 15.072 67.5266 15.4792 66.8258 15.7727C66.1251 16.0663 65.3201 16.2131 64.411 16.2131C63.0758 16.2131 62.001 15.9337 61.1866 15.375C60.3722 14.8116 59.8869 14.0279 59.7306 13.0241L62.2377 12.7827C62.3514 13.2751 62.5929 13.6468 62.9622 13.8977C63.3315 14.1487 63.8121 14.2741 64.4039 14.2741C65.0147 14.2741 65.5048 14.1487 65.8741 13.8977C66.2482 13.6468 66.4352 13.3366 66.4352 12.9673C66.4352 12.6548 66.3145 12.3968 66.073 12.1932C65.8362 11.9896 65.4669 11.8333 64.965 11.7244L63.1042 11.3338C62.0578 11.116 61.2837 10.7491 60.7818 10.233C60.2799 9.71212 60.0313 9.05398 60.036 8.25852C60.0313 7.58617 60.2136 7.00379 60.5829 6.51136C60.957 6.0142 61.4754 5.63068 62.1383 5.3608C62.8059 5.08617 63.5753 4.94886 64.4466 4.94886C65.725 4.94886 66.7311 5.22112 67.465 5.76562C68.2037 6.31013 68.6606 7.0464 68.8358 7.97443ZM75.9487 16.2131C74.8597 16.2131 73.9245 15.974 73.1433 15.4957C72.3668 15.0175 71.7678 14.357 71.3464 13.5142C70.9297 12.6667 70.7214 11.6913 70.7214 10.5881C70.7214 9.48011 70.9345 8.50237 71.3606 7.65483C71.7868 6.80256 72.3881 6.13968 73.1646 5.66619C73.9458 5.18797 74.8691 4.94886 75.9345 4.94886C76.8199 4.94886 77.6035 5.11222 78.2853 5.43892C78.9719 5.76089 79.5188 6.2178 79.926 6.80966C80.3332 7.39678 80.5652 8.08333 80.622 8.86932H78.1646C78.0652 8.34375 77.8284 7.90578 77.4544 7.5554C77.085 7.20028 76.5903 7.02273 75.97 7.02273C75.4444 7.02273 74.9828 7.16477 74.585 7.44886C74.1873 7.72822 73.8772 8.13068 73.6547 8.65625C73.4368 9.18182 73.3279 9.81155 73.3279 10.5455C73.3279 11.2888 73.4368 11.928 73.6547 12.4631C73.8725 12.9934 74.1779 13.4029 74.5708 13.6918C74.9686 13.9759 75.435 14.1179 75.97 14.1179C76.3488 14.1179 76.6873 14.0469 76.9856 13.9048C77.2886 13.758 77.542 13.5473 77.7456 13.2727C77.9492 12.9981 78.0888 12.6643 78.1646 12.2713H80.622C80.5604 13.0431 80.3332 13.7273 79.9402 14.3239C79.5472 14.9157 79.0121 15.3797 78.335 15.7159C77.658 16.0473 76.8625 16.2131 75.9487 16.2131ZM87.4917 16.2131C86.4263 16.2131 85.503 15.9787 84.7218 15.5099C83.9405 15.0412 83.3345 14.3854 82.9036 13.5426C82.4775 12.6998 82.2644 11.715 82.2644 10.5881C82.2644 9.46117 82.4775 8.47396 82.9036 7.62642C83.3345 6.77888 83.9405 6.12074 84.7218 5.65199C85.503 5.18324 86.4263 4.94886 87.4917 4.94886C88.557 4.94886 89.4803 5.18324 90.2615 5.65199C91.0428 6.12074 91.6465 6.77888 92.0726 7.62642C92.5035 8.47396 92.7189 9.46117 92.7189 10.5881C92.7189 11.715 92.5035 12.6998 92.0726 13.5426C91.6465 14.3854 91.0428 15.0412 90.2615 15.5099C89.4803 15.9787 88.557 16.2131 87.4917 16.2131ZM87.5059 14.1534C88.0835 14.1534 88.5665 13.9948 88.9547 13.6776C89.343 13.3556 89.6318 12.9247 89.8212 12.3849C90.0153 11.8452 90.1124 11.2438 90.1124 10.581C90.1124 9.91335 90.0153 9.30966 89.8212 8.76989C89.6318 8.22538 89.343 7.79214 88.9547 7.47017C88.5665 7.1482 88.0835 6.98722 87.5059 6.98722C86.914 6.98722 86.4216 7.1482 86.0286 7.47017C85.6403 7.79214 85.3491 8.22538 85.155 8.76989C84.9656 9.30966 84.8709 9.91335 84.8709 10.581C84.8709 11.2438 84.9656 11.8452 85.155 12.3849C85.3491 12.9247 85.6403 13.3556 86.0286 13.6776C86.4216 13.9948 86.914 14.1534 87.5059 14.1534ZM101.854 11.4119V5.09091H104.425V16H101.932V14.0611H101.819C101.573 14.6719 101.168 15.1714 100.604 15.5597C100.046 15.9479 99.3566 16.142 98.5375 16.142C97.8225 16.142 97.1904 15.9834 96.6412 15.6662C96.0967 15.3442 95.6705 14.8778 95.3627 14.267C95.055 13.6515 94.9011 12.9081 94.9011 12.0369V5.09091H97.4721V11.6392C97.4721 12.3305 97.6615 12.8797 98.0403 13.2869C98.4191 13.6941 98.9163 13.8977 99.5318 13.8977C99.9106 13.8977 100.278 13.8054 100.633 13.6207C100.988 13.4361 101.279 13.1615 101.506 12.7969C101.738 12.4276 101.854 11.9659 101.854 11.4119ZM109.64 9.60795V16H107.069V5.09091H109.526V6.9446H109.654C109.905 6.33381 110.305 5.84848 110.855 5.48864C111.409 5.12879 112.093 4.94886 112.907 4.94886C113.66 4.94886 114.316 5.10985 114.874 5.43182C115.438 5.75379 115.874 6.22017 116.181 6.83097C116.494 7.44176 116.648 8.18276 116.643 9.05398V16H114.072V9.4517C114.072 8.72254 113.883 8.15199 113.504 7.74006C113.13 7.32812 112.611 7.12216 111.948 7.12216C111.499 7.12216 111.098 7.22159 110.748 7.42045C110.402 7.61458 110.13 7.89631 109.931 8.26562C109.737 8.63494 109.64 9.08239 109.64 9.60795ZM124.704 5.09091V7.07955H118.433V5.09091H124.704ZM119.981 2.47727H122.552V12.7188C122.552 13.0644 122.604 13.3295 122.708 13.5142C122.817 13.6941 122.959 13.8172 123.134 13.8835C123.31 13.9498 123.504 13.983 123.717 13.983C123.878 13.983 124.025 13.9711 124.157 13.9474C124.294 13.9238 124.399 13.9025 124.47 13.8835L124.903 15.8935C124.766 15.9408 124.569 15.9929 124.313 16.0497C124.062 16.1065 123.755 16.1397 123.39 16.1491C122.746 16.1681 122.166 16.071 121.65 15.858C121.134 15.6402 120.724 15.304 120.421 14.8494C120.123 14.3949 119.976 13.8267 119.981 13.1449V2.47727ZM90.9363 112V101.091H93.4292V102.909H93.5428C93.7417 102.279 94.0826 101.794 94.5655 101.453C95.0532 101.107 95.6096 100.935 96.2346 100.935C96.3766 100.935 96.5352 100.942 96.7104 100.956C96.8903 100.965 97.0395 100.982 97.1578 101.006V103.371C97.0489 103.333 96.8761 103.3 96.6394 103.271C96.4074 103.238 96.1825 103.222 95.9647 103.222C95.4959 103.222 95.0745 103.323 94.7005 103.527C94.3311 103.726 94.04 104.003 93.8269 104.358C93.6138 104.713 93.5073 105.123 93.5073 105.587V112H90.9363ZM103.246 112.213C102.153 112.213 101.208 111.986 100.412 111.531C99.6217 111.072 99.0133 110.423 98.5872 109.585C98.161 108.742 97.948 107.75 97.948 106.609C97.948 105.487 98.161 104.502 98.5872 103.655C99.0181 102.803 99.6194 102.14 100.391 101.666C101.163 101.188 102.07 100.949 103.111 100.949C103.784 100.949 104.418 101.058 105.015 101.276C105.616 101.489 106.146 101.82 106.606 102.27C107.07 102.72 107.434 103.293 107.699 103.989C107.965 104.68 108.097 105.504 108.097 106.46V107.249H99.1554V105.516H105.633C105.628 105.023 105.521 104.585 105.313 104.202C105.105 103.813 104.814 103.508 104.439 103.286C104.07 103.063 103.639 102.952 103.147 102.952C102.621 102.952 102.16 103.08 101.762 103.335C101.364 103.586 101.054 103.918 100.831 104.33C100.614 104.737 100.502 105.184 100.498 105.672V107.185C100.498 107.819 100.614 108.364 100.846 108.818C101.078 109.268 101.402 109.614 101.819 109.855C102.235 110.092 102.723 110.21 103.282 110.21C103.656 110.21 103.994 110.158 104.297 110.054C104.6 109.945 104.863 109.786 105.086 109.578C105.308 109.37 105.476 109.112 105.59 108.804L107.991 109.074C107.839 109.708 107.55 110.262 107.124 110.736C106.703 111.205 106.163 111.569 105.505 111.83C104.847 112.085 104.094 112.213 103.246 112.213ZM112.843 105.608V112H110.272V101.091H112.73V102.945H112.857C113.108 102.334 113.508 101.848 114.058 101.489C114.612 101.129 115.296 100.949 116.11 100.949C116.863 100.949 117.519 101.11 118.078 101.432C118.641 101.754 119.077 102.22 119.384 102.831C119.697 103.442 119.851 104.183 119.846 105.054V112H117.275V105.452C117.275 104.723 117.086 104.152 116.707 103.74C116.333 103.328 115.814 103.122 115.151 103.122C114.702 103.122 114.302 103.222 113.951 103.42C113.606 103.615 113.333 103.896 113.134 104.266C112.94 104.635 112.843 105.082 112.843 105.608ZM127.907 101.091V103.08H121.636V101.091H127.907ZM123.184 98.4773H125.755V108.719C125.755 109.064 125.807 109.33 125.911 109.514C126.02 109.694 126.162 109.817 126.338 109.884C126.513 109.95 126.707 109.983 126.92 109.983C127.081 109.983 127.228 109.971 127.36 109.947C127.498 109.924 127.602 109.902 127.673 109.884L128.106 111.893C127.969 111.941 127.772 111.993 127.517 112.05C127.266 112.107 126.958 112.14 126.593 112.149C125.949 112.168 125.369 112.071 124.853 111.858C124.337 111.64 123.927 111.304 123.624 110.849C123.326 110.395 123.179 109.827 123.184 109.145V98.4773ZM133.197 112.22C132.505 112.22 131.883 112.097 131.329 111.851C130.779 111.6 130.344 111.231 130.022 110.743C129.705 110.255 129.546 109.654 129.546 108.939C129.546 108.323 129.66 107.814 129.887 107.412C130.114 107.009 130.424 106.688 130.817 106.446C131.21 106.205 131.653 106.022 132.145 105.899C132.643 105.771 133.156 105.679 133.687 105.622C134.326 105.556 134.844 105.497 135.242 105.445C135.64 105.388 135.929 105.303 136.108 105.189C136.293 105.071 136.385 104.888 136.385 104.642V104.599C136.385 104.064 136.227 103.65 135.91 103.357C135.592 103.063 135.135 102.916 134.539 102.916C133.909 102.916 133.41 103.054 133.04 103.328C132.676 103.603 132.43 103.927 132.302 104.301L129.901 103.96C130.09 103.297 130.403 102.743 130.839 102.298C131.274 101.848 131.807 101.512 132.437 101.29C133.066 101.062 133.762 100.949 134.525 100.949C135.05 100.949 135.573 101.01 136.094 101.134C136.615 101.257 137.091 101.46 137.522 101.744C137.953 102.024 138.298 102.405 138.559 102.888C138.824 103.371 138.956 103.974 138.956 104.699V112H136.485V110.501H136.4C136.243 110.804 136.023 111.089 135.739 111.354C135.46 111.614 135.107 111.825 134.681 111.986C134.26 112.142 133.765 112.22 133.197 112.22ZM133.864 110.331C134.38 110.331 134.828 110.229 135.206 110.026C135.585 109.817 135.876 109.543 136.08 109.202C136.288 108.861 136.393 108.489 136.393 108.087V106.801C136.312 106.867 136.175 106.929 135.981 106.986C135.791 107.043 135.578 107.092 135.341 107.135C135.105 107.178 134.87 107.215 134.638 107.249C134.406 107.282 134.205 107.31 134.035 107.334C133.651 107.386 133.308 107.471 133.005 107.589C132.702 107.708 132.463 107.874 132.287 108.087C132.112 108.295 132.025 108.565 132.025 108.896C132.025 109.37 132.198 109.727 132.543 109.969C132.889 110.21 133.329 110.331 133.864 110.331ZM144.113 97.4545V112H141.542V97.4545H144.113ZM152.644 97.4545V112H150.009V100.018H149.924L146.522 102.192V99.777L150.137 97.4545H152.644ZM161.714 112.277C160.544 112.277 159.541 111.981 158.703 111.389C157.869 110.793 157.228 109.933 156.778 108.811C156.333 107.684 156.11 106.328 156.11 104.741C156.115 103.155 156.34 101.806 156.785 100.693C157.235 99.5758 157.876 98.7235 158.71 98.1364C159.548 97.5492 160.549 97.2557 161.714 97.2557C162.879 97.2557 163.88 97.5492 164.718 98.1364C165.556 98.7235 166.198 99.5758 166.643 100.693C167.093 101.811 167.318 103.16 167.318 104.741C167.318 106.332 167.093 107.691 166.643 108.818C166.198 109.94 165.556 110.797 164.718 111.389C163.885 111.981 162.883 112.277 161.714 112.277ZM161.714 110.054C162.623 110.054 163.34 109.607 163.866 108.712C164.396 107.812 164.661 106.489 164.661 104.741C164.661 103.586 164.541 102.616 164.299 101.83C164.058 101.044 163.717 100.452 163.276 100.054C162.836 99.6515 162.315 99.4503 161.714 99.4503C160.81 99.4503 160.095 99.9001 159.569 100.8C159.044 101.695 158.778 103.009 158.774 104.741C158.769 105.902 158.885 106.877 159.122 107.668C159.363 108.458 159.704 109.055 160.144 109.457C160.585 109.855 161.108 110.054 161.714 110.054Z" fill="#76404B"/>
<path d="M136.849 16.2202C135.826 16.2202 134.934 15.9858 134.171 15.517C133.409 15.0483 132.817 14.3925 132.396 13.5497C131.974 12.7069 131.764 11.7221 131.764 10.5952C131.764 9.46354 131.974 8.47396 132.396 7.62642C132.817 6.77888 133.409 6.12074 134.171 5.65199C134.934 5.18324 135.826 4.94886 136.849 4.94886C137.872 4.94886 138.764 5.18324 139.526 5.65199C140.289 6.12074 140.881 6.77888 141.302 7.62642C141.723 8.47396 141.934 9.46354 141.934 10.5952C141.934 11.7221 141.723 12.7069 141.302 13.5497C140.881 14.3925 140.289 15.0483 139.526 15.517C138.764 15.9858 137.872 16.2202 136.849 16.2202ZM136.856 14.4375C137.519 14.4375 138.068 14.2623 138.504 13.9119C138.939 13.5616 139.261 13.0952 139.47 12.5128C139.683 11.9304 139.789 11.2888 139.789 10.5881C139.789 9.89205 139.683 9.25284 139.47 8.67045C139.261 8.08333 138.939 7.61222 138.504 7.2571C138.068 6.90199 137.519 6.72443 136.856 6.72443C136.188 6.72443 135.634 6.90199 135.194 7.2571C134.758 7.61222 134.434 8.08333 134.221 8.67045C134.013 9.25284 133.909 9.89205 133.909 10.5881C133.909 11.2888 134.013 11.9304 134.221 12.5128C134.434 13.0952 134.758 13.5616 135.194 13.9119C135.634 14.2623 136.188 14.4375 136.856 14.4375ZM146.428 9.52273V16H144.305V5.09091H146.343V6.86648H146.478C146.729 6.28883 147.122 5.82481 147.657 5.47443C148.197 5.12405 148.876 4.94886 149.695 4.94886C150.439 4.94886 151.09 5.10511 151.648 5.41761C152.207 5.72538 152.64 6.18466 152.948 6.79545C153.256 7.40625 153.41 8.16146 153.41 9.06108V16H151.286V9.31676C151.286 8.52604 151.08 7.90814 150.668 7.46307C150.256 7.01326 149.69 6.78835 148.971 6.78835C148.478 6.78835 148.04 6.89489 147.657 7.10795C147.278 7.32102 146.977 7.63352 146.755 8.04545C146.537 8.45265 146.428 8.94508 146.428 9.52273ZM166.742 5.09091V6.79545H160.578V5.09091H166.742ZM162.268 16V3.8267C162.268 3.14489 162.417 2.57907 162.715 2.12926C163.014 1.67472 163.409 1.33617 163.901 1.11364C164.394 0.886363 164.929 0.772726 165.507 0.772726C165.933 0.772726 166.297 0.808238 166.6 0.879261C166.903 0.945549 167.128 1.0071 167.275 1.06392L166.778 2.78267C166.678 2.75426 166.551 2.72112 166.394 2.68324C166.238 2.64062 166.049 2.61932 165.826 2.61932C165.31 2.61932 164.941 2.74716 164.718 3.00284C164.5 3.25852 164.392 3.62784 164.392 4.1108V16H162.268ZM168.933 16V5.09091H171.057V16H168.933ZM170.006 3.40767C169.637 3.40767 169.319 3.28456 169.054 3.03835C168.794 2.7874 168.664 2.48911 168.664 2.14347C168.664 1.79309 168.794 1.49479 169.054 1.24858C169.319 0.997632 169.637 0.872159 170.006 0.872159C170.375 0.872159 170.69 0.997632 170.95 1.24858C171.216 1.49479 171.348 1.79309 171.348 2.14347C171.348 2.48911 171.216 2.7874 170.95 3.03835C170.69 3.28456 170.375 3.40767 170.006 3.40767ZM173.914 16V5.09091H175.966V6.82386H176.08C176.279 6.23674 176.629 5.77509 177.131 5.43892C177.638 5.09801 178.211 4.92756 178.85 4.92756C178.983 4.92756 179.139 4.93229 179.319 4.94176C179.503 4.95123 179.648 4.96307 179.752 4.97727V7.00852C179.667 6.98485 179.515 6.95881 179.297 6.9304C179.08 6.89725 178.862 6.88068 178.644 6.88068C178.142 6.88068 177.695 6.98722 177.302 7.20028C176.913 7.40862 176.606 7.69981 176.378 8.07386C176.151 8.44318 176.037 8.86458 176.037 9.33807V16H173.914ZM189.764 7.75426L187.84 8.09517C187.759 7.84896 187.631 7.61458 187.456 7.39205C187.286 7.16951 187.054 6.98722 186.76 6.84517C186.467 6.70312 186.1 6.6321 185.659 6.6321C185.058 6.6321 184.556 6.76705 184.154 7.03693C183.751 7.30208 183.55 7.64536 183.55 8.06676C183.55 8.43134 183.685 8.72491 183.955 8.94744C184.225 9.16998 184.66 9.35227 185.262 9.49432L186.994 9.89205C187.998 10.1241 188.746 10.4815 189.239 10.9645C189.731 11.4474 189.977 12.0748 189.977 12.8466C189.977 13.5 189.788 14.0824 189.409 14.5938C189.035 15.1004 188.512 15.4981 187.84 15.7869C187.172 16.0758 186.398 16.2202 185.517 16.2202C184.296 16.2202 183.299 15.9598 182.527 15.4389C181.755 14.9134 181.282 14.1676 181.107 13.2017L183.159 12.8892C183.287 13.4242 183.55 13.8291 183.948 14.1037C184.345 14.3736 184.864 14.5085 185.503 14.5085C186.199 14.5085 186.755 14.3641 187.172 14.0753C187.589 13.7817 187.797 13.4242 187.797 13.0028C187.797 12.6619 187.669 12.3755 187.414 12.1435C187.163 11.9115 186.777 11.7363 186.256 11.6179L184.409 11.2131C183.391 10.9811 182.638 10.6117 182.151 10.1051C181.668 9.59848 181.426 8.95691 181.426 8.1804C181.426 7.53646 181.606 6.97301 181.966 6.49006C182.326 6.0071 182.823 5.63068 183.458 5.3608C184.092 5.08617 184.819 4.94886 185.638 4.94886C186.817 4.94886 187.745 5.20455 188.422 5.71591C189.099 6.22254 189.547 6.90199 189.764 7.75426ZM197.405 5.09091V6.79545H191.446V5.09091H197.405ZM193.044 2.47727H195.167V12.7969C195.167 13.2088 195.229 13.5189 195.352 13.7273C195.475 13.9309 195.634 14.0705 195.828 14.1463C196.027 14.2173 196.242 14.2528 196.474 14.2528C196.645 14.2528 196.794 14.241 196.922 14.2173C197.05 14.1937 197.149 14.1747 197.22 14.1605L197.604 15.9148C197.48 15.9621 197.305 16.0095 197.078 16.0568C196.851 16.1089 196.567 16.1373 196.226 16.142C195.667 16.1515 195.146 16.0521 194.663 15.8438C194.18 15.6354 193.79 15.3134 193.491 14.8778C193.193 14.4422 193.044 13.8954 193.044 13.2372V2.47727ZM205.047 16V5.09091H207.099V6.82386H207.213C207.412 6.23674 207.762 5.77509 208.264 5.43892C208.771 5.09801 209.344 4.92756 209.983 4.92756C210.115 4.92756 210.272 4.93229 210.452 4.94176C210.636 4.95123 210.781 4.96307 210.885 4.97727V7.00852C210.8 6.98485 210.648 6.95881 210.43 6.9304C210.212 6.89725 209.995 6.88068 209.777 6.88068C209.275 6.88068 208.827 6.98722 208.434 7.20028C208.046 7.40862 207.738 7.69981 207.511 8.07386C207.284 8.44318 207.17 8.86458 207.17 9.33807V16H205.047ZM217.034 16.2202C215.959 16.2202 215.033 15.9905 214.257 15.5312C213.485 15.0672 212.888 14.4162 212.467 13.5781C212.05 12.7353 211.842 11.7481 211.842 10.6165C211.842 9.49905 212.05 8.5142 212.467 7.66193C212.888 6.80966 213.475 6.14441 214.228 5.66619C214.986 5.18797 215.871 4.94886 216.884 4.94886C217.5 4.94886 218.097 5.05066 218.674 5.25426C219.252 5.45786 219.77 5.77746 220.23 6.21307C220.689 6.64867 221.051 7.21449 221.316 7.91051C221.581 8.6018 221.714 9.44223 221.714 10.4318V11.1847H213.042V9.59375H219.633C219.633 9.03504 219.519 8.54025 219.292 8.10938C219.065 7.67377 218.745 7.33049 218.333 7.07955C217.926 6.8286 217.448 6.70312 216.899 6.70312C216.302 6.70312 215.781 6.84991 215.336 7.14347C214.896 7.43229 214.555 7.81108 214.313 8.27983C214.077 8.74384 213.958 9.24811 213.958 9.79261V11.0355C213.958 11.7647 214.086 12.3849 214.342 12.8963C214.602 13.4077 214.964 13.7983 215.428 14.0682C215.892 14.3333 216.435 14.4659 217.055 14.4659C217.457 14.4659 217.824 14.4091 218.156 14.2955C218.487 14.1771 218.774 14.0019 219.015 13.7699C219.257 13.5379 219.441 13.2514 219.569 12.9105L221.579 13.2727C221.418 13.8646 221.129 14.383 220.713 14.8281C220.301 15.2685 219.782 15.6117 219.157 15.858C218.537 16.0994 217.829 16.2202 217.034 16.2202ZM226.194 9.52273V16H224.07V5.09091H226.108V6.86648H226.243C226.494 6.28883 226.887 5.82481 227.422 5.47443C227.962 5.12405 228.642 4.94886 229.461 4.94886C230.204 4.94886 230.855 5.10511 231.414 5.41761C231.973 5.72538 232.406 6.18466 232.714 6.79545C233.021 7.40625 233.175 8.16146 233.175 9.06108V16H231.052V9.31676C231.052 8.52604 230.846 7.90814 230.434 7.46307C230.022 7.01326 229.456 6.78835 228.736 6.78835C228.244 6.78835 227.806 6.89489 227.422 7.10795C227.044 7.32102 226.743 7.63352 226.52 8.04545C226.303 8.45265 226.194 8.94508 226.194 9.52273ZM241.116 5.09091V6.79545H235.157V5.09091H241.116ZM236.755 2.47727H238.878V12.7969C238.878 13.2088 238.94 13.5189 239.063 13.7273C239.186 13.9309 239.345 14.0705 239.539 14.1463C239.738 14.2173 239.953 14.2528 240.185 14.2528C240.356 14.2528 240.505 14.241 240.633 14.2173C240.76 14.1937 240.86 14.1747 240.931 14.1605L241.314 15.9148C241.191 15.9621 241.016 16.0095 240.789 16.0568C240.562 16.1089 240.278 16.1373 239.937 16.142C239.378 16.1515 238.857 16.0521 238.374 15.8438C237.891 15.6354 237.501 15.3134 237.202 14.8778C236.904 14.4422 236.755 13.8954 236.755 13.2372V2.47727ZM246.639 16.2415C245.948 16.2415 245.323 16.1136 244.764 15.858C244.206 15.5975 243.763 15.2211 243.436 14.7287C243.114 14.2363 242.953 13.6326 242.953 12.9176C242.953 12.3021 243.072 11.7955 243.308 11.3977C243.545 11 243.865 10.6851 244.267 10.4531C244.67 10.2211 245.119 10.0459 245.617 9.92756C246.114 9.80919 246.62 9.71922 247.137 9.65767C247.79 9.58191 248.32 9.52036 248.727 9.47301C249.135 9.42093 249.431 9.33807 249.615 9.22443C249.8 9.1108 249.892 8.92614 249.892 8.67045V8.62074C249.892 8.00047 249.717 7.51989 249.367 7.17898C249.021 6.83807 248.505 6.66761 247.818 6.66761C247.103 6.66761 246.54 6.82623 246.128 7.14347C245.721 7.45597 245.439 7.80398 245.283 8.1875L243.287 7.73295C243.524 7.07008 243.869 6.53504 244.324 6.12784C244.783 5.71591 245.311 5.41761 245.908 5.23295C246.504 5.04356 247.132 4.94886 247.79 4.94886C248.226 4.94886 248.687 5.00095 249.175 5.10511C249.667 5.20455 250.127 5.3892 250.553 5.65909C250.984 5.92898 251.336 6.31487 251.611 6.81676C251.886 7.31392 252.023 7.96023 252.023 8.75568V16H249.949V14.5085H249.864C249.727 14.7831 249.521 15.053 249.246 15.3182C248.971 15.5833 248.619 15.8035 248.188 15.9787C247.757 16.1539 247.241 16.2415 246.639 16.2415ZM247.101 14.5369C247.688 14.5369 248.19 14.4209 248.607 14.1889C249.028 13.9569 249.348 13.6539 249.566 13.2798C249.788 12.901 249.899 12.4962 249.899 12.0653V10.6591C249.824 10.7348 249.677 10.8059 249.459 10.8722C249.246 10.9337 249.002 10.9882 248.727 11.0355C248.453 11.0781 248.185 11.1184 247.925 11.1562C247.664 11.1894 247.447 11.2178 247.271 11.2415C246.86 11.2936 246.483 11.3812 246.142 11.5043C245.806 11.6274 245.536 11.8049 245.333 12.0369C245.134 12.2642 245.034 12.5672 245.034 12.946C245.034 13.4716 245.228 13.8693 245.617 14.1392C246.005 14.4044 246.5 14.5369 247.101 14.5369ZM256.975 1.45455V16H254.851V1.45455H256.975ZM59.965 29.0909V30.7955H53.8002V29.0909H59.965ZM55.4906 40V27.8267C55.4906 27.1449 55.6397 26.5791 55.938 26.1293C56.2363 25.6747 56.6317 25.3362 57.1241 25.1136C57.6165 24.8864 58.1516 24.7727 58.7292 24.7727C59.1554 24.7727 59.5199 24.8082 59.823 24.8793C60.126 24.9455 60.3509 25.0071 60.4977 25.0639L60.0005 26.7827C59.9011 26.7543 59.7733 26.7211 59.617 26.6832C59.4608 26.6406 59.2714 26.6193 59.0488 26.6193C58.5327 26.6193 58.1634 26.7472 57.9409 27.0028C57.7231 27.2585 57.6142 27.6278 57.6142 28.1108V40H55.4906ZM66.3216 40.2202C65.2988 40.2202 64.4063 39.9858 63.644 39.517C62.8817 39.0483 62.2898 38.3925 61.8684 37.5497C61.447 36.7069 61.2363 35.7221 61.2363 34.5952C61.2363 33.4635 61.447 32.474 61.8684 31.6264C62.2898 30.7789 62.8817 30.1207 63.644 29.652C64.4063 29.1832 65.2988 28.9489 66.3216 28.9489C67.3443 28.9489 68.2368 29.1832 68.9991 29.652C69.7614 30.1207 70.3533 30.7789 70.7747 31.6264C71.1961 32.474 71.4068 33.4635 71.4068 34.5952C71.4068 35.7221 71.1961 36.7069 70.7747 37.5497C70.3533 38.3925 69.7614 39.0483 68.9991 39.517C68.2368 39.9858 67.3443 40.2202 66.3216 40.2202ZM66.3287 38.4375C66.9915 38.4375 67.5408 38.2623 67.9764 37.9119C68.412 37.5616 68.734 37.0952 68.9423 36.5128C69.1554 35.9304 69.2619 35.2888 69.2619 34.5881C69.2619 33.892 69.1554 33.2528 68.9423 32.6705C68.734 32.0833 68.412 31.6122 67.9764 31.2571C67.5408 30.902 66.9915 30.7244 66.3287 30.7244C65.661 30.7244 65.1071 30.902 64.6667 31.2571C64.2311 31.6122 63.9068 32.0833 63.6937 32.6705C63.4854 33.2528 63.3812 33.892 63.3812 34.5881C63.3812 35.2888 63.4854 35.9304 63.6937 36.5128C63.9068 37.0952 64.2311 37.5616 64.6667 37.9119C65.1071 38.2623 65.661 38.4375 66.3287 38.4375ZM73.7772 40V29.0909H75.8297V30.8239H75.9434C76.1422 30.2367 76.4926 29.7751 76.9945 29.4389C77.5011 29.098 78.074 28.9276 78.7132 28.9276C78.8458 28.9276 79.0021 28.9323 79.182 28.9418C79.3667 28.9512 79.5111 28.9631 79.6152 28.9773V31.0085C79.53 30.9848 79.3785 30.9588 79.1607 30.9304C78.9429 30.8973 78.7251 30.8807 78.5073 30.8807C78.0054 30.8807 77.5579 30.9872 77.165 31.2003C76.7767 31.4086 76.4689 31.6998 76.2417 32.0739C76.0144 32.4432 75.9007 32.8646 75.9007 33.3381V40H73.7772ZM94.8496 29.2756C94.7739 28.6032 94.4614 28.0824 93.9121 27.7131C93.3629 27.339 92.6716 27.152 91.8382 27.152C91.2417 27.152 90.7256 27.2467 90.29 27.4361C89.8543 27.6207 89.5158 27.8764 89.2743 28.2031C89.0376 28.5251 88.9192 28.892 88.9192 29.304C88.9192 29.6496 88.9997 29.9479 89.1607 30.1989C89.3264 30.4498 89.5418 30.6605 89.807 30.831C90.0769 30.9967 90.3657 31.1364 90.6735 31.25C90.9812 31.3589 91.2772 31.4489 91.5613 31.5199L92.9817 31.8892C93.4457 32.0028 93.9216 32.1567 94.4093 32.3509C94.897 32.545 95.3491 32.8007 95.7658 33.1179C96.1825 33.4351 96.5186 33.8281 96.7743 34.2969C97.0347 34.7656 97.165 35.3267 97.165 35.9801C97.165 36.804 96.9519 37.5355 96.5257 38.1747C96.1043 38.8139 95.4912 39.3182 94.6863 39.6875C93.8861 40.0568 92.9178 40.2415 91.7814 40.2415C90.6924 40.2415 89.7502 40.0687 88.9547 39.723C88.1593 39.3774 87.5366 38.8873 87.0868 38.2528C86.637 37.6136 86.3884 36.8561 86.3411 35.9801H88.5428C88.5854 36.5057 88.7559 36.9437 89.0542 37.294C89.3572 37.6397 89.7431 37.8977 90.2118 38.0682C90.6853 38.2339 91.2038 38.3168 91.7672 38.3168C92.3875 38.3168 92.9391 38.2197 93.4221 38.0256C93.9097 37.8267 94.2933 37.5521 94.5726 37.2017C94.852 36.8466 94.9917 36.4323 94.9917 35.9588C94.9917 35.5279 94.8685 35.1752 94.6223 34.9006C94.3809 34.6259 94.0518 34.3987 93.6351 34.2188C93.2232 34.0388 92.7568 33.8802 92.236 33.7429L90.5172 33.2741C89.3525 32.9569 88.4292 32.4905 87.7473 31.875C87.0703 31.2595 86.7317 30.4451 86.7317 29.4318C86.7317 28.5937 86.959 27.8622 87.4135 27.2372C87.8681 26.6122 88.4836 26.1269 89.2601 25.7812C90.0366 25.4309 90.9126 25.2557 91.888 25.2557C92.8728 25.2557 93.7417 25.4285 94.4945 25.7741C95.2521 26.1198 95.8487 26.5956 96.2843 27.2017C96.7199 27.803 96.9471 28.4943 96.9661 29.2756H94.8496ZM99.617 44.0909V29.0909H101.691V30.8594H101.868C101.992 30.6321 102.169 30.3693 102.401 30.071C102.633 29.7727 102.955 29.5123 103.367 29.2898C103.779 29.0625 104.323 28.9489 105.001 28.9489C105.881 28.9489 106.667 29.1714 107.358 29.6165C108.05 30.0616 108.592 30.7031 108.985 31.5412C109.383 32.3793 109.581 33.3878 109.581 34.5668C109.581 35.7457 109.385 36.7566 108.992 37.5994C108.599 38.4375 108.059 39.0838 107.373 39.5384C106.686 39.9882 105.903 40.2131 105.022 40.2131C104.359 40.2131 103.817 40.1018 103.395 39.8793C102.979 39.6567 102.652 39.3963 102.415 39.098C102.179 38.7997 101.996 38.5346 101.868 38.3026H101.741V44.0909H99.617ZM101.698 34.5455C101.698 35.3125 101.809 35.9848 102.032 36.5625C102.254 37.1402 102.576 37.5923 102.998 37.919C103.419 38.241 103.935 38.402 104.546 38.402C105.18 38.402 105.711 38.2339 106.137 37.8977C106.563 37.5568 106.885 37.0952 107.103 36.5128C107.325 35.9304 107.437 35.2746 107.437 34.5455C107.437 33.8258 107.328 33.1795 107.11 32.6065C106.897 32.0336 106.575 31.5814 106.144 31.25C105.718 30.9186 105.185 30.7528 104.546 30.7528C103.93 30.7528 103.41 30.9115 102.983 31.2287C102.562 31.5459 102.242 31.9886 102.025 32.5568C101.807 33.125 101.698 33.7879 101.698 34.5455ZM115.135 40.2415C114.444 40.2415 113.819 40.1136 113.26 39.858C112.702 39.5975 112.259 39.2211 111.932 38.7287C111.61 38.2363 111.449 37.6326 111.449 36.9176C111.449 36.3021 111.568 35.7955 111.805 35.3977C112.041 35 112.361 34.6851 112.763 34.4531C113.166 34.2211 113.616 34.0459 114.113 33.9276C114.61 33.8092 115.117 33.7192 115.633 33.6577C116.286 33.5819 116.816 33.5204 117.224 33.473C117.631 33.4209 117.927 33.3381 118.111 33.2244C118.296 33.1108 118.388 32.9261 118.388 32.6705V32.6207C118.388 32.0005 118.213 31.5199 117.863 31.179C117.517 30.8381 117.001 30.6676 116.314 30.6676C115.599 30.6676 115.036 30.8262 114.624 31.1435C114.217 31.456 113.935 31.804 113.779 32.1875L111.783 31.733C112.02 31.0701 112.366 30.535 112.82 30.1278C113.279 29.7159 113.807 29.4176 114.404 29.233C115.001 29.0436 115.628 28.9489 116.286 28.9489C116.722 28.9489 117.183 29.0009 117.671 29.1051C118.163 29.2045 118.623 29.3892 119.049 29.6591C119.48 29.929 119.832 30.3149 120.107 30.8168C120.382 31.3139 120.519 31.9602 120.519 32.7557V40H118.445V38.5085H118.36C118.223 38.7831 118.017 39.053 117.742 39.3182C117.467 39.5833 117.115 39.8035 116.684 39.9787C116.253 40.1539 115.737 40.2415 115.135 40.2415ZM115.597 38.5369C116.184 38.5369 116.686 38.4209 117.103 38.1889C117.524 37.9569 117.844 37.6539 118.062 37.2798C118.284 36.901 118.395 36.4962 118.395 36.0653V34.6591C118.32 34.7348 118.173 34.8059 117.955 34.8722C117.742 34.9337 117.498 34.9882 117.224 35.0355C116.949 35.0781 116.681 35.1184 116.421 35.1562C116.161 35.1894 115.943 35.2178 115.768 35.2415C115.356 35.2936 114.979 35.3812 114.638 35.5043C114.302 35.6274 114.032 35.8049 113.829 36.0369C113.63 36.2642 113.53 36.5672 113.53 36.946C113.53 37.4716 113.724 37.8693 114.113 38.1392C114.501 38.4044 114.996 38.5369 115.597 38.5369ZM123.347 40V29.0909H125.4V30.8239H125.514C125.713 30.2367 126.063 29.7751 126.565 29.4389C127.071 29.098 127.644 28.9276 128.284 28.9276C128.416 28.9276 128.572 28.9323 128.752 28.9418C128.937 28.9512 129.081 28.9631 129.186 28.9773V31.0085C129.1 30.9848 128.949 30.9588 128.731 30.9304C128.513 30.8973 128.295 30.8807 128.078 30.8807C127.576 30.8807 127.128 30.9872 126.735 31.2003C126.347 31.4086 126.039 31.6998 125.812 32.0739C125.585 32.4432 125.471 32.8646 125.471 33.3381V40H123.347ZM132.976 36.2997L132.962 33.7074H133.331L137.678 29.0909H140.221L135.263 34.3466H134.93L132.976 36.2997ZM131.023 40V25.4545H133.147V40H131.023ZM137.912 40L134.006 34.8153L135.469 33.331L140.519 40H137.912ZM154.36 35.4759V29.0909H156.49V40H154.402V38.1108H154.289C154.038 38.6932 153.635 39.1785 153.081 39.5668C152.532 39.9503 151.848 40.142 151.029 40.142C150.328 40.142 149.708 39.9882 149.168 39.6804C148.633 39.3679 148.211 38.9062 147.904 38.2955C147.601 37.6847 147.449 36.9295 147.449 36.0298V29.0909H149.573V35.7741C149.573 36.5175 149.779 37.1094 150.191 37.5497C150.602 37.9901 151.137 38.2102 151.796 38.2102C152.193 38.2102 152.589 38.1108 152.982 37.9119C153.379 37.7131 153.709 37.4124 153.969 37.0099C154.234 36.6075 154.364 36.0961 154.36 35.4759ZM167.518 31.7543L165.594 32.0952C165.513 31.849 165.385 31.6146 165.21 31.392C165.04 31.1695 164.808 30.9872 164.514 30.8452C164.22 30.7031 163.854 30.6321 163.413 30.6321C162.812 30.6321 162.31 30.767 161.907 31.0369C161.505 31.3021 161.304 31.6454 161.304 32.0668C161.304 32.4313 161.439 32.7249 161.709 32.9474C161.979 33.17 162.414 33.3523 163.015 33.4943L164.748 33.892C165.752 34.1241 166.5 34.4815 166.993 34.9645C167.485 35.4474 167.731 36.0748 167.731 36.8466C167.731 37.5 167.542 38.0824 167.163 38.5938C166.789 39.1004 166.266 39.4981 165.594 39.7869C164.926 40.0758 164.152 40.2202 163.271 40.2202C162.05 40.2202 161.053 39.9598 160.281 39.4389C159.509 38.9134 159.036 38.1676 158.861 37.2017L160.913 36.8892C161.041 37.4242 161.304 37.8291 161.702 38.1037C162.099 38.3736 162.618 38.5085 163.257 38.5085C163.953 38.5085 164.509 38.3641 164.926 38.0753C165.343 37.7817 165.551 37.4242 165.551 37.0028C165.551 36.6619 165.423 36.3755 165.167 36.1435C164.916 35.9115 164.531 35.7363 164.01 35.6179L162.163 35.2131C161.145 34.9811 160.392 34.6117 159.905 34.1051C159.422 33.5985 159.18 32.9569 159.18 32.1804C159.18 31.5365 159.36 30.973 159.72 30.4901C160.08 30.0071 160.577 29.6307 161.211 29.3608C161.846 29.0862 162.573 28.9489 163.392 28.9489C164.571 28.9489 165.499 29.2045 166.176 29.7159C166.853 30.2225 167.3 30.902 167.518 31.7543ZM174.768 40.2202C173.693 40.2202 172.767 39.9905 171.991 39.5312C171.219 39.0672 170.623 38.4162 170.201 37.5781C169.785 36.7353 169.576 35.7481 169.576 34.6165C169.576 33.4991 169.785 32.5142 170.201 31.6619C170.623 30.8097 171.21 30.1444 171.963 29.6662C172.72 29.188 173.606 28.9489 174.619 28.9489C175.234 28.9489 175.831 29.0507 176.409 29.2543C176.986 29.4579 177.505 29.7775 177.964 30.2131C178.423 30.6487 178.785 31.2145 179.051 31.9105C179.316 32.6018 179.448 33.4422 179.448 34.4318V35.1847H170.776V33.5938H177.367C177.367 33.035 177.254 32.5402 177.026 32.1094C176.799 31.6738 176.48 31.3305 176.068 31.0795C175.66 30.8286 175.182 30.7031 174.633 30.7031C174.036 30.7031 173.516 30.8499 173.07 31.1435C172.63 31.4323 172.289 31.8111 172.048 32.2798C171.811 32.7438 171.693 33.2481 171.693 33.7926V35.0355C171.693 35.7647 171.82 36.3849 172.076 36.8963C172.337 37.4077 172.699 37.7983 173.163 38.0682C173.627 38.3333 174.169 38.4659 174.789 38.4659C175.192 38.4659 175.559 38.4091 175.89 38.2955C176.222 38.1771 176.508 38.0019 176.749 37.7699C176.991 37.5379 177.176 37.2514 177.303 36.9105L179.313 37.2727C179.152 37.8646 178.864 38.383 178.447 38.8281C178.035 39.2685 177.517 39.6117 176.892 39.858C176.271 40.0994 175.563 40.2202 174.768 40.2202ZM181.805 40V29.0909H183.857V30.8239H183.971C184.17 30.2367 184.52 29.7751 185.022 29.4389C185.528 29.098 186.101 28.9276 186.741 28.9276C186.873 28.9276 187.029 28.9323 187.209 28.9418C187.394 28.9512 187.538 28.9631 187.643 28.9773V31.0085C187.557 30.9848 187.406 30.9588 187.188 30.9304C186.97 30.8973 186.752 30.8807 186.535 30.8807C186.033 30.8807 185.585 30.9872 185.192 31.2003C184.804 31.4086 184.496 31.6998 184.269 32.0739C184.042 32.4432 183.928 32.8646 183.928 33.3381V40H181.805ZM197.655 31.7543L195.73 32.0952C195.65 31.849 195.522 31.6146 195.347 31.392C195.176 31.1695 194.944 30.9872 194.651 30.8452C194.357 30.7031 193.99 30.6321 193.55 30.6321C192.949 30.6321 192.447 30.767 192.044 31.0369C191.642 31.3021 191.441 31.6454 191.441 32.0668C191.441 32.4313 191.575 32.7249 191.845 32.9474C192.115 33.17 192.551 33.3523 193.152 33.4943L194.885 33.892C195.889 34.1241 196.637 34.4815 197.129 34.9645C197.622 35.4474 197.868 36.0748 197.868 36.8466C197.868 37.5 197.679 38.0824 197.3 38.5938C196.926 39.1004 196.403 39.4981 195.73 39.7869C195.063 40.0758 194.289 40.2202 193.408 40.2202C192.186 40.2202 191.19 39.9598 190.418 39.4389C189.646 38.9134 189.173 38.1676 188.997 37.2017L191.05 36.8892C191.178 37.4242 191.441 37.8291 191.838 38.1037C192.236 38.3736 192.754 38.5085 193.394 38.5085C194.09 38.5085 194.646 38.3641 195.063 38.0753C195.479 37.7817 195.688 37.4242 195.688 37.0028C195.688 36.6619 195.56 36.3755 195.304 36.1435C195.053 35.9115 194.667 35.7363 194.146 35.6179L192.3 35.2131C191.282 34.9811 190.529 34.6117 190.041 34.1051C189.558 33.5985 189.317 32.9569 189.317 32.1804C189.317 31.5365 189.497 30.973 189.857 30.4901C190.217 30.0071 190.714 29.6307 191.348 29.3608C191.983 29.0862 192.709 28.9489 193.529 28.9489C194.708 28.9489 195.636 29.2045 196.313 29.7159C196.99 30.2225 197.437 30.902 197.655 31.7543ZM202.881 25.4545L202.696 35.8168H200.729L200.544 25.4545H202.881ZM201.716 40.1349C201.323 40.1349 200.987 39.9976 200.707 39.723C200.428 39.4437 200.291 39.1075 200.295 38.7145C200.291 38.3262 200.428 37.9948 200.707 37.7202C200.987 37.4408 201.323 37.3011 201.716 37.3011C202.099 37.3011 202.431 37.4408 202.71 37.7202C202.989 37.9948 203.131 38.3262 203.136 38.7145C203.131 38.9749 203.063 39.214 202.93 39.4318C202.802 39.6449 202.632 39.8153 202.419 39.9432C202.206 40.071 201.971 40.1349 201.716 40.1349ZM31.6731 73.4545H34.166L37.9657 80.0668H38.122L41.9217 73.4545H44.4146L39.1376 82.2898V88H36.9501V82.2898L31.6731 73.4545ZM49.1145 88.2202C48.0918 88.2202 47.1993 87.9858 46.437 87.517C45.6747 87.0483 45.0828 86.3925 44.6614 85.5497C44.24 84.7069 44.0293 83.7221 44.0293 82.5952C44.0293 81.4635 44.24 80.474 44.6614 79.6264C45.0828 78.7789 45.6747 78.1207 46.437 77.652C47.1993 77.1832 48.0918 76.9489 49.1145 76.9489C50.1373 76.9489 51.0298 77.1832 51.7921 77.652C52.5544 78.1207 53.1462 78.7789 53.5676 79.6264C53.9891 80.474 54.1998 81.4635 54.1998 82.5952C54.1998 83.7221 53.9891 84.7069 53.5676 85.5497C53.1462 86.3925 52.5544 87.0483 51.7921 87.517C51.0298 87.9858 50.1373 88.2202 49.1145 88.2202ZM49.1216 86.4375C49.7845 86.4375 50.3337 86.2623 50.7694 85.9119C51.205 85.5616 51.5269 85.0952 51.7353 84.5128C51.9483 83.9304 52.0549 83.2888 52.0549 82.5881C52.0549 81.892 51.9483 81.2528 51.7353 80.6705C51.5269 80.0833 51.205 79.6122 50.7694 79.2571C50.3337 78.902 49.7845 78.7244 49.1216 78.7244C48.454 78.7244 47.9 78.902 47.4597 79.2571C47.0241 79.6122 46.6998 80.0833 46.4867 80.6705C46.2784 81.2528 46.1742 81.892 46.1742 82.5881C46.1742 83.2888 46.2784 83.9304 46.4867 84.5128C46.6998 85.0952 47.0241 85.5616 47.4597 85.9119C47.9 86.2623 48.454 86.4375 49.1216 86.4375ZM63.4806 83.4759V77.0909H65.6113V88H63.5233V86.1108H63.4096C63.1587 86.6932 62.7562 87.1785 62.2022 87.5668C61.653 87.9503 60.9688 88.142 60.1497 88.142C59.4489 88.142 58.8287 87.9882 58.2889 87.6804C57.7538 87.3679 57.3324 86.9062 57.0247 86.2955C56.7217 85.6847 56.5701 84.9295 56.5701 84.0298V77.0909H58.6937V83.7741C58.6937 84.5175 58.8997 85.1094 59.3116 85.5497C59.7235 85.9901 60.2586 86.2102 60.9167 86.2102C61.3145 86.2102 61.7098 86.1108 62.1028 85.9119C62.5005 85.7131 62.8296 85.4124 63.09 85.0099C63.3552 84.6075 63.4854 84.0961 63.4806 83.4759ZM68.4647 88V77.0909H70.5172V78.8239H70.6309C70.8297 78.2367 71.1801 77.7751 71.682 77.4389C72.1886 77.098 72.7615 76.9276 73.4007 76.9276C73.5333 76.9276 73.6896 76.9323 73.8695 76.9418C74.0542 76.9512 74.1986 76.9631 74.3027 76.9773V79.0085C74.2175 78.9848 74.066 78.9588 73.8482 78.9304C73.6304 78.8973 73.4126 78.8807 73.1948 78.8807C72.6929 78.8807 72.2454 78.9872 71.8525 79.2003C71.4642 79.4086 71.1564 79.6998 70.9292 80.0739C70.7019 80.4432 70.5882 80.8646 70.5882 81.3381V88H68.4647ZM86.3127 88H81.6039V73.4545H86.4618C87.887 73.4545 89.111 73.7457 90.1337 74.3281C91.1564 74.9058 91.94 75.7367 92.4846 76.821C93.0338 77.9006 93.3084 79.1955 93.3084 80.706C93.3084 82.2211 93.0314 83.5232 92.4775 84.6122C91.9282 85.7012 91.1328 86.5393 90.0911 87.1264C89.0494 87.7088 87.79 88 86.3127 88ZM83.7985 86.0824H86.1919C87.2999 86.0824 88.2208 85.8741 88.9547 85.4574C89.6886 85.036 90.2379 84.4276 90.6025 83.6321C90.967 82.8319 91.1493 81.8565 91.1493 80.706C91.1493 79.5649 90.967 78.5966 90.6025 77.8011C90.2426 77.0057 89.7052 76.402 88.9902 75.9901C88.2753 75.5781 87.3875 75.3722 86.3269 75.3722H83.7985V86.0824ZM95.867 88V77.0909H97.9906V88H95.867ZM96.9395 75.4077C96.5701 75.4077 96.2529 75.2846 95.9877 75.0384C95.7273 74.7874 95.5971 74.4891 95.5971 74.1435C95.5971 73.7931 95.7273 73.4948 95.9877 73.2486C96.2529 72.9976 96.5701 72.8722 96.9395 72.8722C97.3088 72.8722 97.6236 72.9976 97.8841 73.2486C98.1492 73.4948 98.2818 73.7931 98.2818 74.1435C98.2818 74.4891 98.1492 74.7874 97.8841 75.0384C97.6236 75.2846 97.3088 75.4077 96.9395 75.4077ZM109.022 79.7543L107.097 80.0952C107.017 79.849 106.889 79.6146 106.714 79.392C106.544 79.1695 106.311 78.9872 106.018 78.8452C105.724 78.7031 105.357 78.6321 104.917 78.6321C104.316 78.6321 103.814 78.767 103.411 79.0369C103.009 79.3021 102.808 79.6454 102.808 80.0668C102.808 80.4313 102.943 80.7249 103.213 80.9474C103.482 81.17 103.918 81.3523 104.519 81.4943L106.252 81.892C107.256 82.1241 108.004 82.4815 108.497 82.9645C108.989 83.4474 109.235 84.0748 109.235 84.8466C109.235 85.5 109.046 86.0824 108.667 86.5938C108.293 87.1004 107.77 87.4981 107.097 87.7869C106.43 88.0758 105.656 88.2202 104.775 88.2202C103.553 88.2202 102.557 87.9598 101.785 87.4389C101.013 86.9134 100.54 86.1676 100.365 85.2017L102.417 84.8892C102.545 85.4242 102.808 85.8291 103.205 86.1037C103.603 86.3736 104.122 86.5085 104.761 86.5085C105.457 86.5085 106.013 86.3641 106.43 86.0753C106.847 85.7817 107.055 85.4242 107.055 85.0028C107.055 84.6619 106.927 84.3755 106.671 84.1435C106.42 83.9115 106.035 83.7363 105.514 83.6179L103.667 83.2131C102.649 82.9811 101.896 82.6117 101.409 82.1051C100.926 81.5985 100.684 80.9569 100.684 80.1804C100.684 79.5365 100.864 78.973 101.224 78.4901C101.584 78.0071 102.081 77.6307 102.715 77.3608C103.35 77.0862 104.077 76.9489 104.896 76.9489C106.075 76.9489 107.003 77.2045 107.68 77.7159C108.357 78.2225 108.804 78.902 109.022 79.7543ZM116.165 88.2202C115.109 88.2202 114.2 87.9811 113.438 87.5028C112.68 87.0199 112.098 86.3546 111.691 85.5071C111.284 84.6596 111.08 83.6889 111.08 82.5952C111.08 81.4872 111.288 80.5095 111.705 79.6619C112.122 78.8097 112.709 78.1444 113.466 77.6662C114.224 77.188 115.117 76.9489 116.144 76.9489C116.973 76.9489 117.711 77.1027 118.36 77.4105C119.009 77.7135 119.532 78.1397 119.93 78.6889C120.332 79.2382 120.571 79.8797 120.647 80.6136H118.58C118.466 80.1023 118.206 79.6619 117.799 79.2926C117.396 78.9233 116.857 78.7386 116.18 78.7386C115.588 78.7386 115.069 78.8949 114.624 79.2074C114.184 79.5152 113.84 79.9555 113.594 80.5284C113.348 81.0966 113.225 81.7689 113.225 82.5455C113.225 83.3409 113.346 84.0275 113.587 84.6051C113.829 85.1828 114.17 85.6302 114.61 85.9474C115.055 86.2647 115.578 86.4233 116.18 86.4233C116.582 86.4233 116.947 86.3499 117.273 86.2031C117.605 86.0516 117.882 85.8362 118.104 85.5568C118.331 85.2775 118.49 84.9413 118.58 84.5483H120.647C120.571 85.2538 120.341 85.8835 119.958 86.4375C119.574 86.9915 119.061 87.4271 118.417 87.7443C117.778 88.0616 117.027 88.2202 116.165 88.2202ZM127.513 88.2202C126.49 88.2202 125.598 87.9858 124.835 87.517C124.073 87.0483 123.481 86.3925 123.06 85.5497C122.638 84.7069 122.428 83.7221 122.428 82.5952C122.428 81.4635 122.638 80.474 123.06 79.6264C123.481 78.7789 124.073 78.1207 124.835 77.652C125.598 77.1832 126.49 76.9489 127.513 76.9489C128.536 76.9489 129.428 77.1832 130.191 77.652C130.953 78.1207 131.545 78.7789 131.966 79.6264C132.387 80.474 132.598 81.4635 132.598 82.5952C132.598 83.7221 132.387 84.7069 131.966 85.5497C131.545 86.3925 130.953 87.0483 130.191 87.517C129.428 87.9858 128.536 88.2202 127.513 88.2202ZM127.52 86.4375C128.183 86.4375 128.732 86.2623 129.168 85.9119C129.603 85.5616 129.925 85.0952 130.134 84.5128C130.347 83.9304 130.453 83.2888 130.453 82.5881C130.453 81.892 130.347 81.2528 130.134 80.6705C129.925 80.0833 129.603 79.6122 129.168 79.2571C128.732 78.902 128.183 78.7244 127.52 78.7244C126.852 78.7244 126.298 78.902 125.858 79.2571C125.423 79.6122 125.098 80.0833 124.885 80.6705C124.677 81.2528 124.573 81.892 124.573 82.5881C124.573 83.2888 124.677 83.9304 124.885 84.5128C125.098 85.0952 125.423 85.5616 125.858 85.9119C126.298 86.2623 126.852 86.4375 127.52 86.4375ZM141.879 83.4759V77.0909H144.01V88H141.922V86.1108H141.808C141.557 86.6932 141.155 87.1785 140.601 87.5668C140.051 87.9503 139.367 88.142 138.548 88.142C137.847 88.142 137.227 87.9882 136.687 87.6804C136.152 87.3679 135.731 86.9062 135.423 86.2955C135.12 85.6847 134.969 84.9295 134.969 84.0298V77.0909H137.092V83.7741C137.092 84.5175 137.298 85.1094 137.71 85.5497C138.122 85.9901 138.657 86.2102 139.315 86.2102C139.713 86.2102 140.108 86.1108 140.501 85.9119C140.899 85.7131 141.228 85.4124 141.488 85.0099C141.754 84.6075 141.884 84.0961 141.879 83.4759ZM148.987 81.5227V88H146.863V77.0909H148.901V78.8665H149.036C149.287 78.2888 149.68 77.8248 150.215 77.4744C150.755 77.1241 151.435 76.9489 152.254 76.9489C152.997 76.9489 153.648 77.1051 154.207 77.4176C154.766 77.7254 155.199 78.1847 155.507 78.7955C155.814 79.4062 155.968 80.1615 155.968 81.0611V88H153.845V81.3168C153.845 80.526 153.639 79.9081 153.227 79.4631C152.815 79.0133 152.249 78.7884 151.529 78.7884C151.037 78.7884 150.599 78.8949 150.215 79.108C149.837 79.321 149.536 79.6335 149.313 80.0455C149.096 80.4527 148.987 80.9451 148.987 81.5227ZM163.909 77.0909V78.7955H157.95V77.0909H163.909ZM159.548 74.4773H161.671V84.7969C161.671 85.2088 161.733 85.5189 161.856 85.7273C161.979 85.9309 162.138 86.0705 162.332 86.1463C162.531 86.2173 162.746 86.2528 162.978 86.2528C163.149 86.2528 163.298 86.241 163.426 86.2173C163.553 86.1937 163.653 86.1747 163.724 86.1605L164.107 87.9148C163.984 87.9621 163.809 88.0095 163.582 88.0568C163.355 88.1089 163.07 88.1373 162.73 88.142C162.171 88.1515 161.65 88.0521 161.167 87.8438C160.684 87.6354 160.294 87.3134 159.995 86.8778C159.697 86.4422 159.548 85.8954 159.548 85.2372V74.4773ZM183.802 78.1847H181.586C181.501 77.7112 181.342 77.2945 181.11 76.9347C180.878 76.5748 180.594 76.2694 180.258 76.0185C179.922 75.7675 179.545 75.5781 179.129 75.4503C178.717 75.3224 178.279 75.2585 177.815 75.2585C176.977 75.2585 176.226 75.4692 175.563 75.8906C174.905 76.312 174.384 76.9299 174.001 77.7443C173.622 78.5587 173.433 79.553 173.433 80.7273C173.433 81.911 173.622 82.91 174.001 83.7244C174.384 84.5388 174.908 85.1544 175.57 85.571C176.233 85.9877 176.979 86.196 177.808 86.196C178.267 86.196 178.703 86.1345 179.115 86.0114C179.531 85.8835 179.908 85.6965 180.244 85.4503C180.58 85.2041 180.864 84.9034 181.096 84.5483C181.333 84.1884 181.496 83.7765 181.586 83.3125L183.802 83.3196C183.684 84.0346 183.454 84.6927 183.113 85.294C182.777 85.8906 182.344 86.4067 181.813 86.8423C181.288 87.2732 180.686 87.607 180.009 87.8438C179.332 88.0805 178.594 88.1989 177.794 88.1989C176.534 88.1989 175.412 87.9006 174.427 87.304C173.442 86.7027 172.666 85.8433 172.097 84.7259C171.534 83.6084 171.252 82.2756 171.252 80.7273C171.252 79.1742 171.536 77.8414 172.105 76.7287C172.673 75.6113 173.449 74.7543 174.434 74.1577C175.419 73.5563 176.539 73.2557 177.794 73.2557C178.565 73.2557 179.285 73.367 179.953 73.5895C180.625 73.8073 181.229 74.1293 181.764 74.5554C182.299 74.9768 182.741 75.4929 183.092 76.1037C183.442 76.7098 183.679 77.4034 183.802 78.1847ZM190.853 88.2202C189.83 88.2202 188.938 87.9858 188.175 87.517C187.413 87.0483 186.821 86.3925 186.4 85.5497C185.978 84.7069 185.768 83.7221 185.768 82.5952C185.768 81.4635 185.978 80.474 186.4 79.6264C186.821 78.7789 187.413 78.1207 188.175 77.652C188.938 77.1832 189.83 76.9489 190.853 76.9489C191.876 76.9489 192.768 77.1832 193.53 77.652C194.293 78.1207 194.885 78.7789 195.306 79.6264C195.727 80.474 195.938 81.4635 195.938 82.5952C195.938 83.7221 195.727 84.7069 195.306 85.5497C194.885 86.3925 194.293 87.0483 193.53 87.517C192.768 87.9858 191.876 88.2202 190.853 88.2202ZM190.86 86.4375C191.523 86.4375 192.072 86.2623 192.508 85.9119C192.943 85.5616 193.265 85.0952 193.474 84.5128C193.687 83.9304 193.793 83.2888 193.793 82.5881C193.793 81.892 193.687 81.2528 193.474 80.6705C193.265 80.0833 192.943 79.6122 192.508 79.2571C192.072 78.902 191.523 78.7244 190.86 78.7244C190.192 78.7244 189.638 78.902 189.198 79.2571C188.762 79.6122 188.438 80.0833 188.225 80.6705C188.017 81.2528 187.912 81.892 187.912 82.5881C187.912 83.2888 188.017 83.9304 188.225 84.5128C188.438 85.0952 188.762 85.5616 189.198 85.9119C189.638 86.2623 190.192 86.4375 190.86 86.4375ZM202.392 88.2131C201.512 88.2131 200.726 87.9882 200.034 87.5384C199.348 87.0838 198.808 86.4375 198.415 85.5994C198.027 84.7566 197.833 83.7457 197.833 82.5668C197.833 81.3878 198.029 80.3793 198.422 79.5412C198.82 78.7031 199.364 78.0616 200.056 77.6165C200.747 77.1714 201.53 76.9489 202.406 76.9489C203.084 76.9489 203.628 77.0625 204.04 77.2898C204.457 77.5123 204.779 77.7727 205.006 78.071C205.238 78.3693 205.418 78.6321 205.546 78.8594H205.673V73.4545H207.797V88H205.723V86.3026H205.546C205.418 86.5346 205.233 86.7997 204.992 87.098C204.755 87.3963 204.428 87.6567 204.012 87.8793C203.595 88.1018 203.055 88.2131 202.392 88.2131ZM202.861 86.402C203.472 86.402 203.988 86.241 204.409 85.919C204.835 85.5923 205.157 85.1402 205.375 84.5625C205.598 83.9848 205.709 83.3125 205.709 82.5455C205.709 81.7879 205.6 81.125 205.382 80.5568C205.164 79.9886 204.845 79.5459 204.423 79.2287C204.002 78.9115 203.481 78.7528 202.861 78.7528C202.222 78.7528 201.689 78.9186 201.263 79.25C200.837 79.5814 200.515 80.0336 200.297 80.6065C200.084 81.1795 199.977 81.8258 199.977 82.5455C199.977 83.2746 200.086 83.9304 200.304 84.5128C200.522 85.0952 200.844 85.5568 201.27 85.8977C201.701 86.2339 202.231 86.402 202.861 86.402ZM215.53 88.2202C214.455 88.2202 213.529 87.9905 212.753 87.5312C211.981 87.0672 211.384 86.4162 210.963 85.5781C210.546 84.7353 210.338 83.7481 210.338 82.6165C210.338 81.4991 210.546 80.5142 210.963 79.6619C211.384 78.8097 211.971 78.1444 212.724 77.6662C213.482 77.188 214.367 76.9489 215.381 76.9489C215.996 76.9489 216.593 77.0507 217.17 77.2543C217.748 77.4579 218.266 77.7775 218.726 78.2131C219.185 78.6487 219.547 79.2145 219.812 79.9105C220.077 80.6018 220.21 81.4422 220.21 82.4318V83.1847H211.538V81.5938H218.129C218.129 81.035 218.015 80.5402 217.788 80.1094C217.561 79.6738 217.241 79.3305 216.829 79.0795C216.422 78.8286 215.944 78.7031 215.395 78.7031C214.798 78.7031 214.277 78.8499 213.832 79.1435C213.392 79.4323 213.051 79.8111 212.809 80.2798C212.573 80.7438 212.454 81.2481 212.454 81.7926V83.0355C212.454 83.7647 212.582 84.3849 212.838 84.8963C213.098 85.4077 213.461 85.7983 213.925 86.0682C214.389 86.3333 214.931 86.4659 215.551 86.4659C215.953 86.4659 216.32 86.4091 216.652 86.2955C216.983 86.1771 217.27 86.0019 217.511 85.7699C217.753 85.5379 217.937 85.2514 218.065 84.9105L220.075 85.2727C219.914 85.8646 219.625 86.383 219.209 86.8281C218.797 87.2685 218.278 87.6117 217.653 87.858C217.033 88.0994 216.325 88.2202 215.53 88.2202ZM223.965 88.1349C223.577 88.1349 223.243 87.9976 222.964 87.723C222.685 87.4437 222.545 87.1075 222.545 86.7145C222.545 86.3262 222.685 85.9948 222.964 85.7202C223.243 85.4408 223.577 85.3011 223.965 85.3011C224.354 85.3011 224.687 85.4408 224.967 85.7202C225.246 85.9948 225.386 86.3262 225.386 86.7145C225.386 86.9749 225.32 87.214 225.187 87.4318C225.059 87.6449 224.889 87.8153 224.676 87.9432C224.463 88.071 224.226 88.1349 223.965 88.1349ZM223.965 80.1946C223.577 80.1946 223.243 80.0549 222.964 79.7756C222.685 79.4962 222.545 79.1624 222.545 78.7741C222.545 78.3859 222.685 78.0545 222.964 77.7798C223.243 77.5005 223.577 77.3608 223.965 77.3608C224.354 77.3608 224.687 77.5005 224.967 77.7798C225.246 78.0545 225.386 78.3859 225.386 78.7741C225.386 79.0346 225.32 79.2737 225.187 79.4915C225.059 79.7045 224.889 79.875 224.676 80.0028C224.463 80.1307 224.226 80.1946 223.965 80.1946Z" fill="black"/>
</svg>
