<svg width="113" height="123" viewBox="0 0 113 123" fill="none" xmlns="http://www.w3.org/2000/svg">
<g clip-path="url(#clip0_234_1804)">
<path d="M98.8706 59.0073C93.2206 50.3573 89.2806 44.2473 85.0906 37.7773C82.8906 34.3673 80.6106 30.8473 77.6506 26.2973L76.3506 27.1473C75.881 27.4407 75.3325 27.5827 74.7795 27.5539C74.2265 27.5252 73.6958 27.3271 73.2591 26.9865C72.8225 26.646 72.5012 26.1794 72.3386 25.6501C72.1761 25.1207 72.1803 24.5542 72.3506 24.0273C72.5389 23.4503 72.9203 22.9559 73.4306 22.6273L74.7406 21.7673C71.7406 17.0873 67.9706 11.3773 63.1506 3.99728C63.0541 3.85561 62.9076 3.7556 62.7406 3.71728C62.5717 3.68711 62.3977 3.71908 62.2506 3.80728L60.0006 5.23728C60.7051 7.06972 60.8615 9.06754 60.4506 10.9873C59.9007 13.6238 58.3342 15.9375 56.0906 17.4273L56.0206 17.4873C54.0812 18.7402 51.7775 19.306 49.4783 19.0938C47.1792 18.8817 45.0179 17.9039 43.3406 16.3173L41.0006 17.7773C41.6692 19.5511 41.8353 21.4751 41.4806 23.3373C41.2276 24.6724 40.7085 25.9431 39.9544 27.0735C39.2002 28.2039 38.2262 29.171 37.0906 29.9173L36.7206 30.1573C34.4618 31.5674 31.7371 32.0275 29.1406 31.4373C27.2543 31.0165 25.5228 30.0781 24.1406 28.7273L21.2106 30.6373C21.0879 30.7314 21.0028 30.8661 20.9706 31.0173C20.9262 31.1538 20.9262 31.3008 20.9706 31.4373L21.0706 31.5973C25.7706 38.7873 29.4606 44.5273 32.5406 49.3173H32.6206L37.1406 46.3173C37.6102 46.0238 38.1586 45.8819 38.7116 45.9106C39.2646 45.9394 39.7954 46.1375 40.232 46.478C40.6686 46.8186 40.99 47.2852 41.1525 47.8145C41.315 48.3439 41.3108 48.9104 41.1406 49.4373C40.9452 50.0105 40.5654 50.5028 40.0606 50.8373L35.5406 53.7873L35.4206 53.8573C36.5506 55.6273 37.6406 57.3173 38.7706 59.0473L98.8706 59.0073ZM33.1906 59.0073L29.3406 53.0073C26.2406 48.1773 22.4906 42.3373 17.0906 34.0673C16.3054 32.866 16.0277 31.4029 16.3182 29.9975C16.6086 28.5921 17.4436 27.3589 18.6406 26.5673C19.9006 25.7273 22.1306 24.0973 23.3806 23.4673C23.9165 23.126 24.566 23.0112 25.1865 23.1481C25.807 23.2849 26.3479 23.6622 26.6906 24.1973V24.2573C27.4771 25.4989 28.7195 26.3822 30.1506 26.7173C31.5202 27.0265 32.9565 26.7859 34.1506 26.0473L34.4006 25.8873C34.9964 25.4932 35.5076 24.9842 35.9042 24.3901C36.3009 23.7959 36.575 23.1287 36.7106 22.4273C36.9786 20.9847 36.6698 19.4945 35.8506 18.2773L35.7606 18.1273C35.431 17.5857 35.3292 16.9358 35.4772 16.3194C35.6252 15.703 36.0111 15.1702 36.5506 14.8373L42.5006 11.1873C42.7635 11.0136 43.0583 10.8936 43.3678 10.8343C43.6773 10.7749 43.9956 10.7774 44.3041 10.8415C44.6127 10.9057 44.9055 11.0302 45.1658 11.2079C45.426 11.3857 45.6486 11.6132 45.8206 11.8773C46.2114 12.4808 46.7179 13.0009 47.3107 13.4078C47.9035 13.8147 48.5709 14.1003 49.2746 14.2481C49.9782 14.3959 50.7042 14.403 51.4106 14.269C52.117 14.135 52.7899 13.8625 53.3906 13.4673H53.4506C54.6412 12.6698 55.4736 11.4392 55.7706 10.0373C56.0554 8.6559 55.7822 7.21792 55.0106 6.03728L54.8606 5.81728C54.5133 5.28413 54.392 4.63493 54.5233 4.01237C54.6546 3.38981 55.0276 2.84485 55.5606 2.49728L59.5606 -0.12272C60.7686 -0.906049 62.2374 -1.17956 63.6464 -0.883527C65.0554 -0.587493 66.29 0.254035 67.0806 1.45728C78.0006 17.9173 83.7306 26.9173 89.1106 35.1773C93.1106 41.4373 96.9406 47.2873 104.601 59.0073H105.231C106.673 59.0099 108.057 59.5836 109.078 60.6029C110.099 61.6223 110.675 63.0044 110.681 64.4473V70.0573C110.678 70.693 110.424 71.3019 109.975 71.7514C109.525 72.2009 108.916 72.4547 108.281 72.4573H108.001C107.3 72.4567 106.605 72.5951 105.958 72.8646C105.311 73.1341 104.724 73.5293 104.231 74.0273C103.211 75.0425 102.633 76.4186 102.621 77.8573V77.9973C102.618 78.7134 102.761 79.4227 103.039 80.0825C103.317 80.7424 103.726 81.3392 104.241 81.8373L104.351 81.9473C105.402 82.8966 106.774 83.4144 108.191 83.3973H108.291C108.924 83.3973 109.531 83.6474 109.981 84.0931C110.43 84.5389 110.685 85.1442 110.691 85.7773V95.7773C110.691 96.4138 110.438 97.0242 109.988 97.4743C109.538 97.9244 108.927 98.1773 108.291 98.1773H108.191C106.727 98.1689 105.316 98.7239 104.251 99.7273C103.735 100.225 103.324 100.822 103.042 101.481C102.76 102.141 102.614 102.85 102.611 103.567V103.717C102.625 105.156 103.203 106.531 104.221 107.547C104.714 108.046 105.301 108.443 105.948 108.714C106.595 108.985 107.289 109.125 107.991 109.127H108.271C108.584 109.125 108.896 109.184 109.187 109.302C109.478 109.419 109.743 109.593 109.966 109.813C110.19 110.033 110.368 110.295 110.491 110.584C110.614 110.873 110.678 111.183 110.681 111.497V116.277C110.675 117.72 110.099 119.102 109.078 120.122C108.057 121.141 106.673 121.715 105.231 121.717H3.44056C2.01311 121.712 0.644368 121.148 -0.372452 120.147C-1.38927 119.145 -1.9733 117.785 -1.99944 116.357V111.577C-1.99944 111.262 -1.93736 110.95 -1.81675 110.659C-1.69614 110.368 -1.51935 110.103 -1.29649 109.88C-1.07363 109.657 -0.809059 109.481 -0.517877 109.36C-0.226696 109.239 0.0853907 109.177 0.400563 109.177H0.700563C1.40156 109.178 2.09572 109.039 2.74285 108.77C3.38998 108.5 3.97722 108.105 4.47056 107.607C5.48286 106.587 6.06 105.214 6.08056 103.777V103.707C6.08189 102.988 5.94097 102.275 5.66592 101.61C5.39087 100.945 4.98711 100.341 4.47785 99.8329C3.96859 99.3246 3.36387 98.9219 2.69847 98.6481C2.03307 98.3743 1.3201 98.2346 0.600563 98.2373C-0.0359565 98.2373 -0.646406 97.9844 -1.09649 97.5343C-1.54658 97.0843 -1.79944 96.4738 -1.79944 95.8373V95.6773L-1.99944 85.8373C-2.00607 85.5234 -1.9508 85.2113 -1.83678 84.9188C-1.72277 84.6263 -1.55224 84.3591 -1.33493 84.1325C-1.11763 83.9059 -0.857816 83.7244 -0.570329 83.5982C-0.282842 83.4721 0.026683 83.4038 0.340563 83.3973H0.500563C1.98404 83.4271 3.42009 82.8742 4.50056 81.8573C5.01332 81.3578 5.42084 80.7607 5.69908 80.1012C5.97731 79.4417 6.12063 78.7331 6.12056 78.0173V77.8573C6.11873 77.1432 5.97452 76.4367 5.69635 75.7791C5.41819 75.1215 5.01166 74.5259 4.50056 74.0273L4.35056 73.9173C3.295 72.9662 1.92133 72.4453 0.500563 72.4573H0.230563C-0.376031 72.419 -0.944988 72.1501 -1.35964 71.7057C-1.77428 71.2613 -2.0032 70.6751 -1.99944 70.0673V64.4473C-1.99417 63.0061 -1.41933 61.6255 -0.400277 60.6064C0.618781 59.5874 1.99941 59.0125 3.44056 59.0073H33.1906ZM105.231 63.8073H27.2306V67.4073C27.2404 67.5104 27.2404 67.6142 27.2306 67.7173C27.1895 68.2782 26.9272 68.7998 26.5015 69.1674C26.0758 69.535 25.5215 69.7184 24.9606 69.6773C24.3996 69.6362 23.878 69.3739 23.5104 68.9482C23.1429 68.5225 22.9595 67.9682 23.0006 67.4073V63.8073H3.44056C3.27134 63.8086 3.10954 63.8769 2.99056 63.9973C2.87368 64.1186 2.80598 64.2789 2.80056 64.4473V67.9173C4.60725 68.3151 6.27478 69.1886 7.63056 70.4473L7.78056 70.5773C8.75162 71.5192 9.52438 72.6459 10.0533 73.891C10.5823 75.1361 10.8568 76.4745 10.8606 77.8273V78.0673C10.8554 79.4184 10.5803 80.7549 10.0514 81.9982C9.52248 83.2415 8.75041 84.3666 7.78056 85.3073C6.40399 86.6133 4.69518 87.5161 2.84056 87.9173L3.00056 93.7073C5.25561 94.2355 7.2656 95.5112 8.70357 97.3268C10.1416 99.1424 10.9229 101.391 10.9206 103.707C10.9206 103.707 10.9206 103.807 10.9206 103.827C10.8963 106.15 10.0864 108.395 8.62277 110.198C7.15919 112.001 5.12817 113.256 2.86056 113.757V116.357C2.86314 116.526 2.9314 116.688 3.05087 116.807C3.17034 116.926 3.33163 116.995 3.50056 116.997H23.0006V113.617C22.9902 113.518 22.9902 113.417 23.0006 113.317C23.0739 112.79 23.3451 112.309 23.7592 111.974C24.1733 111.639 24.6994 111.473 25.2309 111.512C25.7624 111.55 26.2595 111.788 26.6215 112.179C26.9835 112.57 27.1834 113.084 27.1806 113.617V116.997H105.181C105.35 116.992 105.511 116.924 105.631 116.805C105.752 116.686 105.823 116.526 105.831 116.357V113.747C103.908 113.336 102.146 112.373 100.761 110.977C98.8701 109.074 97.7942 106.51 97.7606 103.827V103.587C97.7706 102.237 98.0489 100.903 98.5794 99.6619C99.1099 98.4207 99.8819 97.2974 100.851 96.3573C102.238 95.0243 103.97 94.1033 105.851 93.6973V87.9173C104.043 87.5274 102.374 86.6568 101.021 85.3973L100.871 85.2673C99.9012 84.3257 99.1287 83.2007 98.5982 81.9577C98.0677 80.7148 97.7898 79.3787 97.7806 78.0273V77.7773C97.8184 75.0957 98.8936 72.533 100.781 70.6273C102.182 69.2487 103.954 68.3072 105.881 67.9173V64.4473C105.875 64.2769 105.804 64.1152 105.681 63.9973C105.623 63.9358 105.553 63.8871 105.476 63.8544C105.398 63.8217 105.315 63.8056 105.231 63.8073ZM23.0006 80.0073C22.9951 80.5411 23.193 81.0569 23.5542 81.45C23.9155 81.843 24.4128 82.0837 24.9451 82.1232C25.4775 82.1627 26.0049 81.9979 26.4201 81.6625C26.8354 81.327 27.1073 80.846 27.1806 80.3173C27.1909 80.2142 27.1909 80.1104 27.1806 80.0073V75.8073C27.1834 75.2744 26.9835 74.7605 26.6215 74.3695C26.2595 73.9785 25.7624 73.7397 25.2309 73.7016C24.6994 73.6635 24.1733 73.8288 23.7592 74.164C23.3451 74.4993 23.0739 74.9795 23.0006 75.5073C22.9902 75.607 22.9902 75.7076 23.0006 75.8073V80.0073ZM23.0006 92.6173C22.9978 93.1501 23.1976 93.6641 23.5596 94.0551C23.9216 94.4461 24.4187 94.6848 24.9502 94.723C25.4817 94.7611 26.0078 94.5958 26.4219 94.2605C26.8361 93.9252 27.1073 93.4451 27.1806 92.9173C27.1909 92.8176 27.1909 92.717 27.1806 92.6173V88.4173C27.1861 87.8835 26.9881 87.3677 26.6269 86.9746C26.2657 86.5816 25.7683 86.3408 25.236 86.3014C24.7036 86.2619 24.1762 86.4266 23.761 86.7621C23.3458 87.0975 23.0739 87.5785 23.0006 88.1073C22.9902 88.2104 22.9902 88.3142 23.0006 88.4173V92.6173ZM23.0006 105.217C22.9951 105.751 23.193 106.267 23.5542 106.66C23.9155 107.053 24.4128 107.294 24.9451 107.333C25.4775 107.373 26.0049 107.208 26.4201 106.872C26.8354 106.537 27.1073 106.056 27.1806 105.527C27.1904 105.424 27.1904 105.32 27.1806 105.217V101.017C27.1861 100.483 26.9881 99.9677 26.6269 99.5746C26.2657 99.1816 25.7683 98.9408 25.236 98.9014C24.7036 98.8619 24.1762 99.0266 23.761 99.3621C23.3458 99.6975 23.0739 100.179 23.0006 100.707C22.9907 100.81 22.9907 100.914 23.0006 101.017V105.217ZM53.7506 41.9173C54.2526 41.5842 54.6319 41.0961 54.8306 40.5273C55.0039 39.9998 55.0104 39.4316 54.8491 38.9003C54.6879 38.3689 54.3667 37.9002 53.9294 37.558C53.4921 37.2158 52.9599 37.0168 52.4054 36.988C51.8508 36.9593 51.3009 37.1022 50.8306 37.3973L46.3106 40.3973C45.7112 40.7951 45.2944 41.4147 45.1518 42.1199C45.0093 42.825 45.1527 43.5579 45.5506 44.1573C45.9484 44.7567 46.568 45.1735 47.2732 45.316C47.9783 45.4585 48.7112 45.3151 49.3106 44.9173L53.8306 41.9173H53.7506ZM67.3106 33.0473C67.8201 32.7224 68.2016 32.2313 68.3906 31.6573C68.5639 31.1298 68.5704 30.5616 68.4091 30.0303C68.2479 29.4989 67.9267 29.0302 67.4894 28.688C67.0521 28.3458 66.5199 28.1468 65.9654 28.118C65.4108 28.0893 64.8609 28.2322 64.3906 28.5273L59.8606 31.5273C59.3473 31.8554 58.957 32.3441 58.7506 32.9173C58.5772 33.4448 58.5707 34.0129 58.732 34.5443C58.8933 35.0756 59.2144 35.5443 59.6517 35.8865C60.0891 36.2287 60.6212 36.4278 61.1758 36.4565C61.7303 36.4853 62.2802 36.3424 62.7506 36.0473L67.2706 33.0473H67.3106Z" fill="black"/>
<path d="M52.5501 83.4545V98H49.4748V86.3736H49.3896L46.0586 88.4616V85.7344L49.6594 83.4545H52.5501ZM61.7102 98.3196C60.4886 98.3149 59.4375 98.0142 58.5568 97.4176C57.6809 96.821 57.0062 95.9569 56.5327 94.8253C56.0639 93.6937 55.8319 92.3324 55.8366 90.7415C55.8366 89.1553 56.071 87.8035 56.5398 86.6861C57.0133 85.5687 57.688 84.7187 58.5639 84.1364C59.4446 83.5492 60.4934 83.2557 61.7102 83.2557C62.9271 83.2557 63.9735 83.5492 64.8494 84.1364C65.7301 84.7235 66.4072 85.5758 66.8807 86.6932C67.3542 87.8059 67.5885 89.1553 67.5838 90.7415C67.5838 92.3371 67.3471 93.7008 66.8736 94.8324C66.4048 95.964 65.7325 96.8281 64.8565 97.4247C63.9806 98.0213 62.9318 98.3196 61.7102 98.3196ZM61.7102 95.7699C62.5436 95.7699 63.2088 95.3509 63.706 94.5128C64.2031 93.6747 64.4493 92.4176 64.4446 90.7415C64.4446 89.6383 64.331 88.7197 64.1037 87.9858C63.8812 87.2519 63.5639 86.7003 63.152 86.331C62.7448 85.9616 62.2642 85.777 61.7102 85.777C60.8816 85.777 60.2188 86.1913 59.7216 87.0199C59.2244 87.8485 58.9735 89.089 58.9688 90.7415C58.9688 91.8589 59.08 92.7917 59.3026 93.5398C59.5298 94.2831 59.8494 94.8419 60.2614 95.2159C60.6733 95.5852 61.1562 95.7699 61.7102 95.7699ZM84.0078 88.4616L83.3047 90.017H73.8089L74.3842 88.4616H84.0078ZM82.6513 91.4375L81.8771 93.0284H73.8089L74.3842 91.4375H82.6513ZM85.8544 84.5767L84.718 87.0057C84.5286 86.8731 84.299 86.7287 84.0291 86.5724C83.764 86.4115 83.4586 86.2765 83.1129 86.1676C82.772 86.054 82.3932 85.9972 81.9766 85.9972C81.3184 85.9972 80.7455 86.1629 80.2578 86.4943C79.7701 86.8258 79.3913 87.3419 79.1214 88.0426C78.8563 88.7434 78.7237 89.643 78.7237 90.7415C78.7237 91.8494 78.8563 92.7514 79.1214 93.4474C79.3913 94.1387 79.7701 94.6477 80.2578 94.9744C80.7455 95.2964 81.3184 95.4574 81.9766 95.4574C82.3932 95.4574 82.772 95.4029 83.1129 95.294C83.4538 95.1851 83.7521 95.0549 84.0078 94.9034C84.2682 94.7519 84.486 94.6122 84.6612 94.4844L85.8118 96.9134C85.2957 97.3395 84.7109 97.6615 84.0575 97.8793C83.4041 98.0923 82.7105 98.1989 81.9766 98.1989C80.736 98.1989 79.6375 97.9053 78.6811 97.3182C77.7294 96.7263 76.9837 95.8764 76.4439 94.7685C75.9041 93.6558 75.6342 92.3134 75.6342 90.7415C75.6342 89.1742 75.9041 87.8319 76.4439 86.7145C76.9837 85.5971 77.7294 84.7424 78.6811 84.1506C79.6375 83.554 80.736 83.2557 81.9766 83.2557C82.7389 83.2557 83.4444 83.3693 84.093 83.5966C84.7417 83.8239 85.3288 84.1506 85.8544 84.5767Z" fill="black"/>
</g>
<defs>
<clipPath id="clip0_234_1804">
<rect width="112.68" height="122.88" fill="white"/>
</clipPath>
</defs>
</svg>
