<svg width="31" height="48" viewBox="0 0 31 48" fill="none" xmlns="http://www.w3.org/2000/svg">
<path fill-rule="evenodd" clip-rule="evenodd" d="M24.2922 37.3328C23.9103 37.3328 23.5995 36.9701 23.5995 36.5212C23.5995 36.0723 23.9091 35.7096 24.2922 35.7096C25.0788 35.7096 25.7182 34.9605 25.7182 34.0391C25.7182 33.1176 25.0788 32.3685 24.2922 32.3685H11.0224C10.2359 32.3685 9.59652 33.1176 9.59652 34.0391C9.59652 34.9605 10.2359 35.7096 11.0224 35.7096C11.4044 35.7096 11.7152 36.0723 11.7152 36.5212C11.7152 36.9701 11.4056 37.3328 11.0224 37.3328C9.47196 37.3328 8.21094 35.8555 8.21094 34.0404C8.21094 32.2254 9.47196 30.748 11.0224 30.748H24.2922C25.8415 30.748 27.1038 32.2254 27.1038 34.0404C27.1038 35.8555 25.8427 37.3328 24.2922 37.3328Z" fill="black"/>
<path fill-rule="evenodd" clip-rule="evenodd" d="M26.5158 42.2975C26.1338 42.2975 25.823 41.9348 25.823 41.4859C25.823 41.037 26.1326 40.6743 26.5158 40.6743C27.3023 40.6743 27.9417 39.9238 27.9417 39.0037C27.9417 38.0823 27.3023 37.3332 26.5158 37.3332H8.79978C8.01327 37.3332 7.37387 38.0837 7.37387 39.0037C7.37387 39.9252 8.01327 40.6743 8.79978 40.6743C9.18177 40.6743 9.49257 41.037 9.49257 41.4859C9.49257 41.9348 9.18295 42.2975 8.79978 42.2975C7.2493 42.2975 5.98828 40.8188 5.98828 39.0037C5.98828 37.1887 7.2493 35.71 8.79978 35.71H26.517C28.0663 35.71 29.3285 37.1887 29.3285 39.0037C29.3273 40.8188 28.0663 42.2975 26.5158 42.2975Z" fill="black"/>
<path fill-rule="evenodd" clip-rule="evenodd" d="M23.2839 32.3688C22.902 32.3688 22.5912 32.0061 22.5912 31.5572V30.2827C22.5912 29.5767 22.0087 29.0041 21.2934 29.0041H14.0262C13.3108 29.0041 12.7284 29.5781 12.7284 30.2827V31.5572C12.7284 32.0047 12.4187 32.3688 12.0356 32.3688C11.6524 32.3688 11.3428 32.0061 11.3428 31.5572V30.2827C11.3428 28.6831 12.5469 27.3809 14.0262 27.3809H21.2922C22.7727 27.3809 23.9755 28.6817 23.9755 30.2827V31.5572C23.9755 32.0061 23.6659 32.3688 23.2839 32.3688Z" fill="black"/>
<path fill-rule="evenodd" clip-rule="evenodd" d="M14.8273 29.0051C14.5876 29.0051 14.3551 28.8591 14.227 28.5993L8.98717 17.9674C8.79617 17.5797 8.91006 17.0835 9.24103 16.8598C9.57201 16.636 9.99551 16.7694 10.1865 17.1572L15.4263 27.789C15.6932 28.331 15.354 29.0051 14.8273 29.0051ZM20.1145 28.8953C20.4455 28.6715 20.5594 28.1754 20.3684 27.7876L13.8937 14.6486C13.7027 14.2609 13.2792 14.1274 12.9482 14.3512C12.6172 14.575 12.5033 15.0711 12.6943 15.4589L19.1691 28.5979C19.3541 28.9773 19.7717 29.1246 20.1145 28.8953Z" fill="black"/>
<path fill-rule="evenodd" clip-rule="evenodd" d="M9.25061 18.4139C8.51274 18.4139 7.79148 18.022 7.30391 17.2868C5.40111 14.4196 2.7023 12.6227 1.67379 10.5394C0.0212923 7.18443 1.00591 2.87889 3.86842 0.942918C6.73687 -0.997219 10.4025 0.152132 12.0597 3.51402C13.0871 5.59869 13.0586 9.2163 14.233 12.5976C14.7052 13.9555 14.2603 15.4703 13.1772 16.2041L10.4962 18.0178C10.1024 18.2846 9.67293 18.4139 9.25061 18.4139ZM6.86024 1.62113C6.06068 1.62113 5.2718 1.86573 4.56121 2.3466C2.35947 3.83645 1.60143 7.14691 2.87313 9.72774C3.71776 11.4427 6.43199 13.3314 8.39648 16.2903C8.73457 16.799 9.32653 16.9352 9.8046 16.6127L12.4856 14.7991C12.9625 14.4752 13.1582 13.8081 12.9506 13.2091C11.7489 9.75136 11.7062 6.04203 10.8604 4.32426C10.0098 2.59815 8.47359 1.62113 6.86024 1.62113Z" fill="black"/>
<path fill-rule="evenodd" clip-rule="evenodd" d="M4.11055 8.89105C3.23151 7.10795 3.75347 4.82871 5.27548 3.79749C5.60645 3.57374 6.02996 3.70716 6.22095 4.0949C6.41194 4.48265 6.29806 4.97881 5.96708 5.20256C5.11059 5.78071 4.81164 7.06765 5.30869 8.07941C5.49969 8.46716 5.3858 8.96331 5.05483 9.18707C4.72741 9.41082 4.30154 9.2788 4.11055 8.89105Z" fill="black"/>
<path fill-rule="evenodd" clip-rule="evenodd" d="M28.1883 47.26H7.12693C5.57645 47.26 4.31543 45.7827 4.31543 43.9676C4.31543 42.1526 5.57645 40.6738 7.12693 40.6738H28.1883C29.7376 40.6738 30.9998 42.1512 30.9998 43.9662C30.9998 45.7827 29.7388 47.26 28.1883 47.26ZM7.12693 42.2971C6.34042 42.2971 5.70101 43.0462 5.70101 43.9676C5.70101 44.889 6.34042 45.6381 7.12693 45.6381H28.1883C28.9748 45.6381 29.6142 44.889 29.6142 43.9676C29.6142 43.0462 28.9748 42.2971 28.1883 42.2971H7.12693Z" fill="black"/>
</svg>
