<svg width="87" height="53" viewBox="0 0 87 53" fill="none" xmlns="http://www.w3.org/2000/svg">
<g clip-path="url(#clip0_54_19)">
<path d="M66.6094 51.4258C65.4955 50.4846 64.819 48.9978 64.9964 47.5504C65.1738 46.103 66.2728 44.7724 67.6982 44.465C69.1237 44.1577 70.7486 45.0085 71.1816 46.401C71.4199 43.7163 71.6945 40.9192 73.1218 38.633C74.4142 36.5629 76.6527 35.0816 79.0787 34.8166C81.5047 34.5516 84.0589 35.5525 85.5719 37.4673C87.0849 39.3821 87.4554 42.1659 86.3957 44.3642C85.6151 45.9837 84.1769 47.1889 82.6701 48.1694C77.8009 51.3111 71.9609 52.5887 66.2247 51.7671L66.6094 51.4258Z" fill="#F2F2F2"/>
<path d="M83.1727 35.608C81.1709 37.2384 79.3345 39.062 77.69 41.0522C75.1164 44.1563 73.0339 47.6365 71.5148 51.3716C71.4036 51.6441 71.8461 51.7627 71.9561 51.4933C74.4415 45.4229 78.4091 40.0725 83.4962 35.9315C83.7247 35.7455 83.3992 35.4235 83.1727 35.608Z" fill="white"/>
<path d="M28.0067 51.1701C29.5366 49.8774 30.4658 47.8353 30.2221 45.8473C29.9784 43.8593 28.469 42.0317 26.5112 41.6095C24.5533 41.1873 22.3214 42.356 21.7267 44.2685C21.3995 40.5812 21.0223 36.7393 19.0619 33.5992C17.2868 30.7559 14.2122 28.7214 10.8801 28.3574C7.54801 27.9934 4.03972 29.3681 1.96161 31.9981C-0.11651 34.6281 -0.625327 38.4516 0.830131 41.471C1.90232 43.6954 3.87766 45.3507 5.94733 46.6975C12.5503 50.994 20.7412 52.7859 28.5351 51.6389" fill="#F2F2F2"/>
<path d="M5.25657 29.4443C8.00597 31.6837 10.5283 34.1884 12.7869 36.922C15.046 39.6528 17.0348 42.5962 18.7256 45.7111C19.6706 47.4583 20.5195 49.2559 21.2686 51.0957C21.4213 51.47 20.8136 51.6329 20.6626 51.2628C19.3358 48.0192 17.6943 44.9134 15.7617 41.9901C13.8384 39.0773 11.6372 36.3579 9.18879 33.8702C7.80399 32.4638 6.34291 31.1346 4.81217 29.8887C4.49841 29.6332 4.9454 29.1909 5.25657 29.4443Z" fill="white"/>
<path d="M62.45 51.9001H25.95V14.45C25.95 6.48225 32.4322 0 40.3999 0H48C55.9677 0 62.45 6.48225 62.45 14.45V51.9001Z" fill="#F2F2F2"/>
<path d="M54.85 51.9001H25.95V14.45C25.942 11.3969 26.9088 8.42103 28.7096 5.95556C28.776 5.86508 28.8422 5.77577 28.9104 5.68744C29.7815 4.54505 30.818 3.53895 31.9859 2.70238C32.0518 2.65438 32.1181 2.60721 32.1853 2.56004C33.1625 1.88378 34.2196 1.33095 35.3325 0.914138C35.3986 0.889089 35.4659 0.863991 35.5332 0.839918C36.5397 0.480724 37.583 0.234679 38.644 0.106324C38.7098 0.0973386 38.7773 0.0903077 38.8448 0.0832767C39.8787 -0.0272706 40.9215 -0.0272706 41.9554 0.0832767C42.0227 0.0903077 42.0902 0.0973377 42.1568 0.10642C43.2175 0.234783 44.2606 0.480799 45.2668 0.839922C45.3341 0.863996 45.4014 0.889092 45.4677 0.91419C46.5669 1.32575 47.6115 1.87033 48.5783 2.53578C48.6455 2.58192 48.7127 2.62909 48.779 2.67626C49.4336 3.14353 50.0485 3.6641 50.6173 4.23266C51.0735 4.6887 51.4986 5.17482 51.8898 5.68774C51.9578 5.77578 52.024 5.86509 52.0903 5.95542C53.8911 8.42091 54.858 11.3969 54.85 14.45V51.9001Z" fill="#CCCCCC"/>
<path d="M52.4999 35.1501C53.3836 35.1501 54.0999 34.4337 54.0999 33.5501C54.0999 32.6664 53.3836 31.9501 52.4999 31.9501C51.6162 31.9501 50.8999 32.6664 50.8999 33.5501C50.8999 34.4337 51.6162 35.1501 52.4999 35.1501Z" fill="#5BA697"/>
<path d="M59.4599 50.7784H58.2339L57.6506 46.0496L59.4601 46.0497L59.4599 50.7784Z" fill="#FFB8B8"/>
<path d="M57.3581 50.4281H59.7225V51.9168H55.8694C55.8694 51.7213 55.9079 51.5277 55.9827 51.3471C56.0575 51.1665 56.1672 51.0024 56.3054 50.8641C56.4437 50.7259 56.6078 50.6162 56.7884 50.5414C56.969 50.4666 57.1626 50.4281 57.3581 50.4281Z" fill="#2F2E41"/>
<path d="M65.5598 50.7784H64.3338L63.7505 46.0496L65.56 46.0497L65.5598 50.7784Z" fill="#FFB8B8"/>
<path d="M63.4582 50.4281H65.8226V51.9168H61.9695C61.9695 51.7213 62.008 51.5277 62.0828 51.3471C62.1576 51.1665 62.2673 51.0024 62.4055 50.8641C62.5437 50.7259 62.7079 50.6162 62.8885 50.5414C63.0691 50.4666 63.2627 50.4281 63.4582 50.4281Z" fill="#2F2E41"/>
<path d="M53.3097 33.867C53.2215 33.7371 53.1628 33.5894 53.1379 33.4343C53.113 33.2793 53.1223 33.1206 53.1653 32.9696C53.2083 32.8185 53.2839 32.6787 53.3868 32.5601C53.4897 32.4414 53.6173 32.3467 53.7607 32.2827L57.9283 20.796L59.979 21.9152L55.2205 32.8923C55.3121 33.1403 55.3095 33.4133 55.2132 33.6596C55.1169 33.9059 54.9336 34.1082 54.6981 34.2284C54.4625 34.3485 54.1911 34.3781 53.9352 34.3115C53.6793 34.2449 53.4567 34.0868 53.3097 33.867Z" fill="#FFB8B8"/>
<path d="M64.9336 36.0254C64.7974 35.9473 64.6799 35.8403 64.5895 35.7119C64.4991 35.5834 64.438 35.4368 64.4104 35.2822C64.3828 35.1275 64.3895 34.9688 64.4299 34.817C64.4703 34.6652 64.5435 34.5242 64.6443 34.4038L63.3533 22.2528L65.687 22.3594L66.2236 34.3115C66.4147 34.4943 66.532 34.7408 66.5535 35.0044C66.5749 35.2679 66.4989 35.5302 66.3399 35.7414C66.1809 35.9527 65.9499 36.0983 65.6907 36.1506C65.4316 36.203 65.1622 36.1584 64.9336 36.0254Z" fill="#FFB8B8"/>
<path d="M61.2105 18.6684C62.567 18.6684 63.6666 17.5687 63.6666 16.2123C63.6666 14.8558 62.567 13.7562 61.2105 13.7562C59.854 13.7562 58.7544 14.8558 58.7544 16.2123C58.7544 17.5687 59.854 18.6684 61.2105 18.6684Z" fill="#FFB8B8"/>
<path d="M64.9179 33.2619H57.5132L57.5221 33.2043C57.5354 33.1182 58.8418 24.5604 57.8783 21.7607C57.7816 21.4856 57.7901 21.1844 57.9021 20.9151C58.0142 20.6459 58.2219 20.4276 58.4852 20.3023C59.8624 19.6538 62.506 18.8552 64.7372 20.7932C65.0656 21.0831 65.322 21.4454 65.4861 21.8515C65.6503 22.2575 65.7178 22.6962 65.6832 23.1329L64.9179 33.2619Z" fill="#5BA697"/>
<path d="M58.9355 25.8251L55.6018 25.1488L57.1644 21.4458C57.2579 21.0872 57.4899 20.7802 57.8094 20.5924C58.1289 20.4045 58.5099 20.351 58.8688 20.4437C59.2276 20.5363 59.5351 20.7675 59.7237 21.0866C59.9124 21.4056 59.9668 21.7865 59.875 22.1456L58.9355 25.8251Z" fill="#5BA697"/>
<path d="M63.2052 27.0809L63.0047 22.4867C62.8528 21.6231 63.3472 20.8067 64.1075 20.6733C64.868 20.5403 65.6107 21.1393 65.7633 22.0093L66.5166 26.302L63.2052 27.0809Z" fill="#5BA697"/>
<path d="M64.6717 32.712C65.8632 37.2497 65.9932 43.0189 65.6717 49.312L64.0717 49.112L61.1717 37.112L59.5717 49.312L57.7717 49.212C57.234 42.609 56.7104 36.9405 57.5717 33.212L64.6717 32.712Z" fill="#2F2E41"/>
<path d="M62.8289 18.1105C62.3707 18.5985 61.5197 18.3365 61.46 17.6697C61.4553 17.618 61.4557 17.5659 61.461 17.5142C61.4919 17.2188 61.6625 16.9507 61.6216 16.6388C61.6124 16.5612 61.5834 16.4872 61.5376 16.4239C61.1725 15.935 60.3154 16.6426 59.9708 16.2C59.7595 15.9286 60.0079 15.5013 59.8457 15.1979C59.6317 14.7976 58.9978 14.9951 58.6003 14.7758C58.1581 14.5319 58.1845 13.8533 58.4756 13.4405C58.8307 12.9372 59.4532 12.6686 60.068 12.6299C60.6827 12.5912 61.2933 12.7574 61.8672 12.981C62.5193 13.2352 63.166 13.5864 63.5673 14.1598C64.0553 14.8571 64.1023 15.7946 63.8582 16.61C63.7097 17.106 63.203 17.7119 62.8289 18.1105Z" fill="#2F2E41"/>
<path d="M83.9982 51.9645H10.1688C10.1373 51.9644 10.1071 51.9518 10.0848 51.9295C10.0625 51.9072 10.05 51.877 10.05 51.8454C10.05 51.8139 10.0625 51.7837 10.0848 51.7614C10.1071 51.7391 10.1373 51.7265 10.1688 51.7264H83.9982C84.0297 51.7265 84.0599 51.7391 84.0821 51.7614C84.1044 51.7837 84.1169 51.8139 84.1169 51.8454C84.1169 51.877 84.1044 51.9072 84.0821 51.9295C84.0599 51.9518 84.0297 51.9644 83.9982 51.9645Z" fill="#3F3D56"/>
<path d="M46.9 41.0501H33.9C33.7288 41.051 33.5642 40.984 33.4424 40.8637C33.3205 40.7435 33.2513 40.5798 33.25 40.4086V11.3915C33.2513 11.2203 33.3205 11.0566 33.4424 10.9364C33.5642 10.8161 33.7288 10.7491 33.9 10.75H46.9C47.0712 10.7491 47.2358 10.8161 47.3576 10.9364C47.4795 11.0566 47.5487 11.2203 47.55 11.3915V40.4086C47.5487 40.5798 47.4795 40.7435 47.3576 40.8637C47.2358 40.984 47.0712 41.051 46.9 41.0501Z" fill="white"/>
<path d="M47.55 20.139H33.25V20.339H47.55V20.139Z" fill="#CCCCCC"/>
<path d="M47.6 31.5501H33.3V31.7501H47.6V31.5501Z" fill="#CCCCCC"/>
<path d="M37.95 10.75H37.75V41.1501H37.95V10.75Z" fill="#CCCCCC"/>
<path d="M42.95 10.75H42.75V41.1501H42.95V10.75Z" fill="#CCCCCC"/>
</g>
<defs>
<clipPath id="clip0_54_19">
<rect width="87" height="52.014" fill="white"/>
</clipPath>
</defs>
</svg>
