<svg width="16" height="16" viewBox="0 0 16 16" fill="none" xmlns="http://www.w3.org/2000/svg">
<path d="M14.3755 9.00791L11.1774 6.55074L14.3916 3.76357C14.5381 3.63659 14.5539 3.41478 14.4268 3.26831C14.2998 3.12184 14.0782 3.10585 13.9315 3.23301L10.3939 6.30047C10.393 6.30118 10.3923 6.30188 10.3914 6.30258L9.52718 7.05197L5.12286 3.23283C4.97639 3.10568 4.75475 3.12166 4.62759 3.26813C4.50062 3.4146 4.51625 3.63642 4.66289 3.76339L7.90142 6.57164L5.71629 8.31243C5.56455 8.43326 5.53961 8.6542 5.66044 8.80594C5.72982 8.89305 5.83203 8.93836 5.9353 8.93836C6.01187 8.93836 6.08915 8.91325 6.15378 8.86196L8.44112 7.03985L9.29711 7.78205C9.36315 7.8393 9.44516 7.86793 9.52718 7.86793C9.6092 7.86793 9.69121 7.8393 9.75725 7.78205L10.6357 7.02036L13.9477 9.56481C14.0114 9.61381 14.0868 9.63752 14.1614 9.63752C14.2666 9.63752 14.3709 9.59046 14.4399 9.50036C14.5581 9.34651 14.5293 9.1261 14.3755 9.00791Z" fill="black"/>
<path d="M14.8411 1.94916H4.21329C3.63267 1.94916 3.16024 2.42159 3.16024 3.00221V3.28602C2.96266 3.14077 2.6973 3.10266 2.4609 3.20646C2.30811 3.27372 2.1086 3.36101 1.90066 3.45128L1.89504 3.45374C1.45141 3.64605 1.12493 3.78391 0.950529 3.85223C0.820391 3.90316 0.711328 3.97868 0.626501 4.07668C-0.808882 5.73265 0.833388 8.75849 3.09772 11.0228C4.77301 12.6981 6.8647 14.033 8.51048 14.0329C9.08934 14.0327 9.61306 13.8676 10.0439 13.4944C10.1417 13.4096 10.2172 13.3005 10.2683 13.1702C10.3377 12.993 10.474 12.6702 10.673 12.212C10.762 12.0069 10.8479 11.8105 10.9141 11.6598C11.0231 11.4117 10.9764 11.1312 10.8126 10.9313H14.8412C15.422 10.9313 15.8943 10.4589 15.8943 9.87828V3.00256C15.8941 2.42159 15.4217 1.94916 14.8411 1.94916ZM10.0288 11.9319C9.82644 12.3983 9.68682 12.7288 9.61429 12.914C9.6055 12.9363 9.59444 12.9543 9.5839 12.9635C8.3338 14.0473 5.62479 12.5569 3.59421 10.5263C1.56346 8.4954 0.0741606 5.78604 1.15706 4.53664C1.16637 4.52593 1.18446 4.51486 1.20677 4.50608C1.39346 4.43302 1.72381 4.29358 2.18886 4.09178C2.39487 4.00239 2.5921 3.91616 2.74524 3.85065L4.02133 6.00311L3.23014 7.47713C3.08209 7.75286 3.13144 8.08673 3.35273 8.30819L5.81271 10.7682C6.03435 10.9895 6.36838 11.0388 6.64359 10.8904L8.11954 10.0992L10.2701 11.3755L10.2711 11.3772C10.2044 11.5288 10.1178 11.7262 10.0288 11.9319ZM15.1918 9.87792C15.1918 10.0713 15.0344 10.2286 14.8411 10.2286H9.71369L8.47764 9.49506C8.26672 9.37002 8.00152 9.3644 7.78533 9.48048L6.30902 10.2713L3.84887 7.80906L4.64006 6.33522C4.75597 6.11902 4.75035 5.85383 4.62531 5.64273L3.86257 4.35733V3.00221C3.86257 2.80884 4.01993 2.65148 4.21329 2.65148H14.8411C15.0344 2.65148 15.1918 2.80884 15.1918 3.00221V9.87792Z" fill="black"/>
</svg>
