<svg width="92" height="85" viewBox="0 0 92 85" fill="none" xmlns="http://www.w3.org/2000/svg">
<path fill-rule="evenodd" clip-rule="evenodd" d="M33.0311 13.8452H87.6261L55.1991 36.0752L33.1431 20.9532C33.9831 18.7052 33.9901 16.1632 33.0311 13.8452ZM18.7531 26.7472L26.7111 21.9022C29.0731 20.4642 29.8561 17.3962 28.4741 15.0022L21.2901 2.55823C20.5531 1.28123 19.4371 0.460232 17.9991 0.135232C16.5611 -0.189768 15.2011 0.0722325 13.9871 0.908233L0.885075 9.92923C-5.35193 31.9032 22.6741 79.4772 44.1681 84.8982L58.5311 78.0622C59.8621 77.4282 60.7691 76.3822 61.2071 74.9742C61.6451 73.5662 61.4911 72.1902 60.7541 70.9132L53.5701 58.4692C52.1881 56.0742 49.1391 55.2192 46.7131 56.5462L38.5381 61.0152C30.4531 53.8252 20.9381 37.3432 18.7531 26.7472ZM91.5921 16.7042L56.4961 40.7632C55.6751 41.3232 54.6201 41.2802 53.8571 40.7312L30.5581 24.7592C30.1171 25.1572 29.6331 25.5192 29.1081 25.8392L24.0751 28.9032C26.7191 37.4372 33.2621 48.7702 39.3311 55.3272L44.5021 52.5002C49.1221 49.9752 54.9301 51.6042 57.5631 56.1632L62.0181 63.8802H87.9691C90.0181 63.8802 91.6951 62.2042 91.6951 60.1542V17.5702C91.6941 17.2722 91.6581 16.9822 91.5921 16.7042Z" fill="black"/>
</svg>
