<svg width="48" height="48" viewBox="0 0 48 48" fill="none" xmlns="http://www.w3.org/2000/svg">
<path d="M35.76 26.36H35.77C35.77 26.36 32 31.89 28.83 36C26.09 39.55 25.29 42.59 25.06 44.06C24.97 44.6 24.53 45 24 45C23.47 45 23.03 44.6 22.94 44.06C22.71 42.59 21.91 39.55 19.17 36C18.75 35.45 18.32 34.88 17.89 34.3L28.24 22L36.57 12.12C37.49 14.05 38 16.21 38 18.5C38 21.4 37.17 24.09 35.76 26.36Z" fill="#A65969"/>
<path d="M33 18.5L17.89 34.3C15.07 30.52 12.23 26.36 12.23 26.36H12.24C11.94 25.88 11.67 25.39 11.44 24.88L20.5 14C19.71 14.95 23.5 14.67 23.5 16C23.5 19.04 24.96 13.5 28 13.5C29.71 13.5 32 19.72 33 18.5Z" fill="#A65969"/>
<path d="M28.4 4.74L19.83 14.92L13.27 9.2C15.83 6.02 19.69 4 24 4C25.54 4 27.02 4.26 28.4 4.74Z" fill="#A65969"/>
<path d="M19.83 14.92L19.76 15L11.44 24.88C10.52 22.95 10 20.79 10 18.5C10 14.96 11.23 11.71 13.27 9.20001L19.83 14.92Z" fill="#A65969"/>
<path d="M28.24 22C29.03 21.05 29.5 19.83 29.5 18.5C29.5 15.46 26.04 18.5 23 18.5C21.29 18.5 20.76 13.78 19.76 15L28.4 4.73999C31.99 5.95999 34.93 8.64999 36.57 12.12L28.24 22Z" fill="#A65969"/>
<path d="M29 18C29 20.7614 26.7614 23 24 23C21.2386 23 19 20.7614 19 18C19 15.2386 21.2386 13 24 13C26.7614 13 29 15.2386 29 18Z" fill="white"/>
</svg>
