<svg width="998" height="781" viewBox="0 0 998 781" fill="none" xmlns="http://www.w3.org/2000/svg">
<g clip-path="url(#clip0_65_111)">
<path d="M483.148 778.988C472.677 777.399 462.651 775.962 452.675 774.236C411.119 767.047 371.98 752.921 335.141 732.517C275.257 699.351 227.642 653.269 191.593 595.153C188.245 589.754 188.512 589.606 194.689 587.627C205.012 584.32 214.881 581.007 225.012 578.32C228.593 577.37 230.833 579.801 232.997 583.057C275.702 647.284 333.21 692.85 405.71 719.295C448.666 734.963 493.091 740.971 538.698 739.005C583.372 737.079 626.004 726.533 666.422 707.709C733.326 676.549 785.41 628.903 822.414 564.944C841.67 531.662 854.81 496.09 862.076 458.334C864.678 444.819 865.012 445.042 873.013 446.82C882.013 448.82 890.012 450.82 898.512 452.82C903.845 454.31 904.636 453.57 903.64 459.157C888.233 545.541 848.316 618.759 784.065 678.275C725.617 732.418 656.432 764.962 577.586 776.751C562.288 779.038 546.86 780.021 531.025 780.659C514.968 780.198 499.293 779.602 483.148 778.988Z" fill="black"/>
<path d="M194.836 502.936C197.978 512.654 201.345 521.871 205.292 530.855C206.78 534.24 206.474 536.181 202.889 537.952C193.494 542.593 184.245 547.537 175.024 552.519C172.127 554.084 170.452 554.168 168.956 550.662C162.551 535.649 157.133 520.296 152.414 504.682C151.967 503.201 151.803 501.734 152.324 500.273C157.934 484.538 166.524 470.97 180.66 461.465C181.32 461.021 182.142 460.817 183.734 460.143C187.049 474.587 190.248 488.75 194.836 502.936Z" fill="black"/>
<path d="M854.291 307.68C850.513 292.926 846.163 278.777 840.607 265.037C839.307 261.823 840.101 260.312 842.93 258.676C852.153 253.341 861.293 247.852 870.331 242.209C873.56 240.193 875.254 240.597 876.678 244.197C888.221 273.376 896.909 303.316 901.097 334.481C901.96 340.903 902.876 347.318 903.814 353.729C904.362 357.474 902.937 359.034 899.099 358.421C888.25 356.689 877.358 355.248 866.391 354.578C863.032 354.373 862.275 352.412 861.938 349.731C860.57 338.851 858.849 328.03 856.463 317.321C855.776 314.24 855.068 311.164 854.291 307.68Z" fill="black"/>
<path d="M998 479.952C977.466 507.52 949.374 507.77 920.709 509C921.674 501.645 922.451 495.428 923.309 489.224C926.443 466.539 919.671 451.939 901.269 441.517C889.98 435.123 877.886 431.843 865.448 430.835C832.556 428.169 801.468 435.029 773.298 455.201C760.499 464.366 749.904 476.123 742.403 491.179C741.935 492.119 741.717 493.446 740.11 493.65C739.578 490.733 741.091 488.554 742.164 486.363C751.31 467.674 764.749 453.488 779.773 440.986C802.331 422.214 827.255 409.096 854.402 401.3C855.061 401.112 855.697 400.827 856.298 399.7C836.226 398.27 816.153 396.842 795.857 395.397C796.313 392.272 798.196 392.249 799.578 391.715C821.139 383.388 842.73 375.16 864.275 366.784C868.769 365.037 873.121 366.697 877.449 367.109C900.155 369.271 922.72 372.641 944.85 379.035C957.951 382.818 970.675 387.66 982.33 395.608C988.667 399.931 993.743 405.646 997.796 413.009C998 435.326 998 457.404 998 479.952Z" fill="black"/>
<path d="M773.386 382.541C662.213 420.39 551.41 458.101 440.615 495.833C366.549 521.056 292.479 546.267 218.436 571.559C164.535 589.97 110.676 608.506 56.7935 626.974C55.1079 627.551 53.4775 628.51 51 626.948C204.711 546.8 358.421 466.653 512.132 386.505C512.141 385.86 512.15 385.215 512.159 384.57C489.134 375.508 465.404 368.372 442.02 360.294C418.476 352.161 394.894 344.137 371.329 336.065C371.308 335.503 371.287 334.94 371.266 334.378C571.123 277.252 770.979 220.126 970.835 163C971.085 163.573 971.336 164.147 971.586 164.72C880.695 218.692 789.805 272.664 698.915 326.636C698.917 327.284 698.92 327.932 698.922 328.58C736.682 341.461 774.441 354.342 812.201 367.223C812.257 367.805 812.313 368.386 812.369 368.968C799.499 373.449 786.629 377.931 773.386 382.541Z" fill="black"/>
<path d="M0 387.882C2.2954 380.972 2.47688 374.038 4.79286 367.576C8.42462 357.441 9.44386 356.46 20.2182 356.381C66.8729 356.039 113.513 357.099 160.148 358.215C169.645 358.442 177.798 356.364 186.085 351.572C216.245 334.13 247.132 318.079 280.322 306.984C306.156 298.347 332.654 293.123 359.825 290.985C387.722 288.789 415.667 287.937 443.619 287.073C452.44 286.8 461.259 286.414 470.082 286.173C471.634 286.131 473.363 285.529 474.816 286.851C474.29 288.731 472.606 288.719 471.253 289.103C454.274 293.922 437.243 298.563 420.318 303.565C410.655 306.421 400.61 306.539 390.813 308.407C373.568 311.694 359.457 321.074 345.568 330.949C333.345 339.639 321.381 348.727 310.185 358.674C303.662 364.469 296.496 366.616 288.165 367.562C255.43 371.28 222.744 375.435 190.031 379.356C160.789 382.862 131.536 386.27 102.29 389.736C100.315 389.97 98.3543 390.326 96.3828 391.297C101.847 391.297 107.312 391.208 112.774 391.311C147.306 391.965 181.648 394.528 215.224 403.187C239.375 409.415 262.669 417.864 283.104 432.723C292.056 439.231 299.88 446.925 306.5 455.806C307.325 456.912 308.818 457.855 308.134 459.635C306.828 460.225 306.275 459.166 305.613 458.538C286.122 440.018 262.491 430.768 236.185 427.524C216.313 425.074 196.901 426.847 178.408 434.826C149.003 447.512 132.606 470.762 125.396 501.252C125.206 502.054 125.115 502.883 124.88 503.669C124.803 503.927 124.413 504.091 124.163 504.295C120.837 497.075 125.68 457.513 140.085 436.882C126.449 446.161 116.018 477.3 117.706 504.359C111.677 504.627 105.967 502.822 100.233 501.689C78.6397 497.424 57.4933 491.933 37.7305 481.647C16.1228 470.4 5.6827 452.017 1.6534 428.987C1.19567 426.37 0.691043 423.762 0.104083 420.782C-5.96046e-08 409.725 0 399.038 0 387.882Z" fill="black"/>
<path d="M539.322 0C549.847 1.18868 559.92 2.24392 569.955 3.5893C611.753 9.1933 651.402 21.8213 688.99 40.8084C750.092 71.6735 799.425 115.911 837.657 172.615C841.209 177.882 840.924 178.536 834.85 180.253C824.762 183.105 814.638 185.842 804.616 188.912C801.074 189.997 799.03 189.448 796.743 186.276C751.627 123.72 692.429 80.3742 618.974 56.7047C575.453 42.681 530.833 38.367 485.333 42.0663C440.765 45.6897 398.565 57.8486 358.891 78.1964C293.22 111.878 242.987 161.471 208.442 226.79C190.465 260.78 178.686 296.826 172.862 334.831C171.749 342.092 171.626 342.148 164.365 342.125C155.201 342.096 146.036 342.059 136.874 341.901C130.931 341.798 130.514 341.21 131.297 335.589C143.407 248.682 180.512 173.999 242.453 112.083C298.801 55.757 366.697 20.6048 445.038 5.82615C460.238 2.95888 475.617 1.39006 491.416 0.149881C507.479 1.05798e-06 523.166 1e-06 539.322 0Z" fill="black"/>
</g>
<defs>
<clipPath id="clip0_65_111">
<rect width="998" height="781" fill="white"/>
</clipPath>
</defs>
</svg>
