<svg width="48" height="48" viewBox="0 0 48 48" fill="none" xmlns="http://www.w3.org/2000/svg">
<path d="M35.76 26.36H35.77C35.77 26.36 32 31.89 28.83 36C26.09 39.55 25.29 42.59 25.06 44.06C24.97 44.6 24.53 45 24 45C23.47 45 23.03 44.6 22.94 44.06C22.71 42.59 21.91 39.55 19.17 36C18.75 35.45 18.32 34.88 17.89 34.3L28.24 22L36.57 12.12C37.49 14.05 38 16.21 38 18.5C38 21.4 37.17 24.09 35.76 26.36Z" fill="#A65969"/>
<path d="M33 18.5L17.89 34.3C15.07 30.52 12.23 26.36 12.23 26.36H12.24C11.94 25.88 11.67 25.39 11.44 24.88L20.5 14C19.71 14.95 23.5 14.67 23.5 16C23.5 19.04 24.96 13.5 28 13.5C29.71 13.5 32 19.72 33 18.5Z" fill="#A65969"/>
<path d="M28.4 4.74L19.83 14.92L13.27 9.2C15.83 6.02 19.69 4 24 4C25.54 4 27.02 4.26 28.4 4.74Z" fill="#A65969"/>
<path d="M19.83 14.92L19.76 15L11.44 24.88C10.52 22.95 10 20.79 10 18.5C10 14.96 11.23 11.71 13.27 9.20001L19.83 14.92Z" fill="#A65969"/>
<path d="M28.24 22C29.03 21.05 29.5 19.83 29.5 18.5C29.5 15.46 26.04 18.5 23 18.5C21.29 18.5 20.76 13.78 19.76 15L28.4 4.73999C31.99 5.95999 34.93 8.64999 36.57 12.12L28.24 22Z" fill="#A65969"/>
<path d="M18.519 13.515C18.7119 13.065 19.0327 12.6815 19.4416 12.4122C19.8504 12.1429 20.3294 11.9996 20.819 12H27.181C28.181 12 29.085 12.596 29.479 13.515L30.271 15.363C30.346 15.538 30.481 15.682 30.651 15.767C31.151 16.017 31.506 16.482 31.616 17.029L31.951 18.708C31.984 18.869 32 19.033 32 19.198V19.611C32 20.425 31.61 21.154 31 21.608V23.5C31 23.6326 30.9473 23.7598 30.8536 23.8536C30.7598 23.9473 30.6326 24 30.5 24H28.5C28.3674 24 28.2402 23.9473 28.1464 23.8536C28.0527 23.7598 28 23.6326 28 23.5V22.162C26.708 22.21 25.255 22.25 24 22.25C22.745 22.25 21.292 22.21 20 22.162V23.5C20 23.6326 19.9473 23.7598 19.8536 23.8536C19.7598 23.9473 19.6326 24 19.5 24H17.5C17.3674 24 17.2402 23.9473 17.1464 23.8536C17.0527 23.7598 17 23.6326 17 23.5V21.608C16.39 21.154 16 20.425 16 19.611V19.198C16.0002 19.0335 16.0166 18.8693 16.049 18.708L16.384 17.028C16.494 16.482 16.849 16.016 17.348 15.767C17.5188 15.6816 17.6538 15.5385 17.729 15.363L18.521 13.515H18.519ZM18.999 20C19.2642 20 19.5186 19.8946 19.7061 19.7071C19.8936 19.5196 19.999 19.2652 19.999 19C19.999 18.7348 19.8936 18.4804 19.7061 18.2929C19.5186 18.1054 19.2642 18 18.999 18C18.7338 18 18.4794 18.1054 18.2919 18.2929C18.1044 18.4804 17.999 18.7348 17.999 19C17.999 19.2652 18.1044 19.5196 18.2919 19.7071C18.4794 19.8946 18.7338 20 18.999 20ZM28.999 20C29.2642 20 29.5186 19.8946 29.7061 19.7071C29.8936 19.5196 29.999 19.2652 29.999 19C29.999 18.7348 29.8936 18.4804 29.7061 18.2929C29.5186 18.1054 29.2642 18 28.999 18C28.7338 18 28.4794 18.1054 28.2919 18.2929C28.1044 18.4804 27.999 18.7348 27.999 19C27.999 19.2652 28.1044 19.5196 28.2919 19.7071C28.4794 19.8946 28.7338 20 28.999 20ZM21.999 18C21.7338 18 21.4794 18.1054 21.2919 18.2929C21.1044 18.4804 20.999 18.7348 20.999 19C20.999 19.2652 21.1044 19.5196 21.2919 19.7071C21.4794 19.8946 21.7338 20 21.999 20H25.999C26.2642 20 26.5186 19.8946 26.7061 19.7071C26.8936 19.5196 26.999 19.2652 26.999 19C26.999 18.7348 26.8936 18.4804 26.7061 18.2929C26.5186 18.1054 26.2642 18 25.999 18H21.999ZM18.905 15.189C18.8659 15.2697 18.8488 15.3592 18.8553 15.4486C18.8618 15.538 18.8918 15.6241 18.9422 15.6982C18.9926 15.7723 19.0616 15.8318 19.1423 15.8708C19.2231 15.9097 19.3126 15.9267 19.402 15.92C20.312 15.847 22.752 15.75 23.999 15.75C25.246 15.75 27.687 15.847 28.596 15.92C28.6854 15.9267 28.7749 15.9097 28.8557 15.8708C28.9364 15.8318 29.0054 15.7723 29.0558 15.6982C29.1062 15.6241 29.1362 15.538 29.1427 15.4486C29.1492 15.3592 29.1321 15.2697 29.093 15.189L28.137 13.276C28.0954 13.1931 28.0316 13.1233 27.9527 13.0746C27.8737 13.0258 27.7828 13 27.69 13H20.308C20.2152 13 20.1243 13.0258 20.0453 13.0746C19.9664 13.1233 19.9026 13.1931 19.861 13.276L18.905 15.189Z" fill="white"/>
</svg>
