<svg width="865" height="530" viewBox="0 0 865 530" fill="none" xmlns="http://www.w3.org/2000/svg">
<g clip-path="url(#clip0_100_7283)">
<path d="M618.14 11.0395C618.14 11.0395 563.5 0.939453 448.5 0.939453C333.5 0.939453 243.5 11.9395 243.5 11.9395L199.9 15.8995L151.53 83.8094L130.55 150.299L262.5 165.939L455.73 161.439L677.35 156.439L733.18 150.299L728.5 121.939L708.5 76.1194L692.23 49.5995L665.5 18.9395L655.5 15.9395L618.14 11.0395Z" fill="#111111"/>
<path d="M2.9502 349.859L6.09019 484.409C6.60019 506.109 24.3402 523.439 46.0402 523.439H132.17C141.93 523.439 150.31 516.479 152.1 506.879L160.59 461.429" fill="black"/>
<path d="M861.59 349.859L858.45 484.409C857.94 506.109 840.2 523.439 818.5 523.439H732.37C722.61 523.439 714.23 516.479 712.44 506.879L703.95 461.429" fill="black"/>
<path d="M712.39 150.86C721.57 150.9 728.11 142 725.34 133.24C721.83 122.13 716.1 106.25 707.19 86.9297C689.19 47.9297 661.19 19.9297 661.19 19.9297C661.19 19.9297 616.19 9.92964 616.19 10.9297C616.19 11.9297 643.86 13.9297 643.86 13.9297H657.19C657.19 13.9297 671.19 15.9297 692.19 40.9297C713.19 65.9297 745.19 133.93 748.19 142.93C751.19 151.93 760.19 161.93 760.19 161.93C760.19 161.93 802.19 153.93 802.19 154.93C802.19 155.93 855.19 180.93 855.19 180.93C855.19 180.93 863.19 211.93 863.19 289.93C863.19 332.91 859.55 379.53 856.28 412.73C853.74 438.56 832.36 458.44 806.42 459.14L445.19 468.94L419 468.44L55.57 458.59C30.92 457.92 10.59 439.05 8.14 414.51C4.81 381.19 1 333.4 1 289.43C1 211.43 9 180.43 9 180.43C9 180.43 62 155.43 62 154.43C62 153.43 104 161.43 104 161.43C104 161.43 113 151.43 116 142.43C119 133.43 151 65.4297 172 40.4297C193 15.4297 207 13.4297 207 13.4297H220.33C220.33 13.4297 248 11.4297 248 10.4297C248 9.42964 203 19.4297 203 19.4297C203 19.4297 175 47.4297 157 86.4297C147.76 106.45 141.94 122.78 138.47 133.94C135.93 142.11 142.05 150.4 150.61 150.36C212.8 150.09 648.69 150.57 712.39 150.86Z" fill="#DDDDDD"/>
<path d="M63.0699 154.38C62.9999 154.44 57.2099 173.88 66.6099 232.66L63.0699 154.38Z" fill="#DDDDDD"/>
<path d="M653 28.4391C653 28.4391 675 59.4391 688 86.4391C695.06 101.089 699.76 115.159 702.58 124.959C704.53 131.719 699.47 138.449 692.44 138.469L174.04 139.419C166.63 139.429 161.07 132.639 162.58 125.379C165.55 111.089 171.19 88.7991 180 72.4391C194 46.4391 209 27.4391 209 27.4391C209 27.4391 277 10.3691 433 10.3691C589 10.3691 653 28.4391 653 28.4391Z" fill="#484849"/>
<path d="M815.52 457.839C815.73 456.439 801.73 445.439 801.73 445.439L679.73 454.439L611.19 395.159C607.67 392.119 603.17 390.449 598.51 390.479L436 391.439L265.22 390.479C260.57 390.449 256.06 392.119 252.54 395.159L184 454.439L61.9999 445.439C61.9999 445.439 47.9999 456.439 48.2099 457.839L181.01 462.199L440.41 468.939L815.52 457.839Z" fill="#484849"/>
<path d="M34.6099 425.09L45.9999 431.44L184 452.44L240.75 403.3C240.75 403.3 192 430.44 178 433.44C164 436.44 34.6099 425.09 34.6099 425.09Z" fill="#F7F7F7"/>
<path d="M829.12 425.09L817.73 431.44L679.73 452.44L622.98 403.3C622.98 403.3 671.73 430.44 685.73 433.44C699.73 436.44 829.12 425.09 829.12 425.09Z" fill="#F7F7F7"/>
<path d="M809.73 292.439C809.73 292.439 801.73 307.439 703.73 317.439C605.73 327.439 436.23 326.319 436.23 326.319H427.5C427.5 326.319 258 327.439 160 317.439C62 307.439 54 292.439 54 292.439C54 292.439 62.33 342.959 432.66 342.959C802.99 342.959 809.73 292.439 809.73 292.439Z" fill="#C1C1C1"/>
<path d="M197 156.439C196 156.439 141 156.439 141 156.439C141 156.439 177 185.439 195 209.439C213 233.439 245 296.439 245 296.439" fill="#C1C1C1"/>
<path d="M660.5 156.439C661.5 156.439 716.5 156.439 716.5 156.439C716.5 156.439 680.5 185.439 662.5 209.439C644.5 233.439 612.5 296.439 612.5 296.439" fill="#C1C1C1"/>
<path d="M35.5002 225.939C35.5002 225.939 89.5002 236.939 145.5 251.939C201.5 266.939 226.5 299.939 226.5 299.939C226.5 299.939 81.5002 282.939 67.5002 277.939C53.5002 272.939 35.5002 260.879 35.5002 260.879C35.5002 260.879 33.5002 231.939 35.5002 225.939Z" fill="#484849"/>
<path d="M48.1899 232.939C48.1899 232.939 87.5999 240.969 128.46 251.909C169.32 262.859 187.57 286.939 187.57 286.939C187.57 286.939 81.7599 274.529 71.5399 270.889C61.3199 267.249 48.1899 258.439 48.1899 258.439C48.1899 258.439 46.7299 237.319 48.1899 232.939Z" fill="#212121"/>
<path d="M828.23 225.939C828.23 225.939 774.23 236.939 718.23 251.939C662.23 266.939 637.23 299.939 637.23 299.939C637.23 299.939 782.23 282.939 796.23 277.939C810.23 272.939 828.23 260.879 828.23 260.879C828.23 260.879 830.23 231.939 828.23 225.939Z" fill="#484849"/>
<path d="M215 288.44C215 288.44 91.0002 274.44 81.0002 267.44C71.0002 260.44 64.9902 232.3 64.9902 232.3L71.0002 234.44C71.0002 234.44 75.3402 258.44 86.6702 262.94C98.0002 267.44 208.9 283.04 208.9 283.04L215 288.44Z" fill="#EFEFEF"/>
<path d="M35.5 260.88L49.83 343.3C53.26 363.06 68.26 378.8 87.83 383.19L171.5 401.94C171.5 401.94 91.5 378.94 82.5 366.94" fill="#EFEFEF"/>
<path d="M828.23 260.88L813.9 343.3C810.47 363.06 795.47 378.8 775.9 383.19L692.23 401.94C692.23 401.94 772.23 378.94 781.23 366.94" fill="#EFEFEF"/>
<path d="M48.21 268.659C48.5 269.939 58.5 337.939 65.5 350.939C72.5 363.939 74.16 367.999 91.33 383.969C91.33 383.969 69.95 380.359 59.22 364.149C48.49 347.939 48.75 335.679 48.75 335.679L42.29 299.939L35.5 258.939L37.99 262.489L48.21 268.659Z" fill="#484849"/>
<path d="M772.4 383.97C789.57 368 791.23 363.94 798.23 350.94C805.23 337.94 815.23 269.94 815.52 268.66V260.87L828.23 258.93L826.45 272.57L811.5 352.94L805.86 362.96L798.74 371.19L787.5 378.94L772.4 383.97Z" fill="#484849"/>
<path d="M202.5 452.939L263.5 398.939H599.39L660.5 450.939L202.5 452.939Z" fill="#0A0A0A"/>
<path d="M38.29 165.939C38.5 166.939 24.5 186.939 27 273.439C29.5 359.939 32 423.129 32 423.129L44.5 430.939L64.33 434.449C64.33 434.449 75.5 439.939 72.5 440.939C69.5 441.939 62 445.439 62 445.439L47.65 458.679C47.65 458.679 32.9 453.479 26.7 448.209C20.5 442.939 11.5 429.939 11.5 429.939L8.5 418.939L4.5 381.939L1 311.729V276.329L3.5 211.939L9.5 178.939L38.29 165.939Z" fill="#BCBCBC"/>
<path d="M825.21 165.939C825 166.939 839 186.939 836.5 273.439C834 359.939 831.5 423.129 831.5 423.129L819 430.939L799.17 434.449C799.17 434.449 788 439.939 791 440.939C794 441.939 801.5 445.439 801.5 445.439L815.85 458.679C815.85 458.679 830.6 453.479 836.8 448.209C843 442.939 852 429.939 852 429.939L855 418.939L859 381.939L862.5 311.729V276.329L860 211.939L854 178.939L825.21 165.939Z" fill="#BCBCBC"/>
<path d="M181.27 30.1992C181.27 30.1992 143.5 95.9392 136.5 115.939C129.5 135.939 127.35 153.939 128.93 156.439C130.5 158.939 104 161.439 104 161.439C104 161.439 113.5 149.939 116 142.439C118.5 134.939 132.5 106.539 132.5 106.539L147 77.9392C147 77.9392 169.01 44.8792 168.76 44.4092C168.5 43.9392 181.27 30.1992 181.27 30.1992Z" fill="#BCBCBC"/>
<path d="M66.6002 155.439C66.6002 155.439 65.7002 180.979 66.6002 193.959C67.5002 206.939 69.7702 225.439 69.7702 225.439C69.7702 225.439 158.69 244.939 185.1 257.939C211.51 270.939 231.29 296.939 231.4 295.439C231.51 293.939 208.5 238.049 188.5 215.999C168.5 193.949 103.01 160.439 103.01 160.439L66.6002 155.439Z" fill="#F7F7F7"/>
<path d="M684.33 30.1992C684.33 30.1992 722.1 95.9392 729.1 115.939C736.1 135.939 738.25 153.939 736.67 156.439C735.1 158.939 761.6 161.439 761.6 161.439C761.6 161.439 752.1 149.939 749.6 142.439C747.1 134.939 733.1 106.539 733.1 106.539L718.6 77.9392C718.6 77.9392 696.59 44.8792 696.84 44.4092C697.1 43.9392 684.33 30.1992 684.33 30.1992Z" fill="#BCBCBC"/>
<path d="M799 155.439C799 155.439 799.9 180.979 799 193.959C798.1 206.939 795.83 225.439 795.83 225.439C795.83 225.439 706.91 244.939 680.5 257.939C654.1 270.939 634.31 296.939 634.2 295.439C634.09 293.939 657.09 238.049 677.09 215.999C697.09 193.949 762.58 160.439 762.58 160.439L799 155.439Z" fill="#F7F7F7"/>
<path d="M145 150.299L716.8 150.149C716.8 150.149 579.33 162.449 416.42 162.449C253.51 162.449 145 150.299 145 150.299Z" fill="#F7F7F7"/>
<path opacity="0.5" d="M218.5 174.939C218.5 174.939 313.5 193.519 427.5 193.519C541.5 193.519 641.35 174.939 641.35 174.939C641.35 174.939 576.5 266.939 431.5 266.939C286.5 266.939 218.5 174.939 218.5 174.939Z" fill="#F7F7F7"/>
<path d="M814.92 234.939C814.92 234.939 775.51 242.969 734.65 253.909C693.79 264.859 675.54 288.939 675.54 288.939C675.54 288.939 781.35 276.529 791.57 272.889C801.79 269.239 814.92 260.439 814.92 260.439C814.92 260.439 816.38 239.319 814.92 234.939Z" fill="#212121"/>
<path d="M648.73 288.44C648.73 288.44 772.73 274.44 782.73 267.44C792.73 260.44 798.74 232.3 798.74 232.3L792.73 234.44C792.73 234.44 788.39 258.44 777.06 262.94C765.73 267.44 654.83 283.04 654.83 283.04L648.73 288.44Z" fill="#EFEFEF"/>
<path d="M3.30006 349.849C6.47006 379.519 8.46006 409.229 10.0201 438.939L10.6301 450.079L11.1101 461.219L12.0501 483.509L12.0801 484.209L12.1401 484.809L12.2601 485.989C12.3601 486.769 12.3301 487.569 12.5201 488.339L12.9401 490.669C13.0901 491.439 13.3601 492.189 13.5601 492.949L13.8801 494.089C14.0101 494.459 14.1701 494.819 14.3101 495.189C14.6101 495.919 14.8701 496.659 15.1901 497.379C15.9201 498.769 16.5701 500.209 17.4801 501.499C18.2601 502.869 19.3201 504.039 20.2601 505.299C21.3701 506.419 22.3601 507.639 23.6001 508.619C24.7301 509.709 26.0601 510.569 27.3101 511.499C27.9701 511.919 28.6601 512.289 29.3301 512.699C29.6701 512.889 30.0001 513.109 30.3501 513.289L31.4101 513.789C34.1901 515.239 37.2201 516.139 40.3001 516.719L42.6201 517.089L44.9801 517.219C45.3801 517.239 45.7401 517.279 46.1801 517.289L47.5701 517.299L50.3601 517.319C57.7901 517.389 65.2301 517.359 72.6601 517.509L94.9601 517.929C98.6801 518.009 102.39 518.049 106.11 518.159L117.26 518.509L128.41 518.859C130.22 518.909 132.31 518.999 133.58 518.969C135.03 518.869 136.47 518.639 137.88 518.189C139.29 517.759 140.62 517.069 141.87 516.249C143.12 515.429 144.27 514.419 145.24 513.259C146.21 512.099 147.09 510.829 147.7 509.419C147.89 509.079 147.99 508.709 148.14 508.349C148.29 507.989 148.42 507.629 148.51 507.249C148.61 506.859 148.73 506.539 148.83 506.089L149.16 504.729C152.69 490.259 156.19 475.789 160.2 461.409L160.89 461.539L152.79 505.409C152.49 507.219 152.07 509.119 151.37 510.879C150.7 512.659 149.7 514.299 148.57 515.819C147.43 517.339 146.06 518.689 144.53 519.819C143 520.949 141.34 521.919 139.56 522.579C137.78 523.249 135.91 523.689 134.02 523.889C132.1 524.019 130.27 523.969 128.4 523.989L117.25 524.009L72.6401 524.099L50.3401 524.139L47.5501 524.149C46.6201 524.159 45.6901 524.149 44.7401 524.089L41.9101 523.949L39.1101 523.529C35.4001 522.869 31.7201 521.799 28.3401 520.099L27.0601 519.489C26.6401 519.279 26.2401 519.009 25.8301 518.779C25.0201 518.289 24.2001 517.819 23.4101 517.309C21.8901 516.179 20.3301 515.119 18.9601 513.799C17.4901 512.599 16.2901 511.129 14.9901 509.759C13.8601 508.249 12.6201 506.809 11.6801 505.159C10.6101 503.599 9.83006 501.869 8.98006 500.189C8.60006 499.329 8.29006 498.429 7.94006 497.549C7.77006 497.109 7.59006 496.669 7.44006 496.219L7.06006 494.849C5.91006 491.239 5.57006 487.429 5.42006 483.689L4.47006 439.089L2.56006 349.889L3.30006 349.849Z" fill="#424242"/>
<path d="M58.8203 458.679V519.389" stroke="#424242" stroke-width="3" stroke-miterlimit="10"/>
<path d="M109.2 460.049V519.389" stroke="#424242" stroke-width="3" stroke-miterlimit="10"/>
<path d="M10.8003 452.438C12.8603 453.987 14.7903 455.668 16.6603 457.398C18.5403 459.118 20.3403 460.927 22.1203 462.747C23.8703 464.597 25.6103 466.458 27.2603 468.398C28.9203 470.328 30.5303 472.318 32.0003 474.438C29.9303 472.898 28.0103 471.208 26.1403 469.478C24.2603 467.758 22.4603 465.948 20.6803 464.128C18.9303 462.278 17.1903 460.418 15.5403 458.478C13.8803 456.538 12.2703 454.557 10.8003 452.438Z" fill="#424242"/>
<path d="M9 477.438C10.78 478.558 12.43 479.818 14.03 481.118C15.63 482.428 17.18 483.788 18.68 485.208C20.18 486.618 21.63 488.098 23.03 489.618C24.43 491.138 25.78 492.717 26.99 494.438C25.2 493.327 23.55 492.068 21.95 490.758C20.35 489.448 18.8 488.088 17.3 486.668C15.8 485.248 14.35 483.778 12.95 482.258C11.57 480.728 10.22 479.158 9 477.438Z" fill="#424242"/>
<path d="M861.94 349.859C863.72 379.649 864.32 409.409 864.5 439.159L864.59 450.319L864.55 461.469L864.45 483.779V484.479L864.41 485.269L864.32 486.869C864.24 487.929 864.23 489.009 864.02 490.059L863.48 493.229C863.28 494.279 862.95 495.309 862.68 496.339L862.25 497.889C862.08 498.399 861.88 498.899 861.69 499.399C861.3 500.399 860.95 501.409 860.52 502.399C859.57 504.319 858.67 506.279 857.47 508.059C856.4 509.929 855.02 511.579 853.73 513.289C852.27 514.859 850.89 516.509 849.24 517.889C847.69 519.379 845.93 520.619 844.2 521.889C843.31 522.479 842.37 523.019 841.45 523.579C840.99 523.849 840.53 524.149 840.06 524.389L838.6 525.089C837.62 525.529 836.67 526.049 835.65 526.399L832.61 527.479C831.6 527.849 830.53 528.039 829.49 528.319L827.92 528.699C827.4 528.829 826.86 528.869 826.33 528.959L823.14 529.419L819.93 529.569C819.4 529.589 818.84 529.619 818.35 529.629L816.96 529.619L814.17 529.599C806.74 529.529 799.3 529.559 791.87 529.409L769.57 528.989C765.85 528.909 762.14 528.869 758.42 528.759L747.27 528.409L736.12 528.059C734.21 527.979 732.58 527.999 730.14 527.779C727.89 527.509 725.69 526.889 723.61 526.029C721.53 525.169 719.61 523.969 717.88 522.589C716.14 521.209 714.6 519.579 713.34 517.779C712.08 515.979 711.01 514.039 710.3 511.969C710.09 511.469 709.97 510.929 709.81 510.409C709.65 509.889 709.51 509.359 709.42 508.829C709.32 508.309 709.2 507.729 709.13 507.269L708.95 505.889C707.02 491.119 705.06 476.359 703.62 461.509L704.31 461.379L712.58 505.219C712.9 507.069 713.3 508.819 713.97 510.519C714.62 512.219 715.58 513.789 716.67 515.229C717.77 516.679 719.08 517.959 720.54 519.029C722 520.099 723.59 521.019 725.29 521.649C726.99 522.279 728.77 522.699 730.57 522.879C732.36 522.999 734.25 522.939 736.1 522.949L747.25 522.929L791.86 522.839L814.16 522.799L816.95 522.789C817.88 522.799 818.81 522.789 819.72 522.719L822.46 522.579L825.17 522.169C828.76 521.519 832.3 520.469 835.56 518.809L836.8 518.229C837.21 518.029 837.59 517.769 837.99 517.539C838.77 517.069 839.57 516.619 840.34 516.129C841.81 515.049 843.33 514.019 844.65 512.749C846.07 511.599 847.24 510.179 848.51 508.859C849.61 507.399 850.81 506.009 851.72 504.419C852.76 502.909 853.52 501.239 854.36 499.619C854.73 498.789 855.03 497.919 855.37 497.069C855.53 496.639 855.71 496.219 855.86 495.789L856.23 494.469C857.36 490.969 857.7 487.309 857.86 483.639L858.99 439.039L861.25 349.849L861.94 349.859Z" fill="#424242"/>
<path d="M805.72 458.679V523.939" stroke="#424242" stroke-width="3" stroke-miterlimit="10"/>
<path d="M755.33 460.148V523.938" stroke="#424242" stroke-width="3" stroke-miterlimit="10"/>
<path d="M858.74 447.438C857.27 449.557 855.66 451.538 854 453.478C852.35 455.418 850.61 457.288 848.86 459.128C847.08 460.948 845.28 462.748 843.4 464.478C841.53 466.208 839.6 467.888 837.54 469.438C839.01 467.318 840.62 465.328 842.28 463.398C843.93 461.458 845.67 459.587 847.42 457.747C849.2 455.927 851 454.128 852.88 452.398C854.75 450.668 856.67 448.987 858.74 447.438Z" fill="#424242"/>
<path d="M860.54 472.438C859.32 474.158 857.97 475.728 856.57 477.258C855.17 478.778 853.72 480.258 852.22 481.668C850.72 483.088 849.17 484.448 847.57 485.758C845.97 487.068 844.32 488.327 842.53 489.438C843.74 487.717 845.09 486.148 846.49 484.618C847.89 483.098 849.34 481.618 850.84 480.208C852.34 478.788 853.89 477.428 855.49 476.118C857.1 474.818 858.75 473.558 860.54 472.438Z" fill="#424242"/>
<path d="M712.39 150.859C721.57 150.899 728.11 141.999 725.34 133.239C721.83 122.129 716.1 106.249 707.19 86.9287C689.19 47.9287 661.19 19.9287 661.19 19.9287C661.19 19.9287 616.19 9.92868 616.19 10.9287C616.19 11.9287 643.86 13.9287 643.86 13.9287H657.19C657.19 13.9287 671.19 15.9287 692.19 40.9287C713.19 65.9287 745.19 133.929 748.19 142.929C751.19 151.929 760.19 161.929 760.19 161.929C760.19 161.929 802.19 153.929 802.19 154.929C802.19 155.929 855.19 180.929 855.19 180.929C855.19 180.929 863.19 211.929 863.19 289.929C863.19 332.909 859.55 379.529 856.28 412.729C853.74 438.559 832.36 458.439 806.42 459.139L445.19 468.939L419 468.439L55.57 458.589C30.92 457.919 10.59 439.049 8.14 414.509C4.81 381.189 1 333.399 1 289.429C1 211.429 9 180.429 9 180.429C9 180.429 62 155.429 62 154.429C62 153.429 104 161.429 104 161.429C104 161.429 113 151.429 116 142.429C119 133.429 151 65.4287 172 40.4287C193 15.4287 207 13.4287 207 13.4287H220.33C220.33 13.4287 248 11.4287 248 10.4287C248 9.42868 203 19.4287 203 19.4287C203 19.4287 175 47.4287 157 86.4287C147.76 106.449 141.94 122.779 138.47 133.939C135.93 142.109 142.05 150.399 150.61 150.359C212.8 150.089 648.69 150.569 712.39 150.859Z" stroke="#AFAFAF" stroke-width="2" stroke-miterlimit="10"/>
<path d="M243.5 11.9391C259.02 9.91907 274.59 8.37907 290.18 6.93907C305.77 5.56907 321.38 4.43907 337 3.43907L348.72 2.72907L360.44 2.14908C368.26 1.73908 376.08 1.47908 383.9 1.15908C391.72 0.879076 399.55 0.679077 407.37 0.449077C415.2 0.319077 423.02 0.109075 430.85 0.0490753C446.5 -0.0509247 462.16 -0.0109268 477.81 0.289073L489.55 0.509074L501.29 0.859073C509.11 1.04907 516.93 1.45908 524.75 1.81908C540.38 2.62908 556 3.68908 571.59 5.09908C587.17 6.61908 602.75 8.26908 618.15 11.0491C602.68 8.71908 587.1 7.25908 571.5 6.06908C555.91 4.85908 540.29 3.96908 524.67 3.34908C493.42 2.12908 462.14 1.68908 430.87 2.04908C399.59 2.22908 368.33 3.38907 337.1 4.97907C321.48 5.78907 305.87 6.74908 290.27 7.92908C274.65 9.02908 259.07 10.3691 243.5 11.9391Z" fill="black"/>
<path d="M35.5002 225.939C35.5002 225.939 89.5002 236.939 145.5 251.939C201.5 266.939 226.5 299.939 226.5 299.939C226.5 299.939 81.5002 282.939 67.5002 277.939C53.5002 272.939 35.5002 260.879 35.5002 260.879C35.5002 260.879 33.5002 231.939 35.5002 225.939Z" stroke="#9B9B9B" stroke-width="2" stroke-miterlimit="10"/>
<path d="M35.5 260.879L40.73 288.869C42.47 298.199 44.17 307.539 45.85 316.879L48.38 330.889L49.65 337.899L50.28 341.399L50.6 343.149L50.98 344.859C52.97 353.979 57.55 362.519 64.16 369.099C70.74 375.719 79.24 380.339 88.35 382.319L116.14 388.519L171.68 401.099L171.26 402.749C163.56 400.489 155.92 398.059 148.29 395.589C140.67 393.099 133.07 390.529 125.52 387.819C117.97 385.119 110.48 382.219 103.11 379.039C99.43 377.439 95.79 375.759 92.24 373.879C90.46 372.949 88.73 371.929 87.05 370.829C85.42 369.679 83.72 368.529 82.5 366.919C83.77 368.489 85.48 369.579 87.14 370.679C88.85 371.719 90.6 372.679 92.39 373.569C95.97 375.359 99.64 376.959 103.34 378.469C110.75 381.489 118.31 384.159 125.87 386.779C141.02 391.979 156.34 396.669 171.72 401.099L171.3 402.749L115.7 390.419L87.92 384.169C78.48 382.079 69.66 377.239 62.88 370.349C56.09 363.489 51.29 354.639 49.4 345.179L49.04 343.409L48.75 341.649L48.16 338.139L46.99 331.119L44.65 317.079C43.08 307.719 41.53 298.349 40.02 288.979L35.5 260.879Z" fill="#E8E8E8"/>
<path d="M48.21 268.659C50.06 279.039 51.8099 289.429 53.7299 299.789C55.6499 310.149 57.58 320.509 59.95 330.759C60.49 333.339 61.17 335.869 61.78 338.429C62.5 340.949 63.12 343.509 64 345.979C64.21 346.599 64.4 347.229 64.63 347.839L65.41 349.619C65.88 350.819 66.57 351.959 67.17 353.129C68.41 355.449 69.64 357.779 70.94 360.059C73.53 364.629 76.6899 368.839 80.2599 372.699C83.7699 376.619 87.55 380.289 91.33 383.969C87.4 380.459 83.5499 376.859 79.8999 373.029C76.2499 369.219 72.97 364.999 70.28 360.439C68.92 358.169 67.65 355.849 66.41 353.529C65.8 352.359 65.11 351.249 64.61 349.989L63.7899 348.149C63.5499 347.529 63.36 346.899 63.14 346.269C62.23 343.769 61.59 341.209 60.85 338.669C60.23 336.099 59.53 333.559 58.97 330.979C56.68 320.679 54.73 310.309 52.97 299.919C52.1 294.719 51.26 289.519 50.46 284.309L48.21 268.659Z" fill="black"/>
<path d="M809.73 292.439C809.45 292.849 809.1 293.209 808.73 293.539C808.38 293.899 807.97 294.179 807.57 294.479C806.8 295.119 805.91 295.569 805.08 296.119C804.22 296.609 803.32 297.049 802.44 297.519C801.56 297.979 800.63 298.349 799.72 298.759L798.36 299.369L796.97 299.909L794.18 300.969C792.31 301.659 790.4 302.229 788.52 302.859C786.63 303.479 784.69 303.959 782.78 304.519C780.87 305.089 778.94 305.559 777 306.019C775.06 306.479 773.14 306.979 771.19 307.419L765.35 308.649C749.75 311.869 733.97 314.109 718.16 316.059C686.52 319.819 654.71 321.859 622.9 323.399C591.08 324.889 559.24 325.749 527.4 326.329C495.56 326.899 463.7 327.149 431.86 327.059C400.02 327.239 368.16 327.079 336.32 326.559C304.47 326.049 272.63 325.239 240.8 323.819C208.98 322.379 177.15 320.429 145.48 316.759C129.66 314.859 113.85 312.649 98.2 309.479L92.34 308.259C90.39 307.829 88.45 307.329 86.51 306.869C84.57 306.409 82.62 305.939 80.7 305.379C78.78 304.819 76.84 304.339 74.93 303.729C73.03 303.099 71.11 302.529 69.22 301.839L66.4 300.769L64.99 300.229L63.6 299.619C62.68 299.199 61.74 298.829 60.84 298.369C59.94 297.889 59.03 297.449 58.14 296.939L56.83 296.129C56.39 295.869 55.96 295.579 55.55 295.249C55.13 294.929 54.7 294.639 54.31 294.249C53.89 293.859 53.55 293.569 53.1 292.889L54.96 292.259C55.02 292.459 55.23 292.959 55.44 293.319C55.68 293.709 55.91 294.099 56.21 294.459C56.49 294.839 56.78 295.209 57.12 295.549C57.46 295.889 57.75 296.269 58.12 296.589C58.84 297.239 59.54 297.919 60.34 298.489L61.5 299.389C61.89 299.679 62.32 299.949 62.72 300.219C64.33 301.359 66.08 302.309 67.79 303.319L70.45 304.679L71.78 305.359L73.15 305.969C80.41 309.289 88.02 311.909 95.7 314.229C111.12 318.739 126.9 321.999 142.75 324.739C158.61 327.459 174.57 329.649 190.58 331.399C198.57 332.359 206.6 333.069 214.61 333.869C222.63 334.609 230.66 335.229 238.69 335.889C270.82 338.279 303.02 339.809 335.23 340.739C367.45 341.649 399.67 342.049 431.91 342.159C464.14 342.149 496.37 341.859 528.59 341.019C560.81 340.139 593.01 338.699 625.16 336.389C633.19 335.789 641.23 335.139 649.25 334.469L661.28 333.329L667.29 332.749L673.3 332.079C689.33 330.399 705.3 328.229 721.19 325.589C737.07 322.909 752.88 319.679 768.37 315.219C776.08 312.899 783.73 310.309 791.05 306.949C792.9 306.159 794.66 305.169 796.46 304.269C797.35 303.799 798.2 303.259 799.07 302.749C799.95 302.259 800.78 301.689 801.61 301.119L802.86 300.269L804.04 299.329C804.85 298.729 805.58 298.029 806.31 297.339C806.69 297.009 807 296.609 807.35 296.239C807.7 295.879 808.01 295.479 808.3 295.069C808.95 294.299 809.48 293.419 809.73 292.439ZM809.73 292.439C809.49 293.419 808.96 294.309 808.36 295.109C808.07 295.519 807.76 295.919 807.41 296.289C807.07 296.659 806.76 297.059 806.38 297.389C805.65 298.079 804.92 298.779 804.11 299.389L802.93 300.329L801.69 301.189C800.86 301.769 800.04 302.339 799.16 302.839C798.29 303.349 797.44 303.889 796.55 304.369C794.76 305.289 793 306.289 791.15 307.079C783.83 310.479 776.19 313.109 768.48 315.469C753 320.009 737.19 323.329 721.31 326.089C705.42 328.819 689.44 331.059 673.42 332.829L667.41 333.529L661.39 334.139L649.36 335.339C641.33 336.059 633.3 336.749 625.26 337.389C593.1 339.809 560.88 341.319 528.65 342.299C496.42 343.229 464.17 343.619 431.93 343.719C367.45 343.709 302.92 342.429 238.58 337.719C230.54 337.059 222.5 336.449 214.47 335.719C206.44 334.929 198.41 334.229 190.4 333.269C174.36 331.529 158.37 329.349 142.45 326.639C126.54 323.909 110.7 320.649 95.16 316.119C87.41 313.799 79.73 311.159 72.33 307.779L70.94 307.159L69.58 306.469L66.86 305.079C65.09 304.049 63.3 303.079 61.61 301.889C61.19 301.599 60.75 301.329 60.34 301.019L59.11 300.069C58.27 299.459 57.52 298.739 56.75 298.039C56.36 297.699 56.02 297.279 55.65 296.899C55.28 296.529 54.95 296.099 54.63 295.669C54.29 295.259 54 294.779 53.72 294.309C53.44 293.789 53.2 293.369 53.01 292.599L52.23 289.409L54.88 291.969C54.89 291.979 54.91 291.999 54.91 292.009L55 292.119L55.19 292.349C55.32 292.499 55.51 292.649 55.67 292.809C55.98 293.129 56.38 293.399 56.75 293.679C57.47 294.279 58.35 294.719 59.15 295.249C59.99 295.729 60.87 296.159 61.73 296.619C62.6 297.069 63.52 297.429 64.4 297.839L65.74 298.439L67.12 298.969L69.88 300.019C71.73 300.699 73.63 301.259 75.5 301.889C77.38 302.499 79.31 302.979 81.21 303.529C83.11 304.089 85.04 304.559 86.97 305.019C88.9 305.479 90.82 305.969 92.76 306.399L98.59 307.619C114.15 310.789 129.91 313.009 145.7 314.919C177.3 318.609 209.08 320.579 240.88 322.059C272.68 323.509 304.51 324.349 336.34 324.889C368.18 325.409 400.01 325.669 431.86 325.589C463.71 325.759 495.54 325.599 527.38 325.129C559.22 324.649 591.05 323.859 622.86 322.489C654.66 321.109 686.47 319.229 718.1 315.639C733.9 313.769 749.69 311.609 765.3 308.469L771.15 307.269C773.09 306.839 775.02 306.359 776.96 305.899C778.9 305.449 780.83 304.979 782.74 304.429C784.65 303.879 786.59 303.409 788.48 302.799C790.37 302.179 792.28 301.609 794.15 300.939L796.94 299.889L798.34 299.359L799.71 298.759C800.61 298.349 801.54 297.989 802.43 297.529C803.31 297.069 804.2 296.629 805.07 296.139C805.9 295.589 806.8 295.149 807.57 294.509C807.97 294.209 808.38 293.929 808.73 293.579C809.1 293.209 809.45 292.849 809.73 292.439Z" fill="#CDD1D3"/>
<path d="M63.0701 154.379C62.3501 157.579 62.1101 160.859 61.9001 164.119C61.8201 165.759 61.7101 167.389 61.7001 169.019L61.6401 171.469L61.6501 173.929C61.7001 180.469 61.9101 187.019 62.4401 193.549C62.6201 196.819 62.9601 200.079 63.2101 203.339L64.2301 213.119L65.3801 222.889C65.7901 226.139 66.2201 229.389 66.6001 232.649C66.0001 229.419 65.4601 226.189 64.8901 222.949C64.3801 219.709 63.9401 216.459 63.4601 213.209C63.0101 209.959 62.6801 206.689 62.3001 203.429C62.0201 200.159 61.6401 196.889 61.4301 193.619L61.1301 188.699L60.9401 183.779C60.8601 182.139 60.8601 180.499 60.8401 178.849L60.8101 176.389L60.8701 173.929C61.0801 167.379 61.3601 160.739 63.0701 154.379Z" fill="#E8E8E8"/>
<path d="M215 288.439C215 288.439 91.0002 274.439 81.0002 267.439C71.0002 260.439 64.9902 232.299 64.9902 232.299L71.0002 234.439C71.0002 234.439 75.3402 258.439 86.6702 262.939C98.0002 267.439 208.9 283.039 208.9 283.039L215 288.439Z" stroke="#AFAFAF" stroke-miterlimit="10"/>
<path opacity="0.7" d="M97.5 259.439C103.851 259.439 109 256.082 109 251.939C109 247.797 103.851 244.439 97.5 244.439C91.1487 244.439 86 247.797 86 251.939C86 256.082 91.1487 259.439 97.5 259.439Z" fill="white"/>
<path opacity="0.7" d="M129.5 266.439C135.851 266.439 141 263.082 141 258.939C141 254.797 135.851 251.439 129.5 251.439C123.149 251.439 118 254.797 118 258.939C118 263.082 123.149 266.439 129.5 266.439Z" fill="white"/>
<path opacity="0.7" d="M161.5 273.439C167.006 273.439 171.47 270.529 171.47 266.939C171.47 263.35 167.006 260.439 161.5 260.439C155.994 260.439 151.53 263.35 151.53 266.939C151.53 270.529 155.994 273.439 161.5 273.439Z" fill="white"/>
<path opacity="0.7" d="M92.3499 254.619C97.7181 254.619 102.07 251.781 102.07 248.279C102.07 244.778 97.7181 241.939 92.3499 241.939C86.9817 241.939 82.6299 244.778 82.6299 248.279C82.6299 251.781 86.9817 254.619 92.3499 254.619Z" fill="white"/>
<path opacity="0.7" d="M120.38 260.529C125.748 260.529 130.1 257.69 130.1 254.189C130.1 250.687 125.748 247.849 120.38 247.849C115.012 247.849 110.66 250.687 110.66 254.189C110.66 257.69 115.012 260.529 120.38 260.529Z" fill="white"/>
<path opacity="0.7" d="M153.42 268.439C158.07 268.439 161.84 265.981 161.84 262.949C161.84 259.917 158.07 257.459 153.42 257.459C148.77 257.459 145 259.917 145 262.949C145 265.981 148.77 268.439 153.42 268.439Z" fill="white"/>
<path opacity="0.7" d="M768.12 254.619C773.488 254.619 777.84 251.781 777.84 248.279C777.84 244.778 773.488 241.939 768.12 241.939C762.752 241.939 758.4 244.778 758.4 248.279C758.4 251.781 762.752 254.619 768.12 254.619Z" fill="white"/>
<path opacity="0.7" d="M740.09 260.529C745.458 260.529 749.81 257.69 749.81 254.189C749.81 250.687 745.458 247.849 740.09 247.849C734.722 247.849 730.37 250.687 730.37 254.189C730.37 257.69 734.722 260.529 740.09 260.529Z" fill="white"/>
<path opacity="0.7" d="M707.05 268.439C711.7 268.439 715.47 265.981 715.47 262.949C715.47 259.917 711.7 257.459 707.05 257.459C702.4 257.459 698.63 259.917 698.63 262.949C698.63 265.981 702.4 268.439 707.05 268.439Z" fill="white"/>
<path d="M4.72998 208.089C7.87998 207.749 11.08 207.999 14.21 208.599C17.34 209.209 20.4 210.259 23.22 211.789C26.03 213.319 28.61 215.329 30.69 217.759C32.79 220.179 34.41 222.979 35.5 225.949C34.73 224.569 34 223.179 33.07 221.909C32.21 220.609 31.2 219.409 30.13 218.279C27.97 216.039 25.48 214.139 22.75 212.669C20.03 211.169 17.08 210.119 14.05 209.349C12.54 208.969 10.99 208.679 9.43998 208.479C7.87998 208.239 6.30998 208.119 4.72998 208.089Z" fill="#E8E8E8"/>
<path d="M34.6099 425.089L45.9999 431.439L184 452.439L240.75 403.299C240.75 403.299 192 430.439 178 433.439C164 436.439 34.6099 425.089 34.6099 425.089Z" stroke="#E8E8E8" stroke-width="2" stroke-miterlimit="10"/>
<path d="M828.23 225.939C828.23 225.939 774.23 236.939 718.23 251.939C662.23 266.939 637.23 299.939 637.23 299.939C637.23 299.939 782.23 282.939 796.23 277.939C810.23 272.939 828.23 260.879 828.23 260.879C828.23 260.879 830.23 231.939 828.23 225.939Z" stroke="#9B9B9B" stroke-width="2" stroke-miterlimit="10"/>
<path d="M828.23 260.879L823.7 288.999C822.19 298.369 820.64 307.739 819.07 317.099L816.73 331.139L815.56 338.159L814.97 341.669L814.68 343.429L814.32 345.199C812.44 354.659 807.64 363.509 800.84 370.369C794.06 377.259 785.24 382.099 775.8 384.189L748.02 390.439L692.42 402.769L692 401.119C707.38 396.689 722.71 391.999 737.85 386.799C745.41 384.179 752.97 381.509 760.38 378.489C764.09 376.979 767.76 375.379 771.33 373.589C773.12 372.699 774.88 371.749 776.58 370.699C778.24 369.609 779.96 368.509 781.22 366.939C780 368.549 778.31 369.699 776.67 370.849C774.99 371.949 773.26 372.969 771.48 373.899C767.93 375.769 764.29 377.459 760.61 379.059C753.24 382.229 745.76 385.139 738.2 387.839C730.65 390.549 723.05 393.119 715.43 395.609C707.8 398.079 700.16 400.509 692.46 402.769L692.04 401.119L747.58 388.539L775.37 382.339C784.48 380.359 792.99 375.739 799.56 369.119C806.17 362.539 810.76 353.999 812.74 344.879L813.12 343.169L813.44 341.419L814.07 337.919L815.34 330.909L817.87 316.899C819.55 307.559 821.25 298.219 822.99 288.889L828.23 260.879Z" fill="#E8E8E8"/>
<path d="M815.52 268.659L813.26 284.309C812.46 289.519 811.62 294.719 810.75 299.919C808.99 310.319 807.04 320.679 804.75 330.979C804.19 333.559 803.49 336.109 802.87 338.669C802.13 341.209 801.49 343.769 800.58 346.269C800.36 346.899 800.17 347.529 799.93 348.149L799.11 349.989C798.6 351.249 797.92 352.359 797.31 353.529C796.06 355.849 794.8 358.169 793.44 360.439C790.75 364.999 787.47 369.219 783.82 373.029C780.17 376.849 776.32 380.449 772.39 383.969C776.17 380.289 779.95 376.619 783.46 372.699C787.03 368.839 790.19 364.619 792.78 360.059C794.09 357.779 795.31 355.459 796.55 353.129C797.15 351.959 797.84 350.819 798.31 349.619L799.09 347.839C799.32 347.229 799.51 346.599 799.72 345.979C800.6 343.519 801.23 340.959 801.94 338.429C802.55 335.869 803.22 333.329 803.77 330.759C806.13 320.499 808.07 310.139 809.99 299.789C811.92 289.429 813.67 279.039 815.52 268.659Z" fill="black"/>
<path d="M800.67 154.379C802.38 160.739 802.66 167.379 802.86 173.929L802.92 176.389L802.89 178.849C802.87 180.489 802.87 182.139 802.79 183.779L802.6 188.699L802.3 193.619C802.09 196.899 801.72 200.159 801.43 203.429C801.05 206.689 800.72 209.959 800.27 213.209C799.79 216.459 799.35 219.709 798.84 222.949C798.27 226.179 797.73 229.419 797.13 232.649C797.51 229.389 797.95 226.139 798.35 222.889L799.5 213.119L800.52 203.339C800.77 200.069 801.11 196.809 801.29 193.549C801.83 187.019 802.04 180.469 802.08 173.929L802.09 171.469L802.03 169.019C802.01 167.379 801.91 165.749 801.83 164.119C801.63 160.859 801.39 157.579 800.67 154.379Z" fill="#E8E8E8"/>
<path d="M648.73 288.439C648.73 288.439 772.73 274.439 782.73 267.439C792.73 260.439 798.74 232.299 798.74 232.299L792.73 234.439C792.73 234.439 788.39 258.439 777.06 262.939C765.73 267.439 654.83 283.039 654.83 283.039L648.73 288.439Z" stroke="#AFAFAF" stroke-miterlimit="10"/>
<path opacity="0.7" d="M766.23 259.439C772.581 259.439 777.73 256.082 777.73 251.939C777.73 247.797 772.581 244.439 766.23 244.439C759.879 244.439 754.73 247.797 754.73 251.939C754.73 256.082 759.879 259.439 766.23 259.439Z" fill="white"/>
<path opacity="0.7" d="M734.23 266.439C740.581 266.439 745.73 263.082 745.73 258.939C745.73 254.797 740.581 251.439 734.23 251.439C727.879 251.439 722.73 254.797 722.73 258.939C722.73 263.082 727.879 266.439 734.23 266.439Z" fill="white"/>
<path opacity="0.7" d="M702.23 273.439C707.736 273.439 712.2 270.529 712.2 266.939C712.2 263.35 707.736 260.439 702.23 260.439C696.723 260.439 692.26 263.35 692.26 266.939C692.26 270.529 696.723 273.439 702.23 273.439Z" fill="white"/>
<path d="M859 208.089C857.42 208.119 855.85 208.239 854.3 208.469C852.75 208.669 851.2 208.959 849.69 209.339C846.67 210.109 843.71 211.159 840.99 212.659C838.25 214.129 835.77 216.029 833.61 218.269C832.54 219.399 831.53 220.599 830.67 221.899C829.74 223.159 829 224.549 828.24 225.939C829.33 222.969 830.95 220.169 833.05 217.749C835.14 215.319 837.71 213.309 840.52 211.779C843.34 210.249 846.4 209.199 849.53 208.589C852.65 207.999 855.85 207.749 859 208.089Z" fill="#E8E8E8"/>
<path d="M829.12 425.089L817.73 431.439L679.73 452.439L622.98 403.299C622.98 403.299 671.73 430.439 685.73 433.439C699.73 436.439 829.12 425.089 829.12 425.089Z" stroke="#E8E8E8" stroke-miterlimit="10"/>
<path d="M815.52 457.839C815.73 456.439 801.73 445.439 801.73 445.439L679.73 454.439L611.19 395.159C607.67 392.119 603.17 390.449 598.51 390.479L436 391.439L265.22 390.479C260.57 390.449 256.06 392.119 252.54 395.159L184 454.439L61.9999 445.439C61.9999 445.439 47.9999 456.439 48.2099 457.839" stroke="black" stroke-width="2" stroke-miterlimit="10"/>
<path d="M104 161.439C112.05 162.369 120 164.089 127.82 166.219C135.65 168.359 143.31 171.079 150.77 174.299C158.18 177.609 165.38 181.449 172.06 186.089C175.4 188.399 178.57 190.949 181.62 193.629C184.62 196.369 187.43 199.309 190.01 202.429C187.26 199.459 184.39 196.599 181.3 193.999C178.21 191.409 175 188.939 171.63 186.719C164.91 182.249 157.77 178.429 150.37 175.209C142.99 171.929 135.36 169.239 127.61 166.949C123.74 165.799 119.83 164.769 115.89 163.849C111.96 162.909 107.99 162.099 104 161.439Z" fill="#E8E8E8"/>
<path d="M197 156.439L169 156.669L141 156.809L141.23 156.149C146.95 160.769 152.54 165.549 158.02 170.439C163.5 175.329 168.9 180.329 174.13 185.489C179.36 190.659 184.47 195.959 189.25 201.559C194.07 207.129 198.4 213.129 202.36 219.309C210.31 231.689 217.57 244.469 224.59 257.369C231.64 270.259 238.4 283.299 244.99 296.429C238.19 283.409 231.16 270.509 224.03 257.679C220.46 251.269 216.81 244.889 213.09 238.569C209.4 232.229 205.56 225.969 201.59 219.809C197.61 213.649 193.3 207.719 188.5 202.199C183.71 196.659 178.67 191.329 173.46 186.169C163.04 175.849 152.04 166.099 140.76 156.729L139.95 156.059L140.99 156.069L168.99 156.209L197 156.439Z" fill="#E8E8E8"/>
<path d="M753.5 161.439C749.51 162.099 745.54 162.909 741.61 163.849C737.67 164.769 733.76 165.799 729.89 166.949C722.14 169.239 714.51 171.929 707.13 175.209C699.73 178.429 692.59 182.249 685.87 186.719C682.5 188.939 679.3 191.399 676.2 193.999C673.11 196.599 670.24 199.459 667.49 202.429C670.07 199.309 672.88 196.369 675.88 193.629C678.92 190.949 682.1 188.399 685.44 186.089C692.12 181.449 699.32 177.609 706.73 174.299C714.18 171.079 721.85 168.359 729.68 166.219C737.5 164.089 745.45 162.369 753.5 161.439Z" fill="#E8E8E8"/>
<path d="M660.5 156.439L688.5 156.209L716.5 156.069L717.54 156.059L716.73 156.729C705.45 166.099 694.45 175.849 684.03 186.169C678.82 191.329 673.78 196.659 668.99 202.199C664.18 207.729 659.87 213.649 655.9 219.809C651.93 225.969 648.09 232.229 644.4 238.569C640.67 244.889 637.03 251.269 633.46 257.679C626.33 270.509 619.3 283.409 612.5 296.429C619.09 283.299 625.84 270.259 632.9 257.369C639.93 244.469 647.19 231.689 655.13 219.309C659.1 213.119 663.43 207.129 668.24 201.559C673.02 195.959 678.13 190.659 683.36 185.489C688.59 180.319 693.99 175.329 699.47 170.439C704.95 165.539 710.54 160.769 716.26 156.149L716.49 156.809L688.49 156.669L660.5 156.439Z" fill="#E8E8E8"/>
<path d="M653 28.4391C653 28.4391 675 59.4391 688 86.4391C695.06 101.089 699.76 115.159 702.58 124.959C704.53 131.719 699.47 138.449 692.44 138.469L174.04 139.419C166.63 139.429 161.07 132.639 162.58 125.379C165.55 111.089 171.19 88.7991 180 72.4391C194 46.4391 209 27.4391 209 27.4391C209 27.4391 277 10.3691 433 10.3691C589 10.3691 653 28.4391 653 28.4391Z" stroke="black" stroke-miterlimit="10"/>
<path opacity="0.1" d="M291.31 150.299L423.05 0.939453H463.56L341.69 150.299H291.31Z" fill="white"/>
<path opacity="0.2" d="M405.5 149.939L523.5 1.93945L568.33 5.29945L461.52 150.299L405.5 149.939Z" fill="white"/>
</g>
<defs>
<clipPath id="clip0_100_7283">
<rect width="865" height="530" fill="white"/>
</clipPath>
</defs>
</svg>
